<svg width="82" height="73" viewBox="0 0 82 73" fill="none" xmlns="http://www.w3.org/2000/svg">
<path d="M29.0013 68.3285L30.1612 68.7838L30.0205 67.5457C29.7193 64.8949 29.4748 60.9487 30.106 58.1896C30.4193 56.886 31.3991 52.7307 32.3003 48.9022C32.7515 46.9855 33.1833 45.1499 33.5022 43.7934L33.8843 42.1679L33.99 41.7179L34.0178 41.6L34.0249 41.5698L34.0266 41.5622L34.0271 41.5603L34.0272 41.5598C34.0272 41.5597 34.0272 41.5596 33.2971 41.3881L34.0272 41.5596L34.0885 41.2987L33.9714 41.0597L33.9712 41.0592L33.9709 41.0587L33.9708 41.0584L33.9706 41.0581L33.9656 41.0474C33.9604 41.0362 33.9518 41.0177 33.9404 40.9919C33.9175 40.9403 33.8832 40.86 33.8411 40.753C33.7568 40.539 33.6419 40.2189 33.5262 39.8093C33.2946 38.989 33.0618 37.8168 33.0618 36.4212C33.0618 31.98 35.6034 29.0471 38.3646 29.0471C39.5843 29.0471 40.4198 29.4967 40.9655 30.1661C41.5281 30.8561 41.8375 31.8499 41.8375 33.0026C41.8375 34.3164 41.4139 36.012 40.8379 37.9522C40.6877 38.4582 40.5275 38.9797 40.3644 39.5106C39.9164 40.9687 39.4467 42.4976 39.1028 43.9701C38.1736 47.8332 41.0748 50.9458 44.7794 50.9458C48.0465 50.9458 50.888 49.2167 52.8849 46.3571C54.8762 43.5056 56.0464 39.5158 56.0464 34.8728C56.0464 30.6853 54.5383 27.0828 51.9162 24.5275C49.2954 21.9735 45.6067 20.509 41.3206 20.509C31.363 20.509 25.4688 28.016 25.4688 35.7777C25.4688 38.7953 26.615 42.0602 28.1243 43.885C28.1984 43.9841 28.2129 44.036 28.217 44.0556C28.2211 44.0749 28.2263 44.1154 28.2034 44.2126L28.2027 44.2157C28.083 44.7344 27.8608 45.6331 27.6624 46.4354C27.4927 47.1218 27.3404 47.7378 27.2846 47.985C27.2594 47.9748 27.2314 47.9627 27.2007 47.9482L27.1993 47.9476C25.3174 47.07 23.7209 45.216 22.5881 42.919C21.4596 40.6307 20.8355 37.9887 20.8355 35.657C20.8355 30.56 22.6888 25.6931 26.2627 22.1023C29.831 18.5171 35.1617 16.1573 42.2054 16.1573C53.4461 16.1573 62.0872 24.1365 62.0872 34.732C62.0872 45.9873 55.0105 54.7948 45.4631 54.7948C43.8902 54.7948 42.3639 54.3842 41.1099 53.7351C39.8459 53.0808 38.9167 52.2158 38.4658 51.3558L37.5694 49.646L37.0764 51.5125L37.8015 51.704L37.0764 51.5125L37.0763 51.5128L37.0761 51.5136L37.0752 51.5171L37.0716 51.5309L37.0573 51.5847L37.003 51.7904L36.8061 52.5363C36.6415 53.1604 36.4177 54.0089 36.1814 54.9064C35.7097 56.698 35.1868 58.6891 34.9844 59.4782C34.2506 62.2567 32.2745 65.8125 30.9081 68.0429L30.4031 68.8672L31.3271 69.1515C34.534 70.1383 37.9263 70.6728 41.4614 70.6728C60.3558 70.6728 75.6728 55.3558 75.6728 36.4614C75.6728 17.567 60.3558 2.25 41.4614 2.25C22.567 2.25 7.25 17.567 7.25 36.4614C7.25 50.958 16.2774 63.3335 29.0013 68.3285Z" stroke="#626262" stroke-width="1.5"/>
</svg>
