<svg width="82" height="73" viewBox="0 0 82 73" fill="none" xmlns="http://www.w3.org/2000/svg">
<path d="M8.67224 10.488C6.92869 13.123 6.08416 16.2355 5.66601 20.3771C5.25 24.4974 5.25 29.7179 5.25 36.6001V36.6442V36.6884C5.25 43.5706 5.25 48.7911 5.66601 52.9114C6.08416 57.053 6.92869 60.1654 8.67224 62.8005C10.2004 65.1101 12.1784 67.088 14.488 68.6162C17.123 70.3598 20.2355 71.2043 24.3771 71.6225C28.4974 72.0385 33.7179 72.0385 40.6001 72.0385H40.6442H40.6884C47.5706 72.0385 52.7911 72.0385 56.9114 71.6225C61.053 71.2043 64.1654 70.3598 66.8005 68.6162C69.1101 67.088 71.088 65.1101 72.6162 62.8005C74.3598 60.1654 75.2043 57.053 75.6225 52.9114C76.0385 48.7911 76.0385 43.5706 76.0385 36.6884V36.6442V36.6001C76.0385 29.7179 76.0385 24.4974 75.6225 20.3771C75.2043 16.2355 74.3598 13.123 72.6162 10.488C71.088 8.17839 69.1101 6.20044 66.8005 4.67224C64.1654 2.92869 61.053 2.08416 56.9114 1.66601C52.7911 1.25 47.5706 1.25 40.6884 1.25H40.6442H40.6001C33.7179 1.25 28.4974 1.25 24.3771 1.66601C20.2355 2.08416 17.123 2.92869 14.488 4.67224C12.1784 6.20044 10.2004 8.17839 8.67224 10.488ZM57.83 36.6442C57.83 46.1357 50.1357 53.83 40.6442 53.83C31.1528 53.83 23.4585 46.1357 23.4585 36.6442C23.4585 27.1528 31.1528 19.4585 40.6442 19.4585C50.1357 19.4585 57.83 27.1528 57.83 36.6442ZM40.6442 49.2618C47.6127 49.2618 53.2618 43.6127 53.2618 36.6442C53.2618 29.6757 47.6127 24.0267 40.6442 24.0267C33.6757 24.0267 28.0267 29.6757 28.0267 36.6442C28.0267 43.6127 33.6757 49.2618 40.6442 49.2618ZM62.752 17.8064C62.752 19.7197 61.201 21.2708 59.2877 21.2708C57.3743 21.2708 55.8233 19.7197 55.8233 17.8064C55.8233 15.8931 57.3743 14.342 59.2877 14.342C61.201 14.342 62.752 15.8931 62.752 17.8064Z" stroke="#626262" stroke-width="1.5"/>
</svg>
