<svg width="1107" height="130" viewBox="0 0 1107 130" fill="none" xmlns="http://www.w3.org/2000/svg">
<mask id="path-1-outside-1" maskUnits="userSpaceOnUse" x="0.644287" y="0.0500488" width="1106" height="130" fill="black">
<rect fill="white" x="0.644287" y="0.0500488" width="1106" height="130"/>
<path d="M39.2693 30.975H1.64429V3.50005H111.369V30.975H73.9193V126H39.2693V30.975ZM181.328 93.4501H162.428V126H127.778V3.50005H183.778C194.862 3.50005 204.487 5.36672 212.653 9.10005C220.82 12.7167 227.12 17.9667 231.553 24.8501C235.987 31.6167 238.203 39.6084 238.203 48.8251C238.203 57.6917 236.103 65.4501 231.903 72.1001C227.82 78.6334 221.928 83.7667 214.228 87.5001L240.653 126H203.553L181.328 93.4501ZM203.203 48.8251C203.203 43.1084 201.395 38.6751 197.778 35.5251C194.162 32.3751 188.795 30.8001 181.678 30.8001H162.428V66.6751H181.678C188.795 66.6751 194.162 65.1584 197.778 62.1251C201.395 58.9751 203.203 54.5417 203.203 48.8251ZM342.894 102.2H291.094L281.469 126H246.119L300.194 3.50005H334.319L388.569 126H352.519L342.894 102.2ZM332.744 76.6501L316.994 37.4501L301.244 76.6501H332.744ZM401.893 3.50005H436.543V126H401.893V3.50005ZM581.244 3.50005V126H552.719L498.644 60.7251V126H464.694V3.50005H493.219L547.294 68.7751V3.50005H581.244ZM725.736 3.50005V126H697.211L643.135 60.7251V126H609.185V3.50005H637.711L691.786 68.7751V3.50005H725.736ZM852.027 99.2251V126H753.677V3.50005H849.752V30.275H787.977V50.9251H842.402V76.8251H787.977V99.2251H852.027ZM928.305 93.4501H909.405V126H874.755V3.50005H930.755C941.838 3.50005 951.463 5.36672 959.63 9.10005C967.796 12.7167 974.097 17.9667 978.53 24.8501C982.963 31.6167 985.18 39.6084 985.18 48.8251C985.18 57.6917 983.08 65.4501 978.88 72.1001C974.796 78.6334 968.905 83.7667 961.205 87.5001L987.63 126H950.53L928.305 93.4501ZM950.18 48.8251C950.18 43.1084 948.371 38.6751 944.755 35.5251C941.138 32.3751 935.772 30.8001 928.655 30.8001H909.405V66.6751H928.655C935.772 66.6751 941.138 65.1584 944.755 62.1251C948.371 58.9751 950.18 54.5417 950.18 48.8251ZM1050.85 128.45C1040.93 128.45 1031.3 127.225 1021.97 124.775C1012.64 122.325 1005.05 119.058 999.221 114.975L1010.6 89.4251C1016.08 93.0417 1022.44 95.9584 1029.67 98.1751C1036.9 100.392 1044.02 101.5 1051.02 101.5C1064.32 101.5 1070.97 98.1751 1070.97 91.5251C1070.97 88.0251 1069.05 85.4584 1065.2 83.8251C1061.46 82.0751 1055.4 80.2667 1047 78.4001C1037.78 76.4167 1030.08 74.3167 1023.9 72.1001C1017.71 69.7667 1012.4 66.0917 1007.97 61.0751C1003.54 56.0584 1001.32 49.2917 1001.32 40.7751C1001.32 33.3084 1003.36 26.6001 1007.45 20.65C1011.53 14.5834 1017.6 9.80005 1025.65 6.30005C1033.81 2.80005 1043.79 1.05005 1055.57 1.05005C1063.62 1.05005 1071.55 1.98338 1079.37 3.85005C1087.19 5.60005 1094.07 8.22505 1100.02 11.725L1089.35 37.4501C1077.68 31.1501 1066.36 28.0001 1055.4 28.0001C1048.51 28.0001 1043.5 29.0501 1040.35 31.15C1037.2 33.1334 1035.62 35.7584 1035.62 39.0251C1035.62 42.2917 1037.49 44.7417 1041.22 46.3751C1044.95 48.0084 1050.96 49.7001 1059.25 51.4501C1068.58 53.4334 1076.28 55.5917 1082.35 57.9251C1088.53 60.1417 1093.84 63.7584 1098.27 68.7751C1102.82 73.6751 1105.1 80.3834 1105.1 88.9001C1105.1 96.2501 1103.05 102.9 1098.97 108.85C1094.89 114.8 1088.76 119.583 1080.6 123.2C1072.43 126.7 1062.51 128.45 1050.85 128.45Z"/>
</mask>
<path d="M39.2693 30.975H1.64429V3.50005H111.369V30.975H73.9193V126H39.2693V30.975ZM181.328 93.4501H162.428V126H127.778V3.50005H183.778C194.862 3.50005 204.487 5.36672 212.653 9.10005C220.82 12.7167 227.12 17.9667 231.553 24.8501C235.987 31.6167 238.203 39.6084 238.203 48.8251C238.203 57.6917 236.103 65.4501 231.903 72.1001C227.82 78.6334 221.928 83.7667 214.228 87.5001L240.653 126H203.553L181.328 93.4501ZM203.203 48.8251C203.203 43.1084 201.395 38.6751 197.778 35.5251C194.162 32.3751 188.795 30.8001 181.678 30.8001H162.428V66.6751H181.678C188.795 66.6751 194.162 65.1584 197.778 62.1251C201.395 58.9751 203.203 54.5417 203.203 48.8251ZM342.894 102.2H291.094L281.469 126H246.119L300.194 3.50005H334.319L388.569 126H352.519L342.894 102.2ZM332.744 76.6501L316.994 37.4501L301.244 76.6501H332.744ZM401.893 3.50005H436.543V126H401.893V3.50005ZM581.244 3.50005V126H552.719L498.644 60.7251V126H464.694V3.50005H493.219L547.294 68.7751V3.50005H581.244ZM725.736 3.50005V126H697.211L643.135 60.7251V126H609.185V3.50005H637.711L691.786 68.7751V3.50005H725.736ZM852.027 99.2251V126H753.677V3.50005H849.752V30.275H787.977V50.9251H842.402V76.8251H787.977V99.2251H852.027ZM928.305 93.4501H909.405V126H874.755V3.50005H930.755C941.838 3.50005 951.463 5.36672 959.63 9.10005C967.796 12.7167 974.097 17.9667 978.53 24.8501C982.963 31.6167 985.18 39.6084 985.18 48.8251C985.18 57.6917 983.08 65.4501 978.88 72.1001C974.796 78.6334 968.905 83.7667 961.205 87.5001L987.63 126H950.53L928.305 93.4501ZM950.18 48.8251C950.18 43.1084 948.371 38.6751 944.755 35.5251C941.138 32.3751 935.772 30.8001 928.655 30.8001H909.405V66.6751H928.655C935.772 66.6751 941.138 65.1584 944.755 62.1251C948.371 58.9751 950.18 54.5417 950.18 48.8251ZM1050.85 128.45C1040.93 128.45 1031.3 127.225 1021.97 124.775C1012.64 122.325 1005.05 119.058 999.221 114.975L1010.6 89.4251C1016.08 93.0417 1022.44 95.9584 1029.67 98.1751C1036.9 100.392 1044.02 101.5 1051.02 101.5C1064.32 101.5 1070.97 98.1751 1070.97 91.5251C1070.97 88.0251 1069.05 85.4584 1065.2 83.8251C1061.46 82.0751 1055.4 80.2667 1047 78.4001C1037.78 76.4167 1030.08 74.3167 1023.9 72.1001C1017.71 69.7667 1012.4 66.0917 1007.97 61.0751C1003.54 56.0584 1001.32 49.2917 1001.32 40.7751C1001.32 33.3084 1003.36 26.6001 1007.45 20.65C1011.53 14.5834 1017.6 9.80005 1025.65 6.30005C1033.81 2.80005 1043.79 1.05005 1055.57 1.05005C1063.62 1.05005 1071.55 1.98338 1079.37 3.85005C1087.19 5.60005 1094.07 8.22505 1100.02 11.725L1089.35 37.4501C1077.68 31.1501 1066.36 28.0001 1055.4 28.0001C1048.51 28.0001 1043.5 29.0501 1040.35 31.15C1037.2 33.1334 1035.62 35.7584 1035.62 39.0251C1035.62 42.2917 1037.49 44.7417 1041.22 46.3751C1044.95 48.0084 1050.96 49.7001 1059.25 51.4501C1068.58 53.4334 1076.28 55.5917 1082.35 57.9251C1088.53 60.1417 1093.84 63.7584 1098.27 68.7751C1102.82 73.6751 1105.1 80.3834 1105.1 88.9001C1105.1 96.2501 1103.05 102.9 1098.97 108.85C1094.89 114.8 1088.76 119.583 1080.6 123.2C1072.43 126.7 1062.51 128.45 1050.85 128.45Z" stroke="#E1E1E1" stroke-width="2" mask="url(#path-1-outside-1)"/>
</svg>
