<svg width="32" height="32" viewBox="0 0 32 32" fill="none" xmlns="http://www.w3.org/2000/svg">
<rect width="32" height="32" fill="#141414"/>
<path d="M10.7377 10V9.69762L10.4993 9.88358L9.39553 10.7444L9.33869 10.7887V10.8608V20.6468V20.7187L9.39529 20.763L10.499 21.6275L10.7377 21.8145V21.5113V10Z" fill="white" stroke="white" stroke-width="0.295276"/>
<path d="M21.2545 10V9.69762L21.4929 9.88358L22.5967 10.7444L22.6535 10.7887V10.8608V20.6468V20.7187L22.5969 20.763L21.4932 21.6275L21.2545 21.8145V21.5113V10Z" fill="white" stroke="white" stroke-width="0.295276"/>
<path d="M7.99585 11.6086V11.3062L7.75739 11.4923L6.65331 12.3539L6.59649 12.3982L6.5965 12.4703L6.74414 12.4702L6.5965 12.4703L6.5965 12.4705L6.5965 12.4711L6.5965 12.4735L6.5965 12.483L6.59651 12.5203L6.59652 12.6639L6.59658 13.1929L6.59675 14.945L6.597 19.0413V19.1133L6.65372 19.1576L7.7573 20.0202L7.99585 20.2067V19.9039V11.6086Z" fill="white" stroke="white" stroke-width="0.295276"/>
<path d="M23.9963 11.6084V11.3059L24.2348 11.492L25.3389 12.3536L25.3957 12.3979L25.3957 12.47L25.248 12.47L25.3957 12.4701L25.3957 12.4702L25.3957 12.4708L25.3957 12.4732L25.3957 12.4827L25.3957 12.5201L25.3957 12.6637L25.3956 13.1927L25.3954 14.9447L25.3952 19.0411V19.113L25.3385 19.1574L24.2349 20.02L23.9963 20.2064V19.9037V11.6084Z" fill="white" stroke="white" stroke-width="0.295276"/>
<rect x="12.0887" y="14.8829" width="7.81362" height="1.3994" fill="white" stroke="white" stroke-width="0.295276"/>
<path d="M3.90902 13.9608L3.85236 14.0052V14.0771V17.426V17.4975L3.90848 17.5419L5.0126 18.4142L5.25176 18.6031V18.2983V13.2131V12.9101L5.01314 13.0969L3.90902 13.9608Z" fill="white" stroke="white" stroke-width="0.295276"/>
<path d="M28.091 13.9606L28.1476 14.0049V14.0769V17.4258V17.4973L28.0915 17.5416L26.9874 18.4139L26.7482 18.6029V18.2981V13.2129V12.9099L26.9869 13.0966L28.091 13.9606Z" fill="white" stroke="white" stroke-width="0.295276"/>
</svg>
