<svg width="1025" height="130" viewBox="0 0 1025 130" fill="none" xmlns="http://www.w3.org/2000/svg">
<path fill-rule="evenodd" clip-rule="evenodd" d="M86.567 89.4644C78.246 93.1494 68.4773 94.9751 57.2871 94.9751H36.9371V127H0.287109V2.50005H57.2871C68.4786 2.50005 78.2495 4.38447 86.5722 8.18801C94.8966 11.8755 101.353 17.2457 105.9 24.3048C110.454 31.2556 112.712 39.4429 112.712 48.8251C112.712 58.2085 110.453 66.3967 105.899 73.3481C101.351 80.2895 94.8966 85.6567 86.5779 89.4595L86.567 89.4644ZM105.062 24.8501C100.629 17.9667 94.3288 12.7167 86.1621 9.10005C77.9954 5.36672 68.3704 3.50005 57.2871 3.50005H1.28711V126H35.9371V93.9751H57.2871C68.3704 93.9751 77.9954 92.1667 86.1621 88.5501C94.3288 84.8167 100.629 79.5667 105.062 72.8001C109.495 66.0334 111.712 58.0417 111.712 48.8251C111.712 39.6084 109.495 31.6167 105.062 24.8501ZM217.654 126L208.029 102.2H156.229L146.604 126H111.254L165.329 3.50005H199.454L253.704 126H217.654ZM156.903 103.2L147.278 127H109.72L164.677 2.50005H200.105L255.241 127H216.98L207.355 103.2H156.903ZM379.068 105.35C373.118 112.817 365.652 118.533 356.668 122.5C347.685 126.467 337.593 128.45 326.393 128.45C313.56 128.45 302.01 125.767 291.743 120.4C281.593 114.917 273.602 107.333 267.768 97.6501C261.935 87.9667 259.018 77.0001 259.018 64.7501C259.018 52.5001 261.935 41.5334 267.768 31.85C273.602 22.1667 281.593 14.6417 291.743 9.27505C302.01 3.79172 313.56 1.05005 326.393 1.05005C337.593 1.05005 347.685 3.03338 356.668 7.00006C365.652 10.9667 373.118 16.6834 379.068 24.1501L357.018 44.1001C356.804 43.8419 356.589 43.5872 356.372 43.336C348.564 34.2787 339.155 29.7501 328.143 29.7501C321.493 29.7501 315.543 31.2084 310.293 34.125C305.16 37.0417 301.135 41.1834 298.218 46.5501C295.418 51.8001 294.018 57.8667 294.018 64.7501C294.018 71.6334 295.418 77.7584 298.218 83.1251C301.135 88.3751 305.16 92.4584 310.293 95.3751C315.543 98.2917 321.493 99.7501 328.143 99.7501C339.155 99.7501 348.564 95.2214 356.372 86.1641C356.589 85.9129 356.804 85.6582 357.018 85.4001L379.068 105.35ZM310.782 94.5028C315.868 97.327 321.646 98.7501 328.143 98.7501C339.131 98.7501 348.484 94.1248 356.249 84.7617L356.915 83.958L380.436 105.239L379.85 105.973C373.797 113.57 366.199 119.385 357.072 123.415C347.945 127.445 337.713 129.45 326.393 129.45C313.416 129.45 301.705 126.735 291.28 121.286L291.268 121.28C280.964 115.713 272.839 108.006 266.912 98.1661C260.977 88.314 258.018 77.1662 258.018 64.7501C258.018 52.334 260.977 41.1861 266.912 31.334C272.84 21.4931 280.967 13.8424 291.274 8.39224C301.699 2.82426 313.413 0.0500488 326.393 0.0500488C337.713 0.0500488 347.945 2.05504 357.072 6.08527C366.199 10.1152 373.797 15.9302 379.85 23.5268L380.436 24.2614L356.915 45.5421L356.249 44.7384C348.484 35.3753 339.131 30.7501 328.143 30.7501C321.646 30.7501 315.868 32.1729 310.783 34.9969C305.821 37.8174 301.928 41.8189 299.099 47.0244C296.389 52.1075 295.018 58.0067 295.018 64.7501C295.018 71.4899 296.387 77.4488 299.099 82.6515C301.927 87.7365 305.818 91.6808 310.782 94.5028ZM480.268 126L445.268 81.5501L432.318 95.3751V126H398.018V3.50005H432.318V54.4251L479.743 3.50005H517.893L467.843 57.7501L515.48 119.473L566.674 3.50005H600.799L655.049 126H618.999L609.374 102.2H557.574L547.949 126H480.268ZM479.782 127L445.202 83.083L433.318 95.7703V127H397.018V2.50005H433.318V51.8839L479.307 2.50005H520.176L469.15 57.8075L515.244 117.531L566.022 2.50005H601.45L656.585 127H618.325L608.7 103.2H558.248L548.623 127H479.782ZM747.738 61.1251H780.363V113.389L779.946 113.688C772.846 118.776 764.692 122.672 755.496 125.384C746.308 128.093 737.113 129.45 727.913 129.45C714.936 129.45 703.224 126.735 692.8 121.286L692.792 121.282C682.371 115.716 674.186 108.009 668.257 98.1661C662.322 88.314 659.363 77.1662 659.363 64.7501C659.363 52.334 662.322 41.1861 668.257 31.334C674.188 21.4877 682.435 13.8369 692.976 8.38839C703.517 2.82232 715.404 0.0500488 728.613 0.0500488C740.159 0.0500488 750.562 1.99438 759.803 5.90408C769.042 9.8128 776.756 15.4471 782.929 22.8074L783.548 23.5454L760.045 44.8105L759.374 44.0732C751.266 35.1661 741.612 30.7501 730.363 30.7501C720.083 30.7501 711.895 33.8827 705.695 40.0822L705.689 40.0886C699.498 46.1668 696.363 54.3495 696.363 64.7501C696.363 71.3662 697.787 77.2641 700.614 82.4677C703.44 87.5539 707.391 91.5625 712.481 94.5051C717.563 97.3264 723.398 98.7501 730.013 98.7501C736.303 98.7501 742.208 97.5251 747.738 95.0792V61.1251ZM748.738 95.7251C742.905 98.4084 736.663 99.7501 730.013 99.7501C723.246 99.7501 717.238 98.2917 711.988 95.3751C706.738 92.3417 702.655 88.2001 699.738 82.9501C696.821 77.5834 695.363 71.5167 695.363 64.7501C695.363 54.1334 698.571 45.6751 704.988 39.375C711.405 32.9584 719.863 29.7501 730.363 29.7501C741.913 29.7501 751.83 34.3001 760.113 43.4001L782.163 23.4501C776.096 16.2167 768.513 10.6751 759.413 6.82505C750.313 2.97505 740.046 1.05005 728.613 1.05005C715.546 1.05005 703.821 3.79172 693.438 9.27505C683.055 14.6417 674.946 22.1667 669.113 31.85C663.28 41.5334 660.363 52.5001 660.363 64.7501C660.363 77.0001 663.28 87.9667 669.113 97.6501C674.946 107.333 682.996 114.917 693.263 120.4C703.53 125.767 715.08 128.45 727.913 128.45C737.013 128.45 746.113 127.108 755.213 124.425C764.313 121.742 772.363 117.892 779.363 112.875V62.1251H748.738V95.7251ZM904.181 98.2251V127H803.831V2.50005H901.906V31.275H840.131V49.9251H894.556V77.8251H840.131V98.2251H904.181ZM839.131 76.8251H893.556V50.9251H839.131V30.275H900.906V3.50005H804.831V126H903.181V99.2251H839.131V76.8251ZM916.085 115.322L928.275 87.9409L929.26 88.5903C934.652 92.1472 940.922 95.0261 948.077 97.2189C955.223 99.4089 962.241 100.5 969.134 100.5C975.733 100.5 980.533 99.6699 983.649 98.1119C985.193 97.3399 986.291 96.4056 987.005 95.3344C987.715 94.2695 988.084 93.0126 988.084 91.5251C988.084 89.9706 987.661 88.6693 986.84 87.5751C986.011 86.4694 984.729 85.5138 982.919 84.7456L982.902 84.7384L982.885 84.7305C979.257 83.0301 973.282 81.2409 964.896 79.3772C955.655 77.3883 947.91 75.2776 941.672 73.0414L941.664 73.0386L941.656 73.0357C935.318 70.644 929.875 66.8743 925.335 61.7373C920.7 56.4923 918.434 49.4672 918.434 40.7751C918.434 33.1151 920.532 26.209 924.733 20.0872C928.942 13.8351 935.173 8.94282 943.36 5.38298L943.365 5.3809C951.69 1.81321 961.807 0.0500488 973.684 0.0500488C981.81 0.0500488 989.82 0.992051 997.71 2.87596C1005.61 4.64513 1012.59 7.30385 1018.64 10.8631L1019.39 11.3044L1007.96 38.8561L1006.98 38.33C995.433 32.0924 984.279 29.0001 973.509 29.0001C966.684 29.0001 961.913 30.0495 959.014 31.9821L959.003 31.9893L958.992 31.9963C956.085 33.8267 954.734 36.155 954.734 39.0251C954.734 40.4536 955.137 41.6666 955.93 42.7065C956.732 43.7596 957.975 44.6891 959.735 45.4589C963.37 47.049 969.294 48.7241 977.566 50.4716L977.567 50.4719C986.925 52.4605 994.677 54.6306 1000.81 56.9878C1007.14 59.2615 1012.59 62.9712 1017.13 68.1039C1021.88 73.2346 1024.21 80.2079 1024.21 88.9001C1024.21 96.4481 1022.11 103.296 1017.91 109.416C1013.7 115.551 1007.41 120.44 999.114 124.114L999.103 124.119C990.78 127.686 980.721 129.45 968.959 129.45C958.959 129.45 949.249 128.215 939.83 125.742C930.42 123.272 922.719 119.965 916.761 115.794L916.085 115.322ZM1016.38 68.7751C1011.95 63.7584 1006.64 60.1417 1000.46 57.9251C994.393 55.5917 986.693 53.4334 977.359 51.4501C969.076 49.7001 963.068 48.0084 959.334 46.3751C955.601 44.7417 953.734 42.2917 953.734 39.0251C953.734 35.7584 955.309 33.1334 958.459 31.15C961.609 29.0501 966.626 28.0001 973.509 28.0001C984.198 28.0001 995.219 30.9924 1006.57 36.9771C1006.87 37.1327 1007.16 37.2904 1007.46 37.4501L1018.13 11.725C1012.18 8.22505 1005.3 5.60005 997.484 3.85005C989.668 1.98338 981.734 1.05005 973.684 1.05005C961.901 1.05005 951.926 2.80005 943.759 6.30005C935.709 9.80005 929.643 14.5834 925.559 20.65C921.476 26.6001 919.434 33.3084 919.434 40.7751C919.434 49.2917 921.651 56.0584 926.084 61.0751C930.518 66.0917 935.826 69.7667 942.009 72.1001C948.193 74.3167 955.893 76.4167 965.109 78.4001C973.509 80.2667 979.576 82.0751 983.309 83.8251C987.159 85.4584 989.084 88.0251 989.084 91.5251C989.084 98.1751 982.434 101.5 969.134 101.5C962.134 101.5 955.018 100.392 947.784 98.1751C940.921 96.072 934.846 93.3387 929.559 89.9754C929.273 89.7938 928.99 89.6103 928.709 89.4251L917.334 114.975C923.167 119.058 930.751 122.325 940.084 124.775C949.417 127.225 959.042 128.45 968.959 128.45C980.626 128.45 990.542 126.7 998.709 123.2C1006.88 119.583 1013 114.8 1017.08 108.85C1021.17 102.9 1023.21 96.2501 1023.21 88.9001C1023.21 80.3834 1020.93 73.6751 1016.38 68.7751ZM70.6373 61.3649C67.2724 64.1831 62.1785 65.6751 55.1871 65.6751H36.9371V31.8001H55.1871C62.176 31.8001 67.2662 33.3491 70.6303 36.2791C73.9869 39.2026 75.7121 43.3367 75.7121 48.8251C75.7121 54.3097 73.9893 58.4418 70.6373 61.3649ZM35.9371 66.6751H55.1871C62.3038 66.6751 67.6704 65.1584 71.2871 62.1251C74.9038 58.9751 76.7121 54.5417 76.7121 48.8251C76.7121 43.1084 74.9038 38.6751 71.2871 35.5251C67.6704 32.3751 62.3038 30.8001 55.1871 30.8001H35.9371V66.6751ZM182.129 37.4501L166.379 76.6501H197.879L182.129 37.4501ZM182.129 40.1323L167.859 75.6501H196.4L182.129 40.1323ZM583.474 37.4501L567.724 76.6501H599.224L583.474 37.4501ZM583.474 40.1324L569.203 75.6501H597.744L583.474 40.1324Z" fill="#E1E1E1"/>
</svg>
