<svg width="758" height="130" viewBox="0 0 758 130" fill="none" xmlns="http://www.w3.org/2000/svg">
<path fill-rule="evenodd" clip-rule="evenodd" d="M142.37 2.4998L89.0125 127H53.5678L0.38855 2.4998H40.0198L72.6127 80.7228L105.892 2.4998H142.37ZM72.6031 83.2998L39.3531 3.4998H1.9031L54.2281 126H88.3531L140.853 3.4998H106.553L72.6031 83.2998ZM238.952 126L229.327 102.2H177.527L167.902 126H132.552L186.627 3.4998H220.752L275.002 126H238.952ZM178.201 103.2L168.576 127H131.017L185.975 2.4998H221.402L276.538 127H238.277L228.652 103.2H178.201ZM287.325 2.4998H323.975V97.5248H382.425V127H287.325V2.4998ZM322.975 98.5248V3.4998H288.325V126H381.425V98.5248H322.975ZM410.741 114.29L410.737 114.286C400.463 104.131 395.39 89.7859 395.39 71.3998V2.4998H432.04V70.3498C432.04 80.0448 433.963 87.1313 437.643 91.7791C441.287 96.3823 446.781 98.7498 454.315 98.7498C461.788 98.7498 467.238 96.3842 470.854 91.782C474.506 87.1339 476.415 80.0461 476.415 70.3498V2.4998H512.54V71.3998C512.54 89.7881 507.408 104.134 497.016 114.288C486.745 124.438 472.347 129.45 453.965 129.45C435.581 129.45 421.127 124.437 410.741 114.29ZM496.315 113.575C506.465 103.658 511.54 89.5998 511.54 71.3998V3.4998H477.415V70.3498C477.415 89.9498 469.715 99.7498 454.315 99.7498C438.798 99.7498 431.04 89.9498 431.04 70.3498V3.4998H396.39V71.3998C396.39 89.5998 401.407 103.658 411.44 113.575C421.59 123.491 435.765 128.45 453.965 128.45C472.165 128.45 486.282 123.491 496.315 113.575ZM637.863 98.2248V127H537.513V2.4998H635.588V31.2748H573.813V49.9248H628.238V77.8248H573.813V98.2248H637.863ZM572.813 76.8248H627.238V50.9248H572.813V30.2748H634.588V3.4998H538.513V126H636.863V99.2248H572.813V76.8248ZM649.768 115.321L661.957 87.9407L662.942 88.59C668.335 92.1469 674.604 95.0258 681.759 97.2187C688.905 99.4086 695.923 100.5 702.816 100.5C709.415 100.5 714.216 99.6697 717.332 98.1116C718.875 97.3397 719.973 96.4053 720.687 95.3342C721.397 94.2693 721.766 93.0123 721.766 91.5248C721.766 89.9704 721.343 88.6691 720.523 87.5748C719.693 86.4692 718.411 85.5136 716.601 84.7454L716.584 84.7382L716.567 84.7303C712.939 83.0299 706.965 81.2406 698.579 79.3769C689.337 77.3881 681.592 75.2774 675.354 73.0411L675.346 73.0383L675.338 73.0354C669 70.6438 663.557 66.8741 659.017 61.737C654.382 56.4921 652.116 49.467 652.116 40.7748C652.116 33.1148 654.214 26.2088 658.415 20.0869C662.624 13.8349 668.855 8.94257 677.043 5.38274L677.047 5.38065C685.372 1.81297 695.49 0.0498047 707.366 0.0498047C715.492 0.0498047 723.502 0.991807 731.393 2.87572C739.292 4.64488 746.273 7.3036 752.323 10.8629L753.074 11.3042L741.641 38.8559L740.666 38.3297C729.115 32.0922 717.961 28.9998 707.191 28.9998C700.366 28.9998 695.595 30.0492 692.696 31.9819L692.685 31.9891L692.674 31.996C689.767 33.8264 688.416 36.1548 688.416 39.0248C688.416 40.4534 688.82 41.6664 689.612 42.7063C690.414 43.7593 691.658 44.6889 693.417 45.4587C697.052 47.0488 702.976 48.7238 711.248 50.4714L711.249 50.4716C720.607 52.4603 728.359 54.6303 734.49 56.9876C740.827 59.2612 746.269 62.971 750.808 68.1037C755.567 73.2344 757.891 80.2076 757.891 88.8998C757.891 96.4478 755.791 103.296 751.591 109.416C747.38 115.551 741.092 120.44 732.796 124.114L732.785 124.119C724.462 127.686 714.403 129.45 702.641 129.45C692.641 129.45 682.931 128.214 673.512 125.742C664.103 123.272 656.401 119.965 650.443 115.794L649.768 115.321ZM750.066 68.7748C745.633 63.7581 740.325 60.1415 734.141 57.9248C728.075 55.5915 720.375 53.4331 711.041 51.4498C702.758 49.6998 696.75 48.0081 693.016 46.3748C689.283 44.7415 687.416 42.2915 687.416 39.0248C687.416 35.7581 688.991 33.1331 692.141 31.1498C695.291 29.0498 700.308 27.9998 707.191 27.9998C717.88 27.9998 728.901 30.9922 740.255 36.9768C740.55 37.1325 740.846 37.2901 741.141 37.4498L751.816 11.7248C745.866 8.22481 738.983 5.59981 731.166 3.84981C723.35 1.98314 715.416 1.0498 707.366 1.0498C695.583 1.0498 685.608 2.79981 677.441 6.29981C669.391 9.79981 663.325 14.5831 659.241 20.6498C655.158 26.5998 653.116 33.3081 653.116 40.7748C653.116 49.2915 655.333 56.0581 659.766 61.0748C664.2 66.0915 669.508 69.7665 675.691 72.0998C681.875 74.3165 689.575 76.4165 698.791 78.3998C707.191 80.2665 713.258 82.0748 716.991 83.8248C720.841 85.4581 722.766 88.0248 722.766 91.5248C722.766 98.1748 716.116 101.5 702.816 101.5C695.816 101.5 688.7 100.391 681.466 98.1748C674.604 96.0717 668.528 93.3385 663.241 89.9752C662.955 89.7935 662.672 89.6101 662.391 89.4248L651.016 114.975C656.85 119.058 664.433 122.325 673.766 124.775C683.1 127.225 692.725 128.45 702.641 128.45C714.308 128.45 724.225 126.7 732.391 123.2C740.558 119.583 746.683 114.8 750.766 108.85C754.85 102.9 756.891 96.2498 756.891 88.8998C756.891 80.3831 754.616 73.6748 750.066 68.7748ZM203.427 37.4498L187.677 76.6498H219.177L203.427 37.4498ZM203.427 40.1321L189.156 75.6498H217.697L203.427 40.1321Z" fill="#3D3D3D"/>
</svg>
