<svg width="1412" height="130" viewBox="0 0 1412 130" fill="none" xmlns="http://www.w3.org/2000/svg">
<path fill-rule="evenodd" clip-rule="evenodd" d="M0.617188 115.322L12.8072 87.9409L13.7916 88.5903C19.1843 92.1472 25.4534 95.0261 32.6091 97.2189C39.7551 99.4089 46.773 100.5 53.6661 100.5C60.265 100.5 65.0653 99.6699 68.1814 98.1119C69.7252 97.3399 70.823 96.4056 71.5371 95.3344C72.2471 94.2695 72.6161 93.0126 72.6161 91.5251C72.6161 89.9706 72.193 88.6694 71.3723 87.5751C70.5431 86.4694 69.2612 85.5138 67.4505 84.7456L67.4334 84.7384L67.4166 84.7305C63.789 83.0301 57.8139 81.2408 49.4274 79.377C40.1859 77.3882 32.4413 75.2775 26.2036 73.0414L26.1958 73.0386L26.188 73.0357C19.8502 70.644 14.4065 66.8743 9.86673 61.7373C5.23167 56.4923 2.96605 49.4672 2.96605 40.7751C2.96605 33.1154 5.06391 26.2096 9.26398 20.0879C13.4734 13.8356 19.7045 8.94292 27.8923 5.38298L27.8971 5.3809C36.2218 1.81321 46.3392 0.0500488 58.2161 0.0500488C66.3418 0.0500488 74.3508 0.991983 82.2414 2.87576C90.1409 4.64492 97.1221 7.30372 103.173 10.8631L103.923 11.3044L92.4903 38.8561L91.5159 38.33C79.9649 32.0924 68.8105 29.0001 58.0411 29.0001C51.2155 29.0001 46.4447 30.0495 43.5458 31.9821L43.5349 31.9893L43.5239 31.9963C40.6168 33.8267 39.2661 36.155 39.2661 39.0251C39.2661 40.4536 39.6692 41.6666 40.4615 42.7065C41.2638 43.7595 42.5074 44.6891 44.2669 45.4589C47.9015 47.049 53.8258 48.7241 62.0978 50.4716L62.0989 50.4719C71.4568 52.4605 79.2083 54.6305 85.3394 56.9876C91.6761 59.2613 97.1188 62.971 101.657 68.1037C106.417 73.2344 108.741 80.2078 108.741 88.9001C108.741 96.4481 106.64 103.296 102.441 109.416C98.23 115.551 91.942 120.44 83.646 124.114L83.635 124.119C75.3115 127.687 65.2528 129.45 53.4911 129.45C43.4911 129.45 33.7806 128.215 24.3622 125.742C14.9524 123.272 7.25052 119.965 1.29259 115.794L0.617188 115.322ZM100.916 68.7751C96.4827 63.7584 91.1744 60.1417 84.9911 57.9251C78.9244 55.5917 71.2244 53.4334 61.8911 51.4501C53.6077 49.7001 47.5994 48.0084 43.8661 46.3751C40.1327 44.7417 38.2661 42.2917 38.2661 39.0251C38.2661 35.7584 39.8411 33.1334 42.9911 31.15C46.1411 29.0501 51.1577 28.0001 58.0411 28.0001C68.7298 28.0001 79.751 30.9924 91.1046 36.9771C91.3999 37.1327 91.6954 37.2904 91.9911 37.4501L102.666 11.725C96.7161 8.22505 89.8327 5.60005 82.0161 3.85005C74.1994 1.98338 66.2661 1.05005 58.2161 1.05005C46.4327 1.05005 36.4577 2.80005 28.2911 6.30005C20.2411 9.80005 14.1744 14.5834 10.0911 20.65C6.00772 26.6001 3.96605 33.3084 3.96605 40.7751C3.96605 49.2917 6.18272 56.0584 10.6161 61.0751C15.0494 66.0917 20.3577 69.7667 26.5411 72.1001C32.7244 74.3167 40.4244 76.4167 49.6411 78.4001C58.0411 80.2667 64.1077 82.0751 67.8411 83.8251C71.6911 85.4584 73.6161 88.0251 73.6161 91.5251C73.6161 98.1751 66.9661 101.5 53.6661 101.5C46.6661 101.5 39.5494 100.392 32.3161 98.1751C25.4533 96.0719 19.3782 93.3387 14.0907 89.9754C13.8052 89.7938 13.522 89.6103 13.2411 89.4251L1.86606 114.975C7.69939 119.058 15.2827 122.325 24.6161 124.775C33.9494 127.225 43.5744 128.45 53.4911 128.45C65.1577 128.45 75.0744 126.7 83.2411 123.2C91.4077 119.583 97.5327 114.8 101.616 108.85C105.699 102.9 107.741 96.2501 107.741 88.9001C107.741 80.3834 105.466 73.6751 100.916 68.7751ZM153.555 121.109L153.551 121.107C143.131 115.542 134.89 107.837 128.845 97.9986L128.84 97.9911C122.906 88.1405 119.947 77.0514 119.947 64.7501C119.947 52.4487 122.906 41.3596 128.84 31.509L128.845 31.5015C134.89 21.6632 143.131 13.9578 153.551 8.39297L153.555 8.39077C164.096 2.82386 175.926 0.0500488 189.022 0.0500488C202.116 0.0500488 213.889 2.82347 224.316 8.39194C234.851 13.9561 243.096 21.6626 249.026 31.5058C255.078 41.3563 258.097 52.4467 258.097 64.7501C258.097 77.0533 255.078 88.1436 249.027 97.994C243.096 107.837 234.851 115.544 224.316 121.108C213.889 126.677 202.116 129.45 189.022 129.45C175.926 129.45 164.096 126.676 153.555 121.109ZM223.847 120.225C234.23 114.742 242.338 107.158 248.172 97.4751C254.122 87.7917 257.097 76.8834 257.097 64.7501C257.097 52.6167 254.122 41.7084 248.172 32.0251C242.338 22.3417 234.23 14.7584 223.847 9.27505C213.58 3.79172 201.972 1.05005 189.022 1.05005C176.072 1.05005 164.405 3.79172 154.022 9.27505C143.755 14.7584 135.647 22.3417 129.697 32.0251C123.863 41.7084 120.947 52.6167 120.947 64.7501C120.947 76.8834 123.863 87.7917 129.697 97.4751C135.647 107.158 143.755 114.742 154.022 120.225C164.405 125.708 176.072 128.45 189.022 128.45C201.972 128.45 213.58 125.708 223.847 120.225ZM216.848 47.0357L216.843 47.0276C214.009 41.8131 210.169 37.8092 205.319 34.9896C200.465 32.1675 195.04 30.7501 189.022 30.7501C183.003 30.7501 177.578 32.1675 172.724 34.9896C167.875 37.8092 164.034 41.8131 161.2 47.0276L161.196 47.0357C158.373 52.1166 156.947 58.0115 156.947 64.7501C156.947 71.4865 158.372 77.4425 161.198 82.6439C164.031 87.7401 167.87 91.6885 172.724 94.5105C177.578 97.3326 183.003 98.7501 189.022 98.7501C195.04 98.7501 200.465 97.3326 205.319 94.5105C210.173 91.6885 214.013 87.7401 216.845 82.6439C219.671 77.4425 221.097 71.4865 221.097 64.7501C221.097 58.0115 219.67 52.1166 216.848 47.0357ZM217.722 83.1251C214.805 88.3751 210.838 92.4584 205.822 95.3751C200.805 98.2917 195.205 99.7501 189.022 99.7501C182.838 99.7501 177.238 98.2917 172.222 95.3751C167.205 92.4584 163.238 88.3751 160.322 83.1251C157.405 77.7584 155.947 71.6334 155.947 64.7501C155.947 57.8667 157.405 51.8001 160.322 46.5501C163.238 41.1834 167.205 37.0417 172.222 34.125C177.238 31.2084 182.838 29.7501 189.022 29.7501C195.205 29.7501 200.805 31.2084 205.822 34.125C210.838 37.0417 214.805 41.1834 217.722 46.5501C220.638 51.8001 222.097 57.8667 222.097 64.7501C222.097 71.6334 220.638 77.7584 217.722 83.1251ZM392.495 105.35C386.545 112.817 379.078 118.533 370.095 122.5C361.111 126.467 351.02 128.45 339.82 128.45C326.986 128.45 315.436 125.767 305.17 120.4C295.02 114.917 287.028 107.333 281.195 97.6501C275.361 87.9667 272.445 77.0001 272.445 64.7501C272.445 52.5001 275.361 41.5334 281.195 31.85C287.028 22.1667 295.02 14.6417 305.17 9.27505C315.436 3.79172 326.986 1.05005 339.82 1.05005C351.02 1.05005 361.111 3.03338 370.095 7.00006C379.078 10.9667 386.545 16.6834 392.495 24.1501L370.445 44.1001C370.231 43.8419 370.015 43.5872 369.799 43.336C361.991 34.2787 352.581 29.7501 341.57 29.7501C334.92 29.7501 328.97 31.2084 323.72 34.125C318.586 37.0417 314.561 41.1834 311.645 46.5501C308.845 51.8001 307.445 57.8667 307.445 64.7501C307.445 71.6334 308.845 77.7584 311.645 83.1251C314.561 88.3751 318.586 92.4584 323.72 95.3751C328.97 98.2917 334.92 99.7501 341.57 99.7501C352.581 99.7501 361.991 95.2214 369.799 86.1641C370.015 85.9129 370.231 85.6582 370.445 85.4001L392.495 105.35ZM324.209 94.5028C329.294 97.327 335.073 98.7501 341.57 98.7501C352.557 98.7501 361.91 94.1248 369.675 84.7617L370.341 83.958L393.862 105.239L393.277 105.973C387.223 113.57 379.625 119.385 370.499 123.415C361.371 127.445 351.139 129.45 339.82 129.45C326.843 129.45 315.131 126.735 304.707 121.286L304.694 121.28C294.391 115.713 286.266 108.006 280.338 98.1661C274.403 88.314 271.445 77.1662 271.445 64.7501C271.445 52.334 274.403 41.1861 280.338 31.334C286.266 21.4931 294.393 13.8424 304.7 8.39224C315.126 2.82426 326.84 0.0500488 339.82 0.0500488C351.139 0.0500488 361.371 2.05504 370.499 6.08527C379.625 10.1152 387.223 15.9302 393.277 23.5268L393.862 24.2614L370.341 45.5421L369.675 44.7384C361.91 35.3753 352.557 30.7501 341.57 30.7501C335.073 30.7501 329.295 32.1729 324.21 34.9969C319.247 37.8174 315.355 41.8189 312.525 47.0244C309.815 52.1075 308.445 58.0067 308.445 64.7501C308.445 71.4899 309.814 77.4488 312.526 82.6515C315.353 87.7365 319.244 91.6808 324.209 94.5028ZM410.444 2.50005H447.094V127H410.444V2.50005ZM565.946 126L556.321 102.2H504.521L494.896 126H459.546L513.621 3.50005H547.746L601.996 126H565.946ZM505.195 103.2L495.57 127H458.011L512.969 2.50005H548.397L603.532 127H565.271L555.646 103.2H505.195ZM614.319 2.50005H650.969V97.5251H709.419V127H614.319V2.50005ZM649.969 98.5251V3.50005H615.319V126H708.419V98.5251H649.969ZM889.664 127L889.328 64.6735L859.376 114.925H842.848L813.083 66.3697V127H779.058V2.50005H809.145L851.623 72.2599L893.064 2.50005H923.155L923.511 127H889.664ZM851.633 74.2001L808.583 3.50005H780.058V126H812.083V62.8251L843.408 113.925H858.808L890.308 61.0751L890.658 126H922.508L922.158 3.50005H893.633L851.633 74.2001ZM1049.88 98.2251V127H949.526V2.50005H1047.6V31.275H985.826V49.9251H1040.25V77.8251H985.826V98.2251H1049.88ZM984.826 76.8251H1039.25V50.9251H984.826V30.275H1046.6V3.50005H950.526V126H1048.88V99.2251H984.826V76.8251ZM1070.6 2.50005H1129.53C1143.07 2.50005 1155.12 5.03253 1165.66 10.1246C1176.21 15.2184 1184.41 22.4597 1190.23 31.848C1196.06 41.2442 1198.95 52.2239 1198.95 64.7501C1198.95 77.2763 1196.06 88.2559 1190.23 97.6521C1184.41 107.04 1176.21 114.282 1165.66 119.375C1155.12 124.468 1143.07 127 1129.53 127H1070.6V2.50005ZM1152.64 88.698L1152.65 88.6918C1158.82 82.9684 1161.95 75.032 1161.95 64.7501C1161.95 54.4681 1158.82 46.5317 1152.65 40.8083L1152.64 40.8021C1146.57 35.0631 1138.43 32.15 1128.13 32.15H1107.25V97.3501H1128.13C1138.43 97.3501 1146.57 94.437 1152.64 88.698ZM1106.25 98.3501V31.15H1128.13C1138.63 31.15 1147.03 34.125 1153.33 40.0751C1159.75 46.0251 1162.95 54.2501 1162.95 64.7501C1162.95 75.2501 1159.75 83.4751 1153.33 89.4251C1147.03 95.3751 1138.63 98.3501 1128.13 98.3501H1106.25ZM1218.68 2.50005H1255.33V127H1218.68V2.50005ZM1374.19 126L1364.56 102.2H1312.76L1303.14 126H1267.79L1321.86 3.50005H1355.99L1410.24 126H1374.19ZM1313.44 103.2L1303.81 127H1266.25L1321.21 2.50005H1356.64L1411.77 127H1373.51L1363.89 103.2H1313.44ZM530.421 37.4501L514.671 76.6501H546.171L530.421 37.4501ZM530.421 40.1324L516.15 75.6501H544.691L530.421 40.1324ZM1338.66 37.4501L1322.91 76.6501H1354.41L1338.66 37.4501ZM1338.66 40.1322L1324.39 75.6501H1352.93L1338.66 40.1322ZM411.444 3.50005V126H446.094V3.50005H411.444ZM1071.6 3.50005V126H1129.53C1142.95 126 1154.85 123.492 1165.23 118.475C1175.61 113.458 1183.66 106.342 1189.38 97.1251C1195.1 87.9084 1197.95 77.1167 1197.95 64.7501C1197.95 52.3834 1195.1 41.5917 1189.38 32.3751C1183.66 23.1584 1175.61 16.0417 1165.23 11.0251C1154.85 6.00838 1142.95 3.50005 1129.53 3.50005H1071.6ZM1219.68 3.50005V126H1254.33V3.50005H1219.68Z" fill="#E1E1E1"/>
</svg>
