<svg width="913" height="130" viewBox="0 0 913 130" fill="none" xmlns="http://www.w3.org/2000/svg">
<path fill-rule="evenodd" clip-rule="evenodd" d="M33.361 121.28C23.0571 115.713 14.9323 108.006 9.00475 98.1661C3.06977 88.314 0.111328 77.1662 0.111328 64.7501C0.111328 52.334 3.06977 41.1861 9.00475 31.334C14.9332 21.4929 23.06 13.8421 33.3674 8.39183C43.7929 2.82412 55.5067 0.0500488 68.4863 0.0500488C79.806 0.0500488 90.038 2.05504 99.1653 6.08527C108.292 10.1152 115.89 15.9302 121.943 23.5268L122.529 24.2614L99.008 45.5421L98.3416 44.7384C90.5771 35.3753 81.2237 30.7501 70.2363 30.7501C63.7395 30.7501 57.9613 32.1729 52.8764 34.9968C47.9142 37.8171 44.0219 41.8184 41.192 47.0238C38.4817 52.107 37.1113 58.0064 37.1113 64.7501C37.1113 71.4896 38.48 77.4483 41.1918 82.6509C44.0196 87.7363 47.9108 91.6809 52.8758 94.503C57.9608 97.3271 63.7393 98.7501 70.2363 98.7501C81.2237 98.7501 90.5771 94.1248 98.3416 84.7617L99.008 83.958L122.529 105.239L121.943 105.973C115.89 113.57 108.292 119.385 99.1653 123.415C90.038 127.445 79.806 129.45 68.4863 129.45C55.5093 129.45 43.7976 126.735 33.3731 121.286L33.361 121.28ZM52.3863 95.3751C47.253 92.4584 43.228 88.3751 40.3113 83.1251C37.5113 77.7584 36.1113 71.6334 36.1113 64.7501C36.1113 57.8667 37.5113 51.8001 40.3113 46.5501C43.228 41.1834 47.253 37.0417 52.3863 34.125C57.6363 31.2084 63.5863 29.7501 70.2363 29.7501C81.2476 29.7501 90.6573 34.2787 98.4653 43.336C98.6819 43.5872 98.8972 43.8419 99.1113 44.1001L121.161 24.1501C115.211 16.6834 107.745 10.9667 98.7613 7.00006C89.778 3.03338 79.6863 1.05005 68.4863 1.05005C55.653 1.05005 44.103 3.79172 33.8363 9.27505C23.6863 14.6417 15.6947 22.1667 9.86133 31.85C4.028 41.5334 1.11133 52.5001 1.11133 64.7501C1.11133 77.0001 4.028 87.9667 9.86133 97.6501C15.6947 107.333 23.6863 114.917 33.8363 120.4C44.103 125.767 55.653 128.45 68.4863 128.45C79.6863 128.45 89.778 126.467 98.7613 122.5C107.745 118.533 115.211 112.817 121.161 105.35L99.1113 85.4001C98.8972 85.6582 98.6819 85.9129 98.4653 86.1641C90.6573 95.2214 81.2476 99.7501 70.2363 99.7501C63.5863 99.7501 57.6363 98.2917 52.3863 95.3751ZM163.855 121.109L163.851 121.107C153.432 115.542 145.19 107.837 139.145 97.9986L139.14 97.9911C133.206 88.1405 130.247 77.0514 130.247 64.7501C130.247 52.4487 133.206 41.3596 139.14 31.509L139.145 31.5015C145.19 21.6632 153.432 13.9578 163.851 8.39297L163.855 8.39077C174.397 2.82386 186.226 0.0500488 199.322 0.0500488C212.417 0.0500488 224.189 2.82346 234.616 8.39194C245.151 13.9557 253.395 21.6613 259.325 31.5033C265.378 41.3545 268.397 52.4456 268.397 64.7501C268.397 77.0544 265.378 88.1456 259.325 97.9967C253.395 107.839 245.151 115.545 234.616 121.108C224.189 126.677 212.417 129.45 199.322 129.45C186.226 129.45 174.397 126.676 163.855 121.109ZM234.147 120.225C244.53 114.742 252.639 107.158 258.472 97.4751C264.422 87.7917 267.397 76.8834 267.397 64.7501C267.397 52.6167 264.422 41.7084 258.472 32.0251C252.639 22.3417 244.53 14.7584 234.147 9.27505C223.88 3.79172 212.272 1.05005 199.322 1.05005C186.372 1.05005 174.705 3.79172 164.322 9.27505C154.055 14.7584 145.947 22.3417 139.997 32.0251C134.164 41.7084 131.247 52.6167 131.247 64.7501C131.247 76.8834 134.164 87.7917 139.997 97.4751C145.947 107.158 154.055 114.742 164.322 120.225C174.705 125.708 186.372 128.45 199.322 128.45C212.272 128.45 223.88 125.708 234.147 120.225ZM227.148 47.0357L227.143 47.0276C224.309 41.8131 220.469 37.8092 215.619 34.9896C210.765 32.1675 205.341 30.7501 199.322 30.7501C193.303 30.7501 187.879 32.1675 183.025 34.9896C178.175 37.8092 174.335 41.8131 171.501 47.0276L171.496 47.0357C168.673 52.1166 167.247 58.0115 167.247 64.7501C167.247 71.4865 168.673 77.4425 171.499 82.6439C174.331 87.7401 178.171 91.6885 183.025 94.5105C187.879 97.3326 193.303 98.7501 199.322 98.7501C205.341 98.7501 210.765 97.3326 215.619 94.5105C220.473 91.6885 224.313 87.7401 227.145 82.6439C229.971 77.4425 231.397 71.4865 231.397 64.7501C231.397 58.0115 229.971 52.1166 227.148 47.0357ZM228.022 83.1251C225.105 88.3751 221.139 92.4584 216.122 95.3751C211.105 98.2917 205.505 99.7501 199.322 99.7501C193.139 99.7501 187.539 98.2917 182.522 95.3751C177.505 92.4584 173.539 88.3751 170.622 83.1251C167.705 77.7584 166.247 71.6334 166.247 64.7501C166.247 57.8667 167.705 51.8001 170.622 46.5501C173.539 41.1834 177.505 37.0417 182.522 34.125C187.539 31.2084 193.139 29.7501 199.322 29.7501C205.505 29.7501 211.105 31.2084 216.122 34.125C221.139 37.0417 225.105 41.1834 228.022 46.5501C230.939 51.8001 232.397 57.8667 232.397 64.7501C232.397 71.6334 230.939 77.7584 228.022 83.1251ZM406.595 2.50005V127H376.6L323.995 63.4997V127H288.045V2.50005H318.04L370.645 66.0004V2.50005H406.595ZM371.645 68.7751L317.57 3.50005H289.045V126H322.995V60.7251L377.07 126H405.595V3.50005H371.645V68.7751ZM420.986 31.975V2.50005H532.711V31.975H495.261V127H458.611V31.975H420.986ZM459.611 30.975V126H494.261V30.975H531.711V3.50005H421.986V30.975H459.611ZM633.668 126L624.043 102.2H572.243L562.618 126H527.268L581.343 3.50005H615.468L669.718 126H633.668ZM572.917 103.2L563.292 127H525.733L580.691 2.50005H616.119L671.255 127H632.994L623.369 103.2H572.917ZM795.082 105.35C789.132 112.817 781.666 118.533 772.682 122.5C763.699 126.467 753.607 128.45 742.407 128.45C729.574 128.45 718.024 125.767 707.757 120.4C697.607 114.917 689.616 107.333 683.782 97.6501C677.949 87.9667 675.032 77.0001 675.032 64.7501C675.032 52.5001 677.949 41.5334 683.782 31.85C689.616 22.1667 697.607 14.6417 707.757 9.27505C718.024 3.79172 729.574 1.05005 742.407 1.05005C753.607 1.05005 763.699 3.03338 772.682 7.00006C781.666 10.9667 789.132 16.6834 795.082 24.1501L773.032 44.1001C772.818 43.8419 772.603 43.5872 772.386 43.336C764.578 34.2787 755.168 29.7501 744.157 29.7501C737.507 29.7501 731.557 31.2084 726.307 34.125C721.174 37.0417 717.149 41.1834 714.232 46.5501C711.432 51.8001 710.032 57.8667 710.032 64.7501C710.032 71.6334 711.432 77.7584 714.232 83.1251C717.149 88.3751 721.174 92.4584 726.307 95.3751C731.557 98.2917 737.507 99.7501 744.157 99.7501C755.168 99.7501 764.578 95.2214 772.386 86.1641C772.603 85.9129 772.818 85.6582 773.032 85.4001L795.082 105.35ZM726.796 94.5028C731.881 97.327 737.66 98.7501 744.157 98.7501C755.145 98.7501 764.498 94.1248 772.262 84.7617L772.929 83.958L796.45 105.239L795.864 105.973C789.811 113.57 782.213 119.385 773.086 123.415C763.959 127.445 753.727 129.45 742.407 129.45C729.43 129.45 717.719 126.735 707.294 121.286L707.282 121.28C696.978 115.713 688.853 108.006 682.926 98.1661C676.991 88.314 674.032 77.1662 674.032 64.7501C674.032 52.334 676.991 41.1861 682.926 31.334C688.854 21.4936 696.98 13.8431 707.286 8.39297C717.712 2.8245 729.427 0.0500488 742.407 0.0500488C753.727 0.0500488 763.959 2.05504 773.086 6.08527C782.213 10.1152 789.811 15.9302 795.864 23.5268L796.45 24.2614L772.929 45.5421L772.262 44.7384C764.498 35.3753 755.145 30.7501 744.157 30.7501C737.66 30.7501 731.882 32.1729 726.797 34.9969C721.835 37.8174 717.942 41.8189 715.113 47.0245C712.403 52.1075 711.032 58.0067 711.032 64.7501C711.032 71.4899 712.401 77.4488 715.113 82.6515C717.941 87.7365 721.832 91.6808 726.796 94.5028ZM800.456 31.975V2.50005H912.181V31.975H874.731V127H838.081V31.975H800.456ZM839.081 30.975V126H873.731V30.975H911.181V3.50005H801.456V30.975H839.081ZM598.143 37.4501L582.393 76.6501H613.893L598.143 37.4501ZM598.143 40.1324L583.872 75.6501H612.413L598.143 40.1324Z" fill="#E1E1E1"/>
</svg>
