<svg width="22" height="23" viewBox="0 0 22 23" fill="none" xmlns="http://www.w3.org/2000/svg">
<path d="M18.4747 8.23735C18.4747 12.234 11.2374 21.9079 11.2374 21.9079C11.2374 21.9079 4 12.234 4 8.23735C4 4.24073 7.24073 1 11.2374 1C15.234 1 18.4747 4.24073 18.4747 8.23735Z" stroke="#141414" stroke-miterlimit="10"/>
<path d="M11.2377 5.73227C10.6997 5.73227 10.1836 5.94601 9.80319 6.32647C9.42273 6.70693 9.20898 7.22294 9.20898 7.761C9.20898 8.29905 9.42273 8.81506 9.80319 9.19552C10.1836 9.57598 10.6997 9.78972 11.2377 9.78972C11.7758 9.78972 12.2918 9.57598 12.6722 9.19552C13.0527 8.81506 13.2664 8.29905 13.2664 7.761C13.2664 7.22294 13.0527 6.70693 12.6722 6.32647C12.2918 5.94601 11.7758 5.73227 11.2377 5.73227V5.73227Z" stroke="#141414" stroke-miterlimit="10"/>
</svg>
