<svg width="82" height="73" viewBox="0 0 82 73" fill="none" xmlns="http://www.w3.org/2000/svg">
<path d="M69.295 63.7902C60.4109 64.4537 51.7052 64.9899 42.7628 64.8192L42.0199 64.8051L42.0203 64.7665L26.695 64.4801L26.6939 64.48C25.7038 64.4601 24.7067 64.4519 23.7048 64.4437C19.5312 64.4094 15.2764 64.3744 11.1094 63.4888C6.94863 62.6196 4.70768 60.0233 3.46345 56.8359C2.28976 53.8292 1.98193 50.2441 1.70824 47.0564C1.69718 46.9277 1.68618 46.7996 1.67518 46.6721L1.67507 46.6709C0.881375 37.2911 1.18837 27.7389 2.68705 18.4321L2.68716 18.4314C3.12861 15.7066 4.22896 13.4732 5.94424 11.8746C7.66088 10.2748 9.9379 9.36267 12.6379 9.18452C29.9386 7.95976 47.3458 8.10543 64.5812 8.67595C66.4587 8.73003 68.3354 9.02428 70.1361 9.35072M69.295 63.7902C69.2943 63.7902 69.2937 63.7903 69.293 63.7903L69.2395 63.0422L69.2954 63.7902C69.2952 63.7902 69.2951 63.7902 69.295 63.7902ZM69.295 63.7902C73.0535 63.5208 75.4651 61.969 77.018 59.5995C78.5321 57.2892 79.1868 54.2631 79.627 51.1218M79.627 51.1218C80.729 43.5003 80.9722 35.7884 80.3958 28.1172L80.3957 28.1165C80.3682 27.7549 80.3415 27.3882 80.3144 27.0177C80.0635 23.5766 79.7882 19.8026 78.6354 16.6412C77.9904 14.8724 77.059 13.2556 75.6746 11.9731C74.2851 10.6858 72.4765 9.77011 70.1361 9.35072M79.627 51.1218C79.6271 51.1213 79.6272 51.1208 79.6273 51.1203L78.8845 51.0163L79.6268 51.1236C79.6269 51.123 79.627 51.1224 79.627 51.1218ZM70.1361 9.35072C70.1358 9.35066 70.1355 9.35061 70.1352 9.35055L70.0029 10.0888L70.1367 9.35083C70.1365 9.35079 70.1363 9.35075 70.1361 9.35072ZM42.6896 64.7791H42.701C42.714 64.7791 42.7081 64.7799 42.6896 64.7791ZM42.7771 64.0694C42.7775 64.0291 42.7263 64.0291 42.701 64.0291L42.7771 64.0694ZM42.0856 30.8203C45.2863 32.7011 48.4911 34.5842 51.7264 36.4802C48.2139 38.5398 44.7227 40.5903 41.2212 42.6469C38.8386 44.0463 36.4512 45.4485 34.0492 46.8582V26.1011C36.7355 27.6766 39.4091 29.2476 42.0856 30.8203Z" stroke="#626262" stroke-width="1.5"/>
</svg>
