<svg width="32" height="48" viewBox="0 0 32 48" fill="none" xmlns="http://www.w3.org/2000/svg">
<path d="M30.1478 17.5739C30.1478 25.6219 15.5739 45.1024 15.5739 45.1024C15.5739 45.1024 1 25.6219 1 17.5739C1 9.52587 7.52587 3 15.5739 3C23.6219 3 30.1478 9.52587 30.1478 17.5739Z" stroke="white" stroke-width="2" stroke-miterlimit="10"/>
<path d="M15.5738 12.5293C14.4903 12.5293 13.4512 12.9597 12.6851 13.7258C11.9189 14.492 11.4885 15.5311 11.4885 16.6146C11.4885 17.698 11.9189 18.7371 12.6851 19.5033C13.4512 20.2694 14.4903 20.6998 15.5738 20.6998C16.6573 20.6998 17.6964 20.2694 18.4625 19.5033C19.2286 18.7371 19.659 17.698 19.659 16.6146C19.659 15.5311 19.2286 14.492 18.4625 13.7258C17.6964 12.9597 16.6573 12.5293 15.5738 12.5293V12.5293Z" stroke="white" stroke-width="2" stroke-miterlimit="10"/>
</svg>
