<svg width="517" height="130" viewBox="0 0 517 130" fill="none" xmlns="http://www.w3.org/2000/svg">
<path fill-rule="evenodd" clip-rule="evenodd" d="M0.452637 127V2.50005H64.1026C79.8337 2.50005 91.973 5.43036 100.38 11.4335C108.806 17.3332 113.053 25.3936 113.053 35.5251C113.053 41.5327 111.548 46.9674 108.528 51.8019C105.978 55.9436 102.456 59.327 97.9873 61.9568C104.182 64.4738 109.148 68.1732 112.847 73.068C116.965 78.3986 119.003 84.8618 119.003 92.4001C119.003 103.454 114.531 112.053 105.613 118.079C96.7444 124.071 84.031 127 67.6026 127H0.452637ZM112.053 73.675C108.328 68.7455 103.266 65.0502 96.8674 62.5893C96.4515 62.4293 96.0299 62.2746 95.6026 62.1251C96.0056 61.9191 96.4013 61.7076 96.7899 61.4907C101.463 58.881 105.093 55.4758 107.678 51.2751C110.594 46.6084 112.053 41.3584 112.053 35.5251C112.053 25.7251 107.969 17.9667 99.8026 12.2501C91.636 6.41672 79.736 3.50005 64.1026 3.50005H1.45264V126H67.6026C83.936 126 96.4193 123.083 105.053 117.25C113.686 111.417 118.003 103.133 118.003 92.4001C118.003 85.05 116.019 78.8084 112.053 73.675ZM138.45 2.50005H175.1V97.5251H233.55V127H138.45V2.50005ZM174.1 98.5251V3.50005H139.45V126H232.55V98.5251H174.1ZM274.189 121.109L274.185 121.107C263.766 115.542 255.525 107.837 249.479 97.9986L249.475 97.9911C243.541 88.1405 240.581 77.0514 240.581 64.7501C240.581 52.4487 243.541 41.3596 249.475 31.509L249.479 31.5015C255.525 21.6632 263.766 13.9578 274.185 8.39297L274.189 8.39077C284.731 2.82386 296.561 0.0500488 309.656 0.0500488C322.75 0.0500488 334.523 2.82322 344.949 8.39121C355.484 13.955 363.729 21.6608 369.659 31.5033C375.712 41.3545 378.731 52.4456 378.731 64.7501C378.731 77.0544 375.712 88.1456 369.66 97.9967C363.729 107.839 355.484 115.545 344.949 121.109C334.522 126.677 322.75 129.45 309.656 129.45C296.561 129.45 284.731 126.676 274.189 121.109ZM344.481 120.225C354.865 114.742 362.973 107.158 368.806 97.4751C374.756 87.7917 377.731 76.8834 377.731 64.7501C377.731 52.6167 374.756 41.7084 368.806 32.0251C362.973 22.3417 354.865 14.7584 344.481 9.27505C334.215 3.79172 322.606 1.05005 309.656 1.05005C296.706 1.05005 285.04 3.79172 274.656 9.27505C264.39 14.7584 256.281 22.3417 250.331 32.0251C244.498 41.7084 241.581 52.6167 241.581 64.7501C241.581 76.8834 244.498 87.7917 250.331 97.4751C256.281 107.158 264.39 114.742 274.656 120.225C285.04 125.708 296.706 128.45 309.656 128.45C322.606 128.45 334.215 125.708 344.481 120.225ZM337.482 47.0357L337.478 47.0276C334.644 41.8131 330.803 37.8092 325.954 34.9896C321.1 32.1675 315.675 30.7501 309.656 30.7501C303.638 30.7501 298.213 32.1675 293.359 34.9896C288.509 37.8092 284.669 41.8131 281.835 47.0276L281.831 47.0357C279.008 52.1166 277.581 58.0115 277.581 64.7501C277.581 71.487 279.007 77.4433 281.834 82.6451C284.666 87.7406 288.505 91.6887 293.359 94.5105C298.213 97.3326 303.638 98.7501 309.656 98.7501C315.675 98.7501 321.1 97.3326 325.954 94.5105C330.807 91.6887 334.647 87.7407 337.479 82.6452C340.305 77.4435 341.731 71.487 341.731 64.7501C341.731 58.0115 340.305 52.1166 337.482 47.0357ZM338.356 83.1251C335.44 88.3751 331.473 92.4584 326.456 95.3751C321.44 98.2917 315.84 99.7501 309.656 99.7501C303.473 99.7501 297.873 98.2917 292.856 95.3751C287.84 92.4584 283.873 88.3751 280.956 83.1251C278.04 77.7584 276.581 71.6334 276.581 64.7501C276.581 57.8667 278.04 51.8001 280.956 46.5501C283.873 41.1834 287.84 37.0417 292.856 34.125C297.873 31.2084 303.473 29.7501 309.656 29.7501C315.84 29.7501 321.44 31.2084 326.456 34.125C331.473 37.0417 335.44 41.1834 338.356 46.5501C341.273 51.8001 342.731 57.8667 342.731 64.7501C342.731 71.6334 341.273 77.7584 338.356 83.1251ZM480.454 61.1251H513.079V113.389L512.662 113.688C505.562 118.776 497.409 122.672 488.212 125.384C479.024 128.093 469.829 129.45 460.629 129.45C447.652 129.45 435.941 126.735 425.516 121.286L425.508 121.282C415.087 115.716 406.902 108.009 400.973 98.1661C395.038 88.314 392.079 77.1662 392.079 64.7501C392.079 52.334 395.038 41.1861 400.973 31.334C406.904 21.4881 415.151 13.8376 425.69 8.38915C436.233 2.82257 448.12 0.0500488 461.329 0.0500488C472.876 0.0500488 483.278 1.99438 492.519 5.90408C501.758 9.8128 509.472 15.4471 515.646 22.8074L516.265 23.5454L492.761 44.8105L492.09 44.0732C483.982 35.1661 474.328 30.7501 463.079 30.7501C452.8 30.7501 444.611 33.8827 438.411 40.0822L438.405 40.0886C432.214 46.1668 429.079 54.3495 429.079 64.7501C429.079 71.3672 430.504 77.2659 433.332 82.4701C436.158 87.5549 440.108 91.5625 445.197 94.5047C450.279 97.3262 456.114 98.7501 462.729 98.7501C469.019 98.7501 474.924 97.5251 480.454 95.0792V61.1251ZM481.454 95.7251C475.621 98.4084 469.379 99.7501 462.729 99.7501C455.963 99.7501 449.954 98.2917 444.704 95.3751C439.454 92.3417 435.371 88.2001 432.454 82.9501C429.538 77.5834 428.079 71.5167 428.079 64.7501C428.079 54.1334 431.288 45.6751 437.704 39.375C444.121 32.9584 452.579 29.7501 463.079 29.7501C474.629 29.7501 484.546 34.3001 492.829 43.4001L514.879 23.4501C508.813 16.2167 501.229 10.6751 492.129 6.82505C483.029 2.97505 472.763 1.05005 461.329 1.05005C448.263 1.05005 436.538 3.79172 426.154 9.27505C415.771 14.6417 407.663 22.1667 401.829 31.85C395.996 41.5334 393.079 52.5001 393.079 64.7501C393.079 77.0001 395.996 87.9667 401.829 97.6501C407.663 107.333 415.713 114.917 425.979 120.4C436.246 125.767 447.796 128.45 460.629 128.45C469.729 128.45 478.829 127.108 487.929 124.425C497.029 121.742 505.079 117.892 512.079 112.875V62.1251H481.454V95.7251ZM59.5526 52.1501C71.2193 52.1501 77.0526 48.1834 77.0526 40.2501C77.0526 32.4334 71.2193 28.525 59.5526 28.525H35.7526V52.1501H59.5526ZM36.7526 51.1501V29.525H59.5526C65.3058 29.525 69.4454 30.4944 72.121 32.2871C74.7257 34.0322 76.0526 36.6309 76.0526 40.2501C76.0526 43.9338 74.7206 46.5765 72.1153 48.3481C69.441 50.1667 65.3039 51.1501 59.5526 51.1501H36.7526ZM77.8888 97.0429C80.611 95.1845 82.0026 92.4105 82.0026 88.5501C82.0026 84.6897 80.611 81.9156 77.8888 80.0572C75.0981 78.152 70.7867 77.1251 64.8026 77.1251H36.7526V99.9751H64.8026C70.7867 99.9751 75.0981 98.9481 77.8888 97.0429ZM64.8026 100.975C76.936 100.975 83.0026 96.8334 83.0026 88.5501C83.0026 80.2667 76.936 76.1251 64.8026 76.1251H35.7526V100.975H64.8026Z" fill="#3D3D3D"/>
</svg>
