<svg width="1018" height="130" viewBox="0 0 1018 130" fill="none" xmlns="http://www.w3.org/2000/svg">
<path fill-rule="evenodd" clip-rule="evenodd" d="M91.6874 56.2248V84.9998H37.6124V127H0.962402V2.4998H99.0374V31.2748H37.6124V56.2248H91.6874ZM36.6124 30.2748H98.0374V3.4998H1.9624V126H36.6124V83.9998H90.6874V57.2248H36.6124V30.2748ZM204.658 126L195.033 102.2H143.233L133.608 126H98.2575L152.333 3.4998H186.458L240.708 126H204.658ZM143.907 103.2L134.282 127H96.723L151.681 2.4998H187.108L242.244 127H203.983L194.358 103.2H143.907ZM366.072 105.35C360.122 112.816 352.655 118.533 343.672 122.5C334.688 126.466 324.597 128.45 313.397 128.45C300.563 128.45 289.013 125.766 278.747 120.4C268.597 114.916 260.605 107.333 254.772 97.6498C248.938 87.9665 246.022 76.9998 246.022 64.7498C246.022 52.4998 248.938 41.5331 254.772 31.8498C260.605 22.1665 268.597 14.6415 278.747 9.2748C289.013 3.79147 300.563 1.0498 313.397 1.0498C324.597 1.0498 334.688 3.03314 343.672 6.99981C352.655 10.9665 360.122 16.6831 366.072 24.1498L344.022 44.0998C343.808 43.8416 343.592 43.5869 343.376 43.3357C335.568 34.2785 326.158 29.7498 315.147 29.7498C308.497 29.7498 302.547 31.2081 297.297 34.1248C292.163 37.0415 288.138 41.1831 285.222 46.5498C282.422 51.7998 281.022 57.8665 281.022 64.7498C281.022 71.6331 282.422 77.7581 285.222 83.1248C288.138 88.3748 292.163 92.4581 297.297 95.3748C302.547 98.2915 308.497 99.7498 315.147 99.7498C326.158 99.7498 335.568 95.2212 343.376 86.1639C343.592 85.9127 343.808 85.658 344.022 85.3998L366.072 105.35ZM297.786 94.5025C302.871 97.3268 308.65 98.7498 315.147 98.7498C326.134 98.7498 335.488 94.1246 343.252 84.7615L343.918 83.9578L367.439 105.238L366.854 105.973C360.8 113.57 353.202 119.385 344.076 123.415C334.948 127.445 324.716 129.45 313.397 129.45C300.42 129.45 288.708 126.735 278.284 121.286L278.271 121.28C267.967 115.713 259.843 108.006 253.915 98.1658C247.98 88.3138 245.022 77.1659 245.022 64.7498C245.022 52.3337 247.98 41.1859 253.915 31.3338C259.843 21.4929 267.97 13.8422 278.277 8.392C288.703 2.82401 300.417 0.0498047 313.397 0.0498047C324.716 0.0498047 334.948 2.05479 344.076 6.08502C353.202 10.115 360.8 15.9299 366.854 23.5266L367.439 24.2612L343.918 45.5418L343.252 44.7381C335.488 35.3751 326.134 30.7498 315.147 30.7498C308.65 30.7498 302.872 32.1727 297.787 34.9967C292.824 37.8171 288.932 41.8186 286.102 47.0242C283.392 52.1072 282.022 58.0065 282.022 64.7498C282.022 71.4896 283.391 77.4485 286.103 82.6513C288.93 87.7362 292.821 91.6806 297.786 94.5025ZM384.021 2.4998H420.671V127H384.021V2.4998ZM446.823 2.4998H483.473V97.5248H541.923V127H446.823V2.4998ZM482.473 98.5248V3.4998H447.823V126H540.923V98.5248H482.473ZM557.134 2.4998H593.784V127H557.134V2.4998ZM608.386 31.9748V2.4998H720.111V31.9748H682.661V127H646.011V31.9748H608.386ZM647.011 30.9748V126H681.661V30.9748H719.111V3.4998H609.386V30.9748H647.011ZM734.52 2.4998H771.17V127H734.52V2.4998ZM897.672 98.2248V127H797.322V2.4998H895.397V31.2748H833.622V49.9248H888.047V77.8248H833.622V98.2248H897.672ZM832.622 76.8248H887.047V50.9248H832.622V30.2748H894.397V3.4998H798.322V126H896.672V99.2248H832.622V76.8248ZM909.576 115.321L921.766 87.9407L922.75 88.59C928.143 92.1469 934.412 95.0258 941.568 97.2187C948.714 99.4086 955.732 100.5 962.625 100.5C969.224 100.5 974.024 99.6697 977.14 98.1116C978.684 97.3397 979.782 96.4053 980.496 95.3342C981.206 94.2693 981.575 93.0123 981.575 91.5248C981.575 89.9704 981.152 88.6691 980.331 87.5748C979.502 86.4692 978.22 85.5136 976.409 84.7454L976.392 84.7382L976.375 84.7303C972.748 83.0299 966.773 81.2406 958.387 79.3769C949.145 77.3881 941.4 75.2774 935.162 73.0411L935.155 73.0383L935.147 73.0354C928.809 70.6438 923.365 66.8741 918.826 61.737C914.19 56.4921 911.925 49.467 911.925 40.7748C911.925 33.1148 914.023 26.2088 918.223 20.0869C922.433 13.8349 928.664 8.94257 936.851 5.38274L936.856 5.38065C945.181 1.81297 955.298 0.0498047 967.175 0.0498047C975.301 0.0498047 983.31 0.991807 991.201 2.87572C999.1 4.64488 1006.08 7.3036 1012.13 10.8629L1012.88 11.3042L1001.45 38.8559L1000.47 38.3297C988.924 32.0922 977.769 28.9998 967 28.9998C960.174 28.9998 955.404 30.0492 952.505 31.9819L952.494 31.9891L952.483 31.996C949.576 33.8264 948.225 36.1548 948.225 39.0248C948.225 40.4534 948.628 41.6664 949.42 42.7063C950.223 43.7593 951.466 44.6889 953.226 45.4587C956.86 47.0488 962.785 48.7238 971.057 50.4714L971.058 50.4716C980.416 52.4603 988.168 54.6303 994.299 56.9876C1000.64 59.2612 1006.08 62.971 1010.62 68.1037C1015.38 73.2344 1017.7 80.2076 1017.7 88.8998C1017.7 96.4478 1015.6 103.296 1011.4 109.416C1007.19 115.551 1000.9 120.44 992.605 124.114L992.594 124.119C984.27 127.686 974.212 129.45 962.45 129.45C952.45 129.45 942.74 128.214 933.321 125.742C923.911 123.272 916.209 119.965 910.251 115.794L909.576 115.321ZM1009.87 68.7748C1005.44 63.7581 1000.13 60.1415 993.95 57.9248C987.883 55.5915 980.183 53.4331 970.85 51.4498C962.567 49.6998 956.558 48.0081 952.825 46.3748C949.092 44.7415 947.225 42.2915 947.225 39.0248C947.225 35.7581 948.8 33.1331 951.95 31.1498C955.1 29.0498 960.117 27.9998 967 27.9998C977.689 27.9998 988.71 30.9922 1000.06 36.9768C1000.36 37.1325 1000.65 37.2901 1000.95 37.4498L1011.62 11.7248C1005.67 8.22481 998.792 5.59981 990.975 3.84981C983.158 1.98314 975.225 1.0498 967.175 1.0498C955.392 1.0498 945.417 2.79981 937.25 6.29981C929.2 9.79981 923.133 14.5831 919.05 20.6498C914.967 26.5998 912.925 33.3081 912.925 40.7748C912.925 49.2915 915.142 56.0581 919.575 61.0748C924.008 66.0915 929.317 69.7665 935.5 72.0998C941.683 74.3165 949.383 76.4165 958.6 78.3998C967 80.2665 973.067 82.0748 976.8 83.8248C980.65 85.4581 982.575 88.0248 982.575 91.5248C982.575 98.1748 975.925 101.5 962.625 101.5C955.625 101.5 948.508 100.391 941.275 98.1748C934.412 96.0717 928.337 93.3385 923.049 89.9752C922.764 89.7935 922.481 89.6101 922.2 89.4248L910.825 114.975C916.658 119.058 924.242 122.325 933.575 124.775C942.908 127.225 952.533 128.45 962.45 128.45C974.117 128.45 984.033 126.7 992.2 123.2C1000.37 119.583 1006.49 114.8 1010.57 108.85C1014.66 102.9 1016.7 96.2498 1016.7 88.8998C1016.7 80.3831 1014.42 73.6748 1009.87 68.7748ZM169.133 37.4498L153.383 76.6498H184.883L169.133 37.4498ZM169.133 40.1321L154.862 75.6498H183.403L169.133 40.1321ZM385.021 3.4998V126H419.671V3.4998H385.021ZM558.134 3.4998V126H592.784V3.4998H558.134ZM735.52 3.4998V126H770.17V3.4998H735.52Z" fill="#E1E1E1"/>
</svg>
