<svg width="846" height="125" viewBox="0 0 846 125" fill="none" xmlns="http://www.w3.org/2000/svg">
<path fill-rule="evenodd" clip-rule="evenodd" d="M0.894531 29.975V0.5H112.62V29.975H75.1695V125H38.5195V29.975H0.894531ZM39.5195 28.975V124H74.1695V28.975H111.62V1.5H1.89453V28.975H39.5195ZM203.804 124L181.579 91.45H162.679V124H128.029V1.5H184.029C195.112 1.5 204.737 3.36667 212.904 7.1C221.07 10.7167 227.37 15.9667 231.804 22.85C236.237 29.6167 238.454 37.6083 238.454 46.825C238.454 55.6917 236.354 63.45 232.154 70.1C228.232 76.3751 222.641 81.3587 215.383 85.0508C215.084 85.2027 214.783 85.3524 214.479 85.5L240.904 124H203.804ZM215.954 85.8822L242.803 125H203.275L181.05 92.45H163.679V125H127.029V0.5H184.029C195.22 0.5 204.991 2.38446 213.314 6.18807C221.638 9.87571 228.095 15.2461 232.642 22.3055C237.195 29.2561 239.454 37.4431 239.454 46.825C239.454 55.8557 237.313 63.8041 232.999 70.6335C228.993 77.0429 223.298 82.1232 215.954 85.8822ZM352.77 124L343.145 100.2H291.345L281.72 124H246.37L300.445 1.5H334.57L388.82 124H352.77ZM292.019 101.2L282.394 125H244.835L299.793 0.5H335.22L390.356 125H352.095L342.47 101.2H292.019ZM401.143 0.5H437.793V125H401.143V0.5ZM582.495 0.5V125H552.499L499.895 61.4996V125H463.945V0.5H493.94L546.545 64.0004V0.5H582.495ZM547.545 66.775L493.47 1.5H464.945V124H498.895V58.725L552.97 124H581.495V1.5H547.545V66.775ZM708.786 96.225V125H608.436V0.5H706.511V29.275H644.736V47.925H699.161V75.825H644.736V96.225H708.786ZM643.736 74.825H698.161V48.925H643.736V28.275H705.511V1.5H609.436V124H707.786V97.225H643.736V74.825ZM806.289 124L784.064 91.45H765.164V124H730.514V1.5H786.514C797.597 1.5 807.222 3.36667 815.389 7.1C823.556 10.7167 829.856 15.9667 834.289 22.85C838.722 29.6167 840.939 37.6083 840.939 46.825C840.939 55.6917 838.839 63.45 834.639 70.1C830.717 76.3751 825.127 81.3587 817.868 85.0508C817.57 85.2027 817.268 85.3524 816.964 85.5L843.389 124H806.289ZM818.439 85.8822L845.288 125H805.761L783.536 92.45H766.164V125H729.514V0.5H786.514C797.706 0.5 807.477 2.38462 815.8 6.18855C824.123 9.87558 830.578 15.2446 835.125 22.302C839.68 29.2534 841.939 37.4416 841.939 46.825C841.939 55.8542 839.799 63.8014 835.487 70.63C831.48 77.0411 825.785 82.1226 818.439 85.8822ZM202.454 46.825C202.454 41.3366 200.728 37.2025 197.372 34.2791C194.008 31.3491 188.917 29.8 181.929 29.8H163.679V63.675H181.929C188.92 63.675 194.014 62.1831 197.379 59.3649C200.731 56.4418 202.454 52.3096 202.454 46.825ZM198.029 60.125C194.412 63.1583 189.045 64.675 181.929 64.675H162.679V28.8H181.929C189.045 28.8 194.412 30.375 198.029 33.525C201.645 36.675 203.454 41.1083 203.454 46.825C203.454 52.5417 201.645 56.975 198.029 60.125ZM317.245 35.45L301.495 74.65H332.995L317.245 35.45ZM317.245 38.1323L302.974 73.65H331.515L317.245 38.1323ZM804.939 46.825C804.939 41.3366 803.214 37.2025 799.857 34.2791C796.493 31.3491 791.403 29.8 784.414 29.8H766.164V63.675H784.414C791.406 63.675 796.499 62.183 799.864 59.3646C803.216 56.4415 804.939 52.3094 804.939 46.825ZM800.514 60.125C796.897 63.1583 791.531 64.675 784.414 64.675H765.164V28.8H784.414C791.531 28.8 796.897 30.375 800.514 33.525C804.13 36.675 805.939 41.1083 805.939 46.825C805.939 52.5417 804.13 56.975 800.514 60.125ZM402.143 1.5V124H436.793V1.5H402.143Z" fill="#E1E1E1"/>
</svg>
