<svg width="1099" height="130" viewBox="0 0 1099 130" fill="none" xmlns="http://www.w3.org/2000/svg">
<mask id="path-1-outside-1" maskUnits="userSpaceOnUse" x="0.660156" y="0.0498047" width="1099" height="130" fill="black">
<rect fill="white" x="0.660156" y="0.0498047" width="1099" height="130"/>
<path d="M1.66016 3.4998H36.3102V98.5248H94.7602V126H1.66016V3.4998ZM171.867 128.45C158.917 128.45 147.25 125.708 136.867 120.225C126.6 114.741 118.492 107.158 112.542 97.4748C106.708 87.7915 103.792 76.8831 103.792 64.7498C103.792 52.6165 106.708 41.7081 112.542 32.0248C118.492 22.3415 126.6 14.7581 136.867 9.2748C147.25 3.79147 158.917 1.0498 171.867 1.0498C184.817 1.0498 196.425 3.79147 206.692 9.2748C217.075 14.7581 225.183 22.3415 231.017 32.0248C236.967 41.7081 239.942 52.6165 239.942 64.7498C239.942 76.8831 236.967 87.7915 231.017 97.4748C225.183 107.158 217.075 114.741 206.692 120.225C196.425 125.708 184.817 128.45 171.867 128.45ZM171.867 99.7498C178.05 99.7498 183.65 98.2915 188.667 95.3748C193.683 92.4581 197.65 88.3748 200.567 83.1248C203.483 77.7581 204.942 71.6331 204.942 64.7498C204.942 57.8665 203.483 51.7998 200.567 46.5498C197.65 41.1831 193.683 37.0415 188.667 34.1248C183.65 31.2081 178.05 29.7498 171.867 29.7498C165.683 29.7498 160.083 31.2081 155.067 34.1248C150.05 37.0415 146.083 41.1831 143.167 46.5498C140.25 51.7998 138.792 57.8665 138.792 64.7498C138.792 71.6331 140.25 77.7581 143.167 83.1248C146.083 88.3748 150.05 92.4581 155.067 95.3748C160.083 98.2915 165.683 99.7498 171.867 99.7498ZM322.665 128.45C309.832 128.45 298.281 125.766 288.015 120.4C277.865 114.916 269.873 107.333 264.04 97.6498C258.207 87.9665 255.29 76.9998 255.29 64.7498C255.29 52.4998 258.207 41.5331 264.04 31.8498C269.873 22.1665 277.865 14.6415 288.015 9.2748C298.281 3.79147 309.832 1.0498 322.665 1.0498C333.865 1.0498 343.957 3.03314 352.94 6.99981C361.923 10.9665 369.39 16.6831 375.34 24.1498L353.29 44.0998C345.357 34.5331 335.732 29.7498 324.415 29.7498C317.765 29.7498 311.815 31.2081 306.565 34.1248C301.432 37.0415 297.407 41.1831 294.49 46.5498C291.69 51.7998 290.29 57.8665 290.29 64.7498C290.29 71.6331 291.69 77.7581 294.49 83.1248C297.407 88.3748 301.432 92.4581 306.565 95.3748C311.815 98.2915 317.765 99.7498 324.415 99.7498C335.732 99.7498 345.357 94.9665 353.29 85.3998L375.34 105.35C369.39 112.816 361.923 118.533 352.94 122.5C343.957 126.466 333.865 128.45 322.665 128.45ZM474.313 102.2H422.513L412.888 126H377.538L431.613 3.4998H465.738L519.988 126H483.938L474.313 102.2ZM464.163 76.6498L448.413 37.4498L432.663 76.6498H464.163ZM553.234 30.9748H515.609V3.4998H625.334V30.9748H587.884V126H553.234V30.9748ZM641.743 3.4998H676.393V126H641.743V3.4998ZM766.32 128.45C753.37 128.45 741.703 125.708 731.32 120.225C721.053 114.741 712.945 107.158 706.995 97.4748C701.162 87.7915 698.245 76.8831 698.245 64.7498C698.245 52.6165 701.162 41.7081 706.995 32.0248C712.945 22.3415 721.053 14.7581 731.32 9.2748C741.703 3.79147 753.37 1.0498 766.32 1.0498C779.27 1.0498 790.878 3.79147 801.145 9.2748C811.528 14.7581 819.637 22.3415 825.47 32.0248C831.42 41.7081 834.395 52.6165 834.395 64.7498C834.395 76.8831 831.42 87.7915 825.47 97.4748C819.637 107.158 811.528 114.741 801.145 120.225C790.878 125.708 779.27 128.45 766.32 128.45ZM766.32 99.7498C772.503 99.7498 778.103 98.2915 783.12 95.3748C788.137 92.4581 792.103 88.3748 795.02 83.1248C797.937 77.7581 799.395 71.6331 799.395 64.7498C799.395 57.8665 797.937 51.7998 795.02 46.5498C792.103 41.1831 788.137 37.0415 783.12 34.1248C778.103 31.2081 772.503 29.7498 766.32 29.7498C760.137 29.7498 754.537 31.2081 749.52 34.1248C744.503 37.0415 740.537 41.1831 737.62 46.5498C734.703 51.7998 733.245 57.8665 733.245 64.7498C733.245 71.6331 734.703 77.7581 737.62 83.1248C740.537 88.3748 744.503 92.4581 749.52 95.3748C754.537 98.2915 760.137 99.7498 766.32 99.7498ZM972.593 3.4998V126H944.068L889.993 60.7248V126H856.043V3.4998H884.568L938.643 68.7748V3.4998H972.593ZM1043.58 128.45C1033.67 128.45 1024.04 127.225 1014.71 124.775C1005.38 122.325 997.793 119.058 991.959 114.975L1003.33 89.4248C1008.82 93.0415 1015.18 95.9581 1022.41 98.1748C1029.64 100.391 1036.76 101.5 1043.76 101.5C1057.06 101.5 1063.71 98.1748 1063.71 91.5248C1063.71 88.0248 1061.78 85.4581 1057.93 83.8248C1054.2 82.0748 1048.13 80.2665 1039.73 78.3998C1030.52 76.4165 1022.82 74.3165 1016.63 72.0998C1010.45 69.7665 1005.14 66.0915 1000.71 61.0748C996.276 56.0581 994.059 49.2915 994.059 40.7748C994.059 33.3081 996.101 26.5998 1000.18 20.6498C1004.27 14.5831 1010.33 9.79981 1018.38 6.29981C1026.55 2.79981 1036.53 1.0498 1048.31 1.0498C1056.36 1.0498 1064.29 1.98314 1072.11 3.84981C1079.93 5.59981 1086.81 8.22481 1092.76 11.7248L1082.08 37.4498C1070.42 31.1498 1059.1 27.9998 1048.13 27.9998C1041.25 27.9998 1036.23 29.0498 1033.08 31.1498C1029.93 33.1331 1028.36 35.7581 1028.36 39.0248C1028.36 42.2915 1030.23 44.7415 1033.96 46.3748C1037.69 48.0081 1043.7 49.6998 1051.98 51.4498C1061.32 53.4331 1069.02 55.5915 1075.08 57.9248C1081.27 60.1415 1086.58 63.7581 1091.01 68.7748C1095.56 73.6748 1097.83 80.3831 1097.83 88.8998C1097.83 96.2498 1095.79 102.9 1091.71 108.85C1087.63 114.8 1081.5 119.583 1073.33 123.2C1065.17 126.7 1055.25 128.45 1043.58 128.45Z"/>
</mask>
<path d="M1.66016 3.4998H36.3102V98.5248H94.7602V126H1.66016V3.4998ZM171.867 128.45C158.917 128.45 147.25 125.708 136.867 120.225C126.6 114.741 118.492 107.158 112.542 97.4748C106.708 87.7915 103.792 76.8831 103.792 64.7498C103.792 52.6165 106.708 41.7081 112.542 32.0248C118.492 22.3415 126.6 14.7581 136.867 9.2748C147.25 3.79147 158.917 1.0498 171.867 1.0498C184.817 1.0498 196.425 3.79147 206.692 9.2748C217.075 14.7581 225.183 22.3415 231.017 32.0248C236.967 41.7081 239.942 52.6165 239.942 64.7498C239.942 76.8831 236.967 87.7915 231.017 97.4748C225.183 107.158 217.075 114.741 206.692 120.225C196.425 125.708 184.817 128.45 171.867 128.45ZM171.867 99.7498C178.05 99.7498 183.65 98.2915 188.667 95.3748C193.683 92.4581 197.65 88.3748 200.567 83.1248C203.483 77.7581 204.942 71.6331 204.942 64.7498C204.942 57.8665 203.483 51.7998 200.567 46.5498C197.65 41.1831 193.683 37.0415 188.667 34.1248C183.65 31.2081 178.05 29.7498 171.867 29.7498C165.683 29.7498 160.083 31.2081 155.067 34.1248C150.05 37.0415 146.083 41.1831 143.167 46.5498C140.25 51.7998 138.792 57.8665 138.792 64.7498C138.792 71.6331 140.25 77.7581 143.167 83.1248C146.083 88.3748 150.05 92.4581 155.067 95.3748C160.083 98.2915 165.683 99.7498 171.867 99.7498ZM322.665 128.45C309.832 128.45 298.281 125.766 288.015 120.4C277.865 114.916 269.873 107.333 264.04 97.6498C258.207 87.9665 255.29 76.9998 255.29 64.7498C255.29 52.4998 258.207 41.5331 264.04 31.8498C269.873 22.1665 277.865 14.6415 288.015 9.2748C298.281 3.79147 309.832 1.0498 322.665 1.0498C333.865 1.0498 343.957 3.03314 352.94 6.99981C361.923 10.9665 369.39 16.6831 375.34 24.1498L353.29 44.0998C345.357 34.5331 335.732 29.7498 324.415 29.7498C317.765 29.7498 311.815 31.2081 306.565 34.1248C301.432 37.0415 297.407 41.1831 294.49 46.5498C291.69 51.7998 290.29 57.8665 290.29 64.7498C290.29 71.6331 291.69 77.7581 294.49 83.1248C297.407 88.3748 301.432 92.4581 306.565 95.3748C311.815 98.2915 317.765 99.7498 324.415 99.7498C335.732 99.7498 345.357 94.9665 353.29 85.3998L375.34 105.35C369.39 112.816 361.923 118.533 352.94 122.5C343.957 126.466 333.865 128.45 322.665 128.45ZM474.313 102.2H422.513L412.888 126H377.538L431.613 3.4998H465.738L519.988 126H483.938L474.313 102.2ZM464.163 76.6498L448.413 37.4498L432.663 76.6498H464.163ZM553.234 30.9748H515.609V3.4998H625.334V30.9748H587.884V126H553.234V30.9748ZM641.743 3.4998H676.393V126H641.743V3.4998ZM766.32 128.45C753.37 128.45 741.703 125.708 731.32 120.225C721.053 114.741 712.945 107.158 706.995 97.4748C701.162 87.7915 698.245 76.8831 698.245 64.7498C698.245 52.6165 701.162 41.7081 706.995 32.0248C712.945 22.3415 721.053 14.7581 731.32 9.2748C741.703 3.79147 753.37 1.0498 766.32 1.0498C779.27 1.0498 790.878 3.79147 801.145 9.2748C811.528 14.7581 819.637 22.3415 825.47 32.0248C831.42 41.7081 834.395 52.6165 834.395 64.7498C834.395 76.8831 831.42 87.7915 825.47 97.4748C819.637 107.158 811.528 114.741 801.145 120.225C790.878 125.708 779.27 128.45 766.32 128.45ZM766.32 99.7498C772.503 99.7498 778.103 98.2915 783.12 95.3748C788.137 92.4581 792.103 88.3748 795.02 83.1248C797.937 77.7581 799.395 71.6331 799.395 64.7498C799.395 57.8665 797.937 51.7998 795.02 46.5498C792.103 41.1831 788.137 37.0415 783.12 34.1248C778.103 31.2081 772.503 29.7498 766.32 29.7498C760.137 29.7498 754.537 31.2081 749.52 34.1248C744.503 37.0415 740.537 41.1831 737.62 46.5498C734.703 51.7998 733.245 57.8665 733.245 64.7498C733.245 71.6331 734.703 77.7581 737.62 83.1248C740.537 88.3748 744.503 92.4581 749.52 95.3748C754.537 98.2915 760.137 99.7498 766.32 99.7498ZM972.593 3.4998V126H944.068L889.993 60.7248V126H856.043V3.4998H884.568L938.643 68.7748V3.4998H972.593ZM1043.58 128.45C1033.67 128.45 1024.04 127.225 1014.71 124.775C1005.38 122.325 997.793 119.058 991.959 114.975L1003.33 89.4248C1008.82 93.0415 1015.18 95.9581 1022.41 98.1748C1029.64 100.391 1036.76 101.5 1043.76 101.5C1057.06 101.5 1063.71 98.1748 1063.71 91.5248C1063.71 88.0248 1061.78 85.4581 1057.93 83.8248C1054.2 82.0748 1048.13 80.2665 1039.73 78.3998C1030.52 76.4165 1022.82 74.3165 1016.63 72.0998C1010.45 69.7665 1005.14 66.0915 1000.71 61.0748C996.276 56.0581 994.059 49.2915 994.059 40.7748C994.059 33.3081 996.101 26.5998 1000.18 20.6498C1004.27 14.5831 1010.33 9.79981 1018.38 6.29981C1026.55 2.79981 1036.53 1.0498 1048.31 1.0498C1056.36 1.0498 1064.29 1.98314 1072.11 3.84981C1079.93 5.59981 1086.81 8.22481 1092.76 11.7248L1082.08 37.4498C1070.42 31.1498 1059.1 27.9998 1048.13 27.9998C1041.25 27.9998 1036.23 29.0498 1033.08 31.1498C1029.93 33.1331 1028.36 35.7581 1028.36 39.0248C1028.36 42.2915 1030.23 44.7415 1033.96 46.3748C1037.69 48.0081 1043.7 49.6998 1051.98 51.4498C1061.32 53.4331 1069.02 55.5915 1075.08 57.9248C1081.27 60.1415 1086.58 63.7581 1091.01 68.7748C1095.56 73.6748 1097.83 80.3831 1097.83 88.8998C1097.83 96.2498 1095.79 102.9 1091.71 108.85C1087.63 114.8 1081.5 119.583 1073.33 123.2C1065.17 126.7 1055.25 128.45 1043.58 128.45Z" stroke="#3D3D3D" stroke-width="2" mask="url(#path-1-outside-1)"/>
</svg>
