<svg width="16" height="23" viewBox="0 0 16 23" fill="none" xmlns="http://www.w3.org/2000/svg">
<path d="M15.2979 8.14895C15.2979 12.0968 8.14895 21.6525 8.14895 21.6525C8.14895 21.6525 1 12.0968 1 8.14895C1 4.20114 4.20114 1 8.14895 1C12.0968 1 15.2979 4.20114 15.2979 8.14895Z" stroke="white" stroke-miterlimit="10"/>
<path d="M8.14897 5.67432C7.61749 5.67432 7.10778 5.88545 6.73196 6.26126C6.35615 6.63707 6.14502 7.14678 6.14502 7.67826C6.14502 8.20974 6.35615 8.71946 6.73196 9.09527C7.10778 9.47108 7.61749 9.68221 8.14897 9.68221C8.68045 9.68221 9.19016 9.47108 9.56597 9.09527C9.94179 8.71946 10.1529 8.20974 10.1529 7.67826C10.1529 7.14678 9.94179 6.63707 9.56597 6.26126C9.19016 5.88545 8.68045 5.67432 8.14897 5.67432V5.67432Z" stroke="white" stroke-miterlimit="10"/>
</svg>
