<svg width="686" height="130" viewBox="0 0 686 130" fill="none" xmlns="http://www.w3.org/2000/svg">
<path fill-rule="evenodd" clip-rule="evenodd" d="M108.026 126L98.4013 102.2H46.6013L36.9763 126H1.62632L55.7013 3.50005H89.8263L144.076 126H108.026ZM47.2756 103.2L37.6506 127H0.0917969L55.0497 2.50005H90.4771L145.613 127H107.352L97.7271 103.2H47.2756ZM156.4 127V2.50005H220.05C235.781 2.50005 247.92 5.43045 256.327 11.4337C264.753 17.3334 269 25.3938 269 35.5251C269 41.5327 267.495 46.9674 264.475 51.8019C261.925 55.9436 258.403 59.327 253.934 61.9568C260.129 64.4739 265.095 68.1734 268.795 73.0685C272.912 78.399 274.95 84.862 274.95 92.4001C274.95 103.454 270.478 112.053 261.559 118.079C252.691 124.071 239.978 127 223.55 127H156.4ZM268 73.675C264.275 68.7455 259.213 65.0502 252.814 62.5893C252.398 62.4293 251.977 62.2746 251.55 62.1251C251.953 61.9191 252.348 61.7076 252.737 61.4907C257.41 58.881 261.039 55.4758 263.625 51.2751C266.541 46.6084 268 41.3584 268 35.5251C268 25.7251 263.916 17.9667 255.75 12.2501C247.583 6.41672 235.683 3.50005 220.05 3.50005H157.4V126H223.55C239.883 126 252.366 123.083 261 117.25C269.633 111.417 273.95 103.133 273.95 92.4001C273.95 85.05 271.966 78.8084 268 73.675ZM321.705 121.109L321.701 121.107C311.281 115.542 303.04 107.837 296.995 97.9986L296.99 97.9911C291.056 88.1405 288.097 77.0514 288.097 64.7501C288.097 52.4487 291.056 41.3596 296.99 31.509L296.995 31.5015C303.04 21.6632 311.281 13.9578 321.701 8.39297L321.705 8.39077C332.246 2.82386 344.076 0.0500488 357.172 0.0500488C370.266 0.0500488 382.038 2.82322 392.464 8.39121C403 13.955 411.244 21.6608 417.175 31.5033C423.227 41.3545 426.247 52.4456 426.247 64.7501C426.247 77.0544 423.227 88.1456 417.175 97.9967C411.244 107.839 403 115.545 392.464 121.109C382.038 126.677 370.266 129.45 357.172 129.45C344.076 129.45 332.246 126.676 321.705 121.109ZM391.997 120.225C402.38 114.742 410.488 107.158 416.322 97.4751C422.272 87.7917 425.247 76.8834 425.247 64.7501C425.247 52.6167 422.272 41.7084 416.322 32.0251C410.488 22.3417 402.38 14.7584 391.997 9.27505C381.73 3.79172 370.122 1.05005 357.172 1.05005C344.222 1.05005 332.555 3.79172 322.172 9.27505C311.905 14.7584 303.797 22.3417 297.847 32.0251C292.013 41.7084 289.097 52.6167 289.097 64.7501C289.097 76.8834 292.013 87.7917 297.847 97.4751C303.797 107.158 311.905 114.742 322.172 120.225C332.555 125.708 344.222 128.45 357.172 128.45C370.122 128.45 381.73 125.708 391.997 120.225ZM384.997 47.0357L384.993 47.0276C382.159 41.8131 378.319 37.8092 373.469 34.9896C368.615 32.1675 363.19 30.7501 357.172 30.7501C351.153 30.7501 345.728 32.1675 340.874 34.9896C336.025 37.8092 332.184 41.8131 329.35 47.0276L329.346 47.0357C326.523 52.1166 325.097 58.0115 325.097 64.7501C325.097 71.487 326.522 77.4433 329.349 82.6451C332.181 87.7406 336.021 91.6887 340.874 94.5105C345.728 97.3326 351.153 98.7501 357.172 98.7501C363.19 98.7501 368.615 97.3326 373.469 94.5105C378.323 91.6887 382.162 87.7407 384.994 82.6452C387.821 77.4435 389.247 71.487 389.247 64.7501C389.247 58.0115 387.82 52.1166 384.997 47.0357ZM385.872 83.1251C382.955 88.3751 378.988 92.4584 373.972 95.3751C368.955 98.2917 363.355 99.7501 357.172 99.7501C350.988 99.7501 345.388 98.2917 340.372 95.3751C335.355 92.4584 331.388 88.3751 328.472 83.1251C325.555 77.7584 324.097 71.6334 324.097 64.7501C324.097 57.8667 325.555 51.8001 328.472 46.5501C331.388 41.1834 335.355 37.0417 340.372 34.125C345.388 31.2084 350.988 29.7501 357.172 29.7501C363.355 29.7501 368.955 31.2084 373.972 34.125C378.988 37.0417 382.955 41.1834 385.872 46.5501C388.788 51.8001 390.247 57.8667 390.247 64.7501C390.247 71.6334 388.788 77.7584 385.872 83.1251ZM460.196 114.29L460.192 114.286C449.917 104.131 444.845 89.7861 444.845 71.4001V2.50005H481.495V70.3501C481.495 80.045 483.418 87.1316 487.097 91.7794C490.742 96.3826 496.236 98.7501 503.77 98.7501C511.243 98.7501 516.692 96.3844 520.308 91.7822C523.96 87.1341 525.87 80.0463 525.87 70.3501V2.50005H561.995V71.4001C561.995 89.7893 556.862 104.136 546.469 114.29C536.198 124.439 521.801 129.45 503.42 129.45C485.035 129.45 470.581 124.437 460.196 114.29ZM545.77 113.575C555.92 103.658 560.995 89.6001 560.995 71.4001V3.50005H526.87V70.3501C526.87 89.9501 519.17 99.7501 503.77 99.7501C488.253 99.7501 480.495 89.9501 480.495 70.3501V3.50005H445.845V71.4001C445.845 89.6001 450.861 103.658 460.895 113.575C471.045 123.492 485.22 128.45 503.42 128.45C521.62 128.45 535.736 123.492 545.77 113.575ZM573.538 31.975V2.50005H685.263V31.975H647.813V127H611.163V31.975H573.538ZM612.163 30.975V126H646.813V30.975H684.263V3.50005H574.538V30.975H612.163ZM72.5013 37.4501L56.7513 76.6501H88.2513L72.5013 37.4501ZM72.5013 40.1323L86.7718 75.6501H58.2308L72.5013 40.1323ZM215.5 52.1501C227.166 52.1501 233 48.1834 233 40.2501C233 32.4334 227.166 28.525 215.5 28.525H191.7V52.1501H215.5ZM192.7 51.1501V29.525H215.5C221.253 29.525 225.392 30.4944 228.068 32.2871C230.673 34.0322 232 36.6309 232 40.2501C232 43.9338 230.668 46.5765 228.062 48.3481C225.388 50.1667 221.251 51.1501 215.5 51.1501H192.7ZM233.836 97.0429C236.558 95.1845 237.95 92.4105 237.95 88.5501C237.95 84.6897 236.558 81.9156 233.836 80.0572C231.045 78.152 226.734 77.1251 220.75 77.1251H192.7V99.9751H220.75C226.734 99.9751 231.045 98.9481 233.836 97.0429ZM220.75 100.975C232.883 100.975 238.95 96.8334 238.95 88.5501C238.95 80.2667 232.883 76.1251 220.75 76.1251H191.7V100.975H220.75Z" fill="#3D3D3D"/>
</svg>
