<svg width="995" height="130" viewBox="0 0 995 130" fill="none" xmlns="http://www.w3.org/2000/svg">
<mask id="path-1-outside-1" maskUnits="userSpaceOnUse" x="0.0302734" y="0.0500488" width="995" height="130" fill="black">
<rect fill="white" x="0.0302734" y="0.0500488" width="995" height="130"/>
<path d="M98.8053 102.2H47.0053L37.3803 126H2.03027L56.1053 3.50005H90.2303L144.48 126H108.43L98.8053 102.2ZM88.6553 76.6501L72.9053 37.4501L57.1553 76.6501H88.6553ZM251.954 62.1251C258.954 64.5751 264.437 68.4251 268.404 73.675C272.37 78.8084 274.354 85.0501 274.354 92.4001C274.354 103.133 270.037 111.417 261.404 117.25C252.77 123.083 240.287 126 223.954 126H157.804V3.50005H220.454C236.087 3.50005 247.987 6.41672 256.154 12.2501C264.32 17.9667 268.404 25.7251 268.404 35.5251C268.404 41.3584 266.945 46.6084 264.029 51.2751C261.229 55.8251 257.204 59.4417 251.954 62.1251ZM192.104 28.525V52.1501H215.904C227.57 52.1501 233.404 48.1834 233.404 40.2501C233.404 32.4334 227.57 28.525 215.904 28.525H192.104ZM221.154 100.975C233.287 100.975 239.354 96.8334 239.354 88.5501C239.354 80.2667 233.287 76.1251 221.154 76.1251H192.104V100.975H221.154ZM357.576 128.45C344.626 128.45 332.959 125.708 322.576 120.225C312.309 114.742 304.201 107.158 298.251 97.4751C292.417 87.7917 289.501 76.8834 289.501 64.7501C289.501 52.6167 292.417 41.7084 298.251 32.0251C304.201 22.3417 312.309 14.7584 322.576 9.27505C332.959 3.79172 344.626 1.05005 357.576 1.05005C370.526 1.05005 382.134 3.79172 392.401 9.27505C402.784 14.7584 410.892 22.3417 416.726 32.0251C422.676 41.7084 425.651 52.6167 425.651 64.7501C425.651 76.8834 422.676 87.7917 416.726 97.4751C410.892 107.158 402.784 114.742 392.401 120.225C382.134 125.708 370.526 128.45 357.576 128.45ZM357.576 99.7501C363.759 99.7501 369.359 98.2917 374.376 95.3751C379.392 92.4584 383.359 88.3751 386.276 83.1251C389.192 77.7584 390.651 71.6334 390.651 64.7501C390.651 57.8667 389.192 51.8001 386.276 46.5501C383.359 41.1834 379.392 37.0417 374.376 34.125C369.359 31.2084 363.759 29.7501 357.576 29.7501C351.392 29.7501 345.792 31.2084 340.776 34.125C335.759 37.0417 331.792 41.1834 328.876 46.5501C325.959 51.8001 324.501 57.8667 324.501 64.7501C324.501 71.6334 325.959 77.7584 328.876 83.1251C331.792 88.3751 335.759 92.4584 340.776 95.3751C345.792 98.2917 351.392 99.7501 357.576 99.7501ZM503.824 128.45C485.624 128.45 471.449 123.492 461.299 113.575C451.265 103.658 446.249 89.6001 446.249 71.4001V3.50005H480.899V70.3501C480.899 89.9501 488.657 99.7501 504.174 99.7501C519.574 99.7501 527.274 89.9501 527.274 70.3501V3.50005H561.399V71.4001C561.399 89.6001 556.324 103.658 546.174 113.575C536.14 123.492 522.024 128.45 503.824 128.45ZM612.567 30.975H574.942V3.50005H684.667V30.975H647.217V126H612.567V30.975ZM812.029 128.45C793.829 128.45 779.654 123.492 769.504 113.575C759.47 103.658 754.454 89.6001 754.454 71.4001V3.50005H789.104V70.3501C789.104 89.9501 796.862 99.7501 812.379 99.7501C827.779 99.7501 835.479 89.9501 835.479 70.3501V3.50005H869.604V71.4001C869.604 89.6001 864.529 103.658 854.379 113.575C844.345 123.492 830.229 128.45 812.029 128.45ZM939.627 128.45C929.71 128.45 920.085 127.225 910.752 124.775C901.419 122.325 893.835 119.058 888.002 114.975L899.377 89.4251C904.86 93.0417 911.219 95.9584 918.452 98.1751C925.685 100.392 932.802 101.5 939.802 101.5C953.102 101.5 959.752 98.1751 959.752 91.5251C959.752 88.0251 957.827 85.4584 953.977 83.8251C950.244 82.0751 944.177 80.2667 935.777 78.4001C926.56 76.4167 918.86 74.3167 912.677 72.1001C906.494 69.7667 901.185 66.0917 896.752 61.0751C892.319 56.0584 890.102 49.2917 890.102 40.7751C890.102 33.3084 892.144 26.6001 896.227 20.65C900.31 14.5834 906.377 9.80005 914.427 6.30005C922.594 2.80005 932.569 1.05005 944.352 1.05005C952.402 1.05005 960.335 1.98338 968.152 3.85005C975.969 5.60005 982.852 8.22505 988.802 11.725L978.127 37.4501C966.46 31.1501 955.144 28.0001 944.177 28.0001C937.294 28.0001 932.277 29.0501 929.127 31.15C925.977 33.1334 924.402 35.7584 924.402 39.0251C924.402 42.2917 926.269 44.7417 930.002 46.3751C933.735 48.0084 939.744 49.7001 948.027 51.4501C957.36 53.4334 965.06 55.5917 971.127 57.9251C977.31 60.1417 982.619 63.7584 987.052 68.7751C991.602 73.6751 993.877 80.3834 993.877 88.9001C993.877 96.2501 991.835 102.9 987.752 108.85C983.669 114.8 977.544 119.583 969.377 123.2C961.21 126.7 951.294 128.45 939.627 128.45Z"/>
</mask>
<path d="M98.8053 102.2H47.0053L37.3803 126H2.03027L56.1053 3.50005H90.2303L144.48 126H108.43L98.8053 102.2ZM88.6553 76.6501L72.9053 37.4501L57.1553 76.6501H88.6553ZM251.954 62.1251C258.954 64.5751 264.437 68.4251 268.404 73.675C272.37 78.8084 274.354 85.0501 274.354 92.4001C274.354 103.133 270.037 111.417 261.404 117.25C252.77 123.083 240.287 126 223.954 126H157.804V3.50005H220.454C236.087 3.50005 247.987 6.41672 256.154 12.2501C264.32 17.9667 268.404 25.7251 268.404 35.5251C268.404 41.3584 266.945 46.6084 264.029 51.2751C261.229 55.8251 257.204 59.4417 251.954 62.1251ZM192.104 28.525V52.1501H215.904C227.57 52.1501 233.404 48.1834 233.404 40.2501C233.404 32.4334 227.57 28.525 215.904 28.525H192.104ZM221.154 100.975C233.287 100.975 239.354 96.8334 239.354 88.5501C239.354 80.2667 233.287 76.1251 221.154 76.1251H192.104V100.975H221.154ZM357.576 128.45C344.626 128.45 332.959 125.708 322.576 120.225C312.309 114.742 304.201 107.158 298.251 97.4751C292.417 87.7917 289.501 76.8834 289.501 64.7501C289.501 52.6167 292.417 41.7084 298.251 32.0251C304.201 22.3417 312.309 14.7584 322.576 9.27505C332.959 3.79172 344.626 1.05005 357.576 1.05005C370.526 1.05005 382.134 3.79172 392.401 9.27505C402.784 14.7584 410.892 22.3417 416.726 32.0251C422.676 41.7084 425.651 52.6167 425.651 64.7501C425.651 76.8834 422.676 87.7917 416.726 97.4751C410.892 107.158 402.784 114.742 392.401 120.225C382.134 125.708 370.526 128.45 357.576 128.45ZM357.576 99.7501C363.759 99.7501 369.359 98.2917 374.376 95.3751C379.392 92.4584 383.359 88.3751 386.276 83.1251C389.192 77.7584 390.651 71.6334 390.651 64.7501C390.651 57.8667 389.192 51.8001 386.276 46.5501C383.359 41.1834 379.392 37.0417 374.376 34.125C369.359 31.2084 363.759 29.7501 357.576 29.7501C351.392 29.7501 345.792 31.2084 340.776 34.125C335.759 37.0417 331.792 41.1834 328.876 46.5501C325.959 51.8001 324.501 57.8667 324.501 64.7501C324.501 71.6334 325.959 77.7584 328.876 83.1251C331.792 88.3751 335.759 92.4584 340.776 95.3751C345.792 98.2917 351.392 99.7501 357.576 99.7501ZM503.824 128.45C485.624 128.45 471.449 123.492 461.299 113.575C451.265 103.658 446.249 89.6001 446.249 71.4001V3.50005H480.899V70.3501C480.899 89.9501 488.657 99.7501 504.174 99.7501C519.574 99.7501 527.274 89.9501 527.274 70.3501V3.50005H561.399V71.4001C561.399 89.6001 556.324 103.658 546.174 113.575C536.14 123.492 522.024 128.45 503.824 128.45ZM612.567 30.975H574.942V3.50005H684.667V30.975H647.217V126H612.567V30.975ZM812.029 128.45C793.829 128.45 779.654 123.492 769.504 113.575C759.47 103.658 754.454 89.6001 754.454 71.4001V3.50005H789.104V70.3501C789.104 89.9501 796.862 99.7501 812.379 99.7501C827.779 99.7501 835.479 89.9501 835.479 70.3501V3.50005H869.604V71.4001C869.604 89.6001 864.529 103.658 854.379 113.575C844.345 123.492 830.229 128.45 812.029 128.45ZM939.627 128.45C929.71 128.45 920.085 127.225 910.752 124.775C901.419 122.325 893.835 119.058 888.002 114.975L899.377 89.4251C904.86 93.0417 911.219 95.9584 918.452 98.1751C925.685 100.392 932.802 101.5 939.802 101.5C953.102 101.5 959.752 98.1751 959.752 91.5251C959.752 88.0251 957.827 85.4584 953.977 83.8251C950.244 82.0751 944.177 80.2667 935.777 78.4001C926.56 76.4167 918.86 74.3167 912.677 72.1001C906.494 69.7667 901.185 66.0917 896.752 61.0751C892.319 56.0584 890.102 49.2917 890.102 40.7751C890.102 33.3084 892.144 26.6001 896.227 20.65C900.31 14.5834 906.377 9.80005 914.427 6.30005C922.594 2.80005 932.569 1.05005 944.352 1.05005C952.402 1.05005 960.335 1.98338 968.152 3.85005C975.969 5.60005 982.852 8.22505 988.802 11.725L978.127 37.4501C966.46 31.1501 955.144 28.0001 944.177 28.0001C937.294 28.0001 932.277 29.0501 929.127 31.15C925.977 33.1334 924.402 35.7584 924.402 39.0251C924.402 42.2917 926.269 44.7417 930.002 46.3751C933.735 48.0084 939.744 49.7001 948.027 51.4501C957.36 53.4334 965.06 55.5917 971.127 57.9251C977.31 60.1417 982.619 63.7584 987.052 68.7751C991.602 73.6751 993.877 80.3834 993.877 88.9001C993.877 96.2501 991.835 102.9 987.752 108.85C983.669 114.8 977.544 119.583 969.377 123.2C961.21 126.7 951.294 128.45 939.627 128.45Z" stroke="#E1E1E1" stroke-width="2" mask="url(#path-1-outside-1)"/>
</svg>
