<svg width="82" height="73" viewBox="0 0 82 73" fill="none" xmlns="http://www.w3.org/2000/svg">
<mask id="path-1-outside-1" maskUnits="userSpaceOnUse" x="0" y="3" width="82" height="67" fill="black">
<rect fill="white" y="3" width="82" height="67"/>
<path d="M54.21 5.01407V5H57.8739L59.2126 5.26737C60.1051 5.44096 60.9154 5.66843 61.6435 5.94988C62.3716 6.23133 63.0762 6.5597 63.7572 6.93494C64.4384 7.31018 65.0561 7.69252 65.6104 8.08184C66.16 8.4665 66.6532 8.8746 67.09 9.30613C67.5221 9.74237 68.1961 9.85495 69.1121 9.64386C70.0281 9.43278 71.0145 9.13958 72.0714 8.76434C73.1283 8.3891 74.1735 7.96694 75.2068 7.49783C76.2402 7.02873 76.8697 6.73089 77.0952 6.60424C77.3159 6.47295 77.4334 6.40259 77.4475 6.39316L77.4615 6.37205L77.5319 6.33687L77.6024 6.30169L77.6729 6.26651L77.7433 6.23133L77.7574 6.21022L77.7786 6.19615L77.7998 6.18207L77.8138 6.16097L77.8842 6.13986L77.9547 6.12578L77.9407 6.23133L77.9195 6.33687L77.8842 6.44241L77.849 6.54795L77.8138 6.61832L77.7786 6.68868L77.7433 6.79422C77.7199 6.86458 77.6964 6.95837 77.6729 7.07567C77.6494 7.19296 77.4263 7.66199 77.0035 8.4829C76.5807 9.3038 76.0523 10.1364 75.4182 10.9807C74.784 11.8251 74.2157 12.463 73.7131 12.8946C73.2058 13.3308 72.87 13.6357 72.7055 13.8093C72.5411 13.9875 72.3415 14.1516 72.1066 14.3018L71.7543 14.534L71.6839 14.5692L71.6134 14.6044L71.5994 14.6255L71.5782 14.6395L71.557 14.6536L71.5429 14.6747L71.4725 14.7099L71.402 14.7451L71.388 14.7662L71.3668 14.7803L71.3457 14.7943L71.3316 14.8154L71.3175 14.8365L71.2963 14.8506L71.2752 14.8647L71.2611 14.8858H71.6134L73.5862 14.4636C74.9015 14.1822 76.158 13.8421 77.3558 13.4434L79.2582 12.8101L79.4696 12.7398L79.5753 12.7046L79.6457 12.6694L79.7162 12.6342L79.7866 12.599L79.8571 12.5639L79.998 12.5428L80.1389 12.5287V12.6694L80.1037 12.6835L80.0685 12.7046L80.0544 12.7257L80.0332 12.7398L80.0121 12.7538L79.998 12.775L79.984 12.7961L79.9628 12.8101L79.9416 12.8242L79.9275 12.8453L79.9135 12.8664L79.8923 12.8805L79.8571 12.9509L79.8219 13.0212L79.8007 13.0353C79.7913 13.0494 79.4931 13.448 78.9059 14.2314C78.3188 15.0195 78.0017 15.4182 77.9547 15.4276C77.9078 15.4417 77.842 15.512 77.7574 15.6387C77.6776 15.77 77.1797 16.293 76.2637 17.2077C75.3477 18.1224 74.4506 18.9362 73.5722 19.6493C72.6892 20.367 72.2429 21.2488 72.2335 22.2949C72.2194 23.3362 72.1654 24.5136 72.0714 25.827C71.9775 27.1405 71.8013 28.5594 71.5429 30.0839C71.2846 31.6084 70.8853 33.3323 70.3451 35.2555C69.805 37.1787 69.1473 39.055 68.3723 40.8844C67.5972 42.7138 66.787 44.3555 65.9415 45.8097C65.0959 47.2639 64.3209 48.4952 63.6163 49.5037C62.9117 50.5122 62.1954 51.462 61.4673 52.3533C60.7393 53.2446 59.8186 54.2484 58.7054 55.3648C57.5874 56.4765 56.9768 57.0863 56.8735 57.1942C56.7655 57.2974 56.3051 57.6821 55.4924 58.3481C54.6845 59.0189 53.8155 59.6896 52.8854 60.3605C51.9601 61.0266 51.1099 61.5824 50.3348 62.028C49.5598 62.4736 48.6251 62.9826 47.5305 63.5549C46.4408 64.1318 45.2618 64.6666 43.9935 65.1591C42.7252 65.6516 41.3865 66.109 39.9773 66.5312C38.5682 66.9533 37.206 67.2817 35.8907 67.5162C34.5755 67.7507 33.0841 67.9501 31.4166 68.1143L28.9153 68.3606V68.3957H24.3355V68.3606L23.7366 68.3254C23.3374 68.302 23.0085 68.2785 22.7501 68.255C22.4918 68.2316 21.5171 68.1026 19.8261 67.868C18.1351 67.6335 16.8081 67.3989 15.8452 67.1644C14.8823 66.9299 13.4496 66.4842 11.5472 65.8276C9.64479 65.1709 8.01719 64.5071 6.66438 63.8363C5.31629 63.1702 4.47078 62.748 4.12786 62.5698C3.78966 62.3962 3.40918 62.1805 2.98642 61.9225L2.35229 61.5355L2.33827 61.5144L2.31707 61.5003L2.29593 61.4862L2.28184 61.4651L2.21138 61.43L2.14092 61.3948L2.1269 61.3737L2.10569 61.3596L2.08455 61.3455L2.07046 61.3244L2.05644 61.3033L2.03523 61.2892H2V61.1485L2.07046 61.1626L2.14092 61.1837L2.45798 61.2189C2.66936 61.2423 3.2448 61.2775 4.18423 61.3244C5.12373 61.3713 6.12185 61.3713 7.17873 61.3244C8.23561 61.2775 9.31603 61.1719 10.4198 61.0078C11.5237 60.8436 12.8272 60.5622 14.3303 60.1634C15.8335 59.7647 17.2145 59.291 18.4734 58.7421C19.7275 58.1887 20.62 57.7759 21.1508 57.5038C21.6768 57.2364 22.4801 56.7392 23.5604 56.0121L25.181 54.9215L25.1951 54.9004L25.2162 54.8863L25.2374 54.8723L25.2514 54.8512L25.2655 54.83L25.2867 54.816L25.3079 54.8019L25.3219 54.7808L25.3924 54.7597L25.4628 54.7456L25.4769 54.6752L25.498 54.6049L25.5193 54.5908L25.5333 54.5697L24.9696 54.5345C24.5938 54.5111 24.2298 54.4876 23.8775 54.4642C23.5252 54.4407 22.9733 54.3352 22.2217 54.1475C21.4702 53.9599 20.6599 53.6784 19.7909 53.3032C18.9219 52.928 18.0764 52.4823 17.2544 51.9663C16.4324 51.4504 15.8381 51.0211 15.4717 50.6787C15.1101 50.3409 14.6403 49.8625 14.0626 49.2433C13.4895 48.6195 12.9916 47.9792 12.5688 47.3225C12.1461 46.6658 11.7421 45.9081 11.357 45.0498L10.7721 43.7692L10.7369 43.6637L10.7017 43.5581L10.6805 43.4878L10.6664 43.4174L10.7721 43.4315L10.8778 43.4526L11.6529 43.5581C12.1696 43.6285 12.9799 43.6519 14.0837 43.6285C15.1876 43.6051 15.9509 43.5581 16.3736 43.4878C16.7964 43.4174 17.0547 43.3705 17.1487 43.347L17.2896 43.3119L17.4657 43.2767L17.6419 43.2415L17.656 43.2204L17.6771 43.2063L17.6983 43.1922L17.7123 43.1711L17.5714 43.136L17.4305 43.1008L17.2896 43.0656L17.1487 43.0304L17.0077 42.9952C16.9138 42.9718 16.7494 42.9249 16.5145 42.8545C16.2797 42.7841 15.6456 42.5261 14.6121 42.0805C13.5788 41.6349 12.7567 41.201 12.1461 40.7788C11.5339 40.3554 10.9502 39.8924 10.3987 39.3927C9.84912 38.8861 9.24557 38.2341 8.58791 37.4367C7.93031 36.6393 7.34318 35.7128 6.82643 34.6574C6.30976 33.602 5.92224 32.5935 5.66386 31.6318C5.40653 30.6759 5.23675 29.6985 5.15663 28.7118L5.02973 27.2342L5.10019 27.2483L5.17065 27.2694L5.24111 27.3046L5.31157 27.3398L5.38203 27.375L5.45249 27.4102L6.5446 27.9027C7.27272 28.2311 8.17692 28.5125 9.25727 28.747C10.3377 28.9815 10.9835 29.1106 11.1949 29.134L11.512 29.1692H12.1461L12.1321 29.1481L12.1109 29.134L12.0897 29.1199L12.0756 29.0988L12.0616 29.0777L12.0404 29.0636L12.0193 29.0496L12.0052 29.0285L11.9347 28.9933L11.8642 28.9581L11.8502 28.937L11.829 28.9229L11.8079 28.9089L11.7938 28.8877L11.7233 28.8526L11.6529 28.8174L11.6388 28.7963C11.6248 28.7868 11.4228 28.6368 11.0328 28.346C10.6476 28.0504 10.2437 27.6682 9.82094 27.1991C9.39818 26.73 8.97543 26.2374 8.55268 25.7215C8.12915 25.2043 7.75192 24.651 7.42534 24.068C7.09657 23.4817 6.74893 22.7358 6.38254 21.8305C6.02088 20.9299 5.74609 20.0222 5.55817 19.1075C5.37033 18.1928 5.26464 17.2898 5.24111 16.3986C5.21765 15.5073 5.24111 14.7451 5.31157 14.1118C5.38203 13.4786 5.52295 12.7632 5.73432 11.9658C5.9457 11.1684 6.25107 10.324 6.65029 9.43278L7.24919 8.09591L7.28442 7.99037L7.31965 7.88482L7.34086 7.87075L7.35488 7.84964L7.36897 7.82853L7.39011 7.81446L7.41131 7.82853L7.42534 7.84964L7.43943 7.87075L7.46057 7.88482L7.48177 7.8989L7.49579 7.92L7.50989 7.94111L7.53102 7.95518L7.56625 8.02555L7.60148 8.09591L7.62269 8.10998L7.63671 8.13109L8.58791 9.18651C9.22204 9.89013 9.97362 10.6759 10.8426 11.5436C11.7116 12.4114 12.1931 12.8617 12.287 12.8946C12.381 12.9321 12.4984 13.0399 12.6393 13.2182C12.7802 13.3918 13.25 13.8069 14.0485 14.4636C14.8471 15.1203 15.8922 15.8826 17.1839 16.7504C18.4757 17.6181 19.9083 18.4742 21.4819 19.3186C23.0555 20.1629 24.7465 20.9251 26.5549 21.6053C28.3634 22.2855 29.6317 22.7311 30.3597 22.9422C31.0878 23.1533 32.3326 23.423 34.094 23.7514C35.8555 24.0797 37.1825 24.2908 38.075 24.3846C38.9675 24.4784 39.5781 24.5324 39.9069 24.5464L40.4001 24.5605L40.3861 24.455L40.3649 24.3494L40.224 23.4699C40.13 22.8836 40.083 22.0627 40.083 21.0073C40.083 19.9518 40.1653 18.9785 40.3296 18.0872C40.4941 17.196 40.7407 16.293 41.0695 15.3783C41.3983 14.4636 41.7201 13.7295 42.0348 13.176C42.3542 12.6272 42.7722 12.001 43.2889 11.2974C43.8057 10.5937 44.475 9.8667 45.297 9.11615C46.119 8.3656 47.0585 7.69717 48.1154 7.11085C49.1722 6.52452 50.147 6.07885 51.0394 5.77398C51.9319 5.4691 52.6835 5.2697 53.2941 5.1759C53.9047 5.08211 54.21 5.02814 54.21 5.01407V5.01407Z"/>
</mask>
<path d="M54.21 5.01407V5H57.8739L59.2126 5.26737C60.1051 5.44096 60.9154 5.66843 61.6435 5.94988C62.3716 6.23133 63.0762 6.5597 63.7572 6.93494C64.4384 7.31018 65.0561 7.69252 65.6104 8.08184C66.16 8.4665 66.6532 8.8746 67.09 9.30613C67.5221 9.74237 68.1961 9.85495 69.1121 9.64386C70.0281 9.43278 71.0145 9.13958 72.0714 8.76434C73.1283 8.3891 74.1735 7.96694 75.2068 7.49783C76.2402 7.02873 76.8697 6.73089 77.0952 6.60424C77.3159 6.47295 77.4334 6.40259 77.4475 6.39316L77.4615 6.37205L77.5319 6.33687L77.6024 6.30169L77.6729 6.26651L77.7433 6.23133L77.7574 6.21022L77.7786 6.19615L77.7998 6.18207L77.8138 6.16097L77.8842 6.13986L77.9547 6.12578L77.9407 6.23133L77.9195 6.33687L77.8842 6.44241L77.849 6.54795L77.8138 6.61832L77.7786 6.68868L77.7433 6.79422C77.7199 6.86458 77.6964 6.95837 77.6729 7.07567C77.6494 7.19296 77.4263 7.66199 77.0035 8.4829C76.5807 9.3038 76.0523 10.1364 75.4182 10.9807C74.784 11.8251 74.2157 12.463 73.7131 12.8946C73.2058 13.3308 72.87 13.6357 72.7055 13.8093C72.5411 13.9875 72.3415 14.1516 72.1066 14.3018L71.7543 14.534L71.6839 14.5692L71.6134 14.6044L71.5994 14.6255L71.5782 14.6395L71.557 14.6536L71.5429 14.6747L71.4725 14.7099L71.402 14.7451L71.388 14.7662L71.3668 14.7803L71.3457 14.7943L71.3316 14.8154L71.3175 14.8365L71.2963 14.8506L71.2752 14.8647L71.2611 14.8858H71.6134L73.5862 14.4636C74.9015 14.1822 76.158 13.8421 77.3558 13.4434L79.2582 12.8101L79.4696 12.7398L79.5753 12.7046L79.6457 12.6694L79.7162 12.6342L79.7866 12.599L79.8571 12.5639L79.998 12.5428L80.1389 12.5287V12.6694L80.1037 12.6835L80.0685 12.7046L80.0544 12.7257L80.0332 12.7398L80.0121 12.7538L79.998 12.775L79.984 12.7961L79.9628 12.8101L79.9416 12.8242L79.9275 12.8453L79.9135 12.8664L79.8923 12.8805L79.8571 12.9509L79.8219 13.0212L79.8007 13.0353C79.7913 13.0494 79.4931 13.448 78.9059 14.2314C78.3188 15.0195 78.0017 15.4182 77.9547 15.4276C77.9078 15.4417 77.842 15.512 77.7574 15.6387C77.6776 15.77 77.1797 16.293 76.2637 17.2077C75.3477 18.1224 74.4506 18.9362 73.5722 19.6493C72.6892 20.367 72.2429 21.2488 72.2335 22.2949C72.2194 23.3362 72.1654 24.5136 72.0714 25.827C71.9775 27.1405 71.8013 28.5594 71.5429 30.0839C71.2846 31.6084 70.8853 33.3323 70.3451 35.2555C69.805 37.1787 69.1473 39.055 68.3723 40.8844C67.5972 42.7138 66.787 44.3555 65.9415 45.8097C65.0959 47.2639 64.3209 48.4952 63.6163 49.5037C62.9117 50.5122 62.1954 51.462 61.4673 52.3533C60.7393 53.2446 59.8186 54.2484 58.7054 55.3648C57.5874 56.4765 56.9768 57.0863 56.8735 57.1942C56.7655 57.2974 56.3051 57.6821 55.4924 58.3481C54.6845 59.0189 53.8155 59.6896 52.8854 60.3605C51.9601 61.0266 51.1099 61.5824 50.3348 62.028C49.5598 62.4736 48.6251 62.9826 47.5305 63.5549C46.4408 64.1318 45.2618 64.6666 43.9935 65.1591C42.7252 65.6516 41.3865 66.109 39.9773 66.5312C38.5682 66.9533 37.206 67.2817 35.8907 67.5162C34.5755 67.7507 33.0841 67.9501 31.4166 68.1143L28.9153 68.3606V68.3957H24.3355V68.3606L23.7366 68.3254C23.3374 68.302 23.0085 68.2785 22.7501 68.255C22.4918 68.2316 21.5171 68.1026 19.8261 67.868C18.1351 67.6335 16.8081 67.3989 15.8452 67.1644C14.8823 66.9299 13.4496 66.4842 11.5472 65.8276C9.64479 65.1709 8.01719 64.5071 6.66438 63.8363C5.31629 63.1702 4.47078 62.748 4.12786 62.5698C3.78966 62.3962 3.40918 62.1805 2.98642 61.9225L2.35229 61.5355L2.33827 61.5144L2.31707 61.5003L2.29593 61.4862L2.28184 61.4651L2.21138 61.43L2.14092 61.3948L2.1269 61.3737L2.10569 61.3596L2.08455 61.3455L2.07046 61.3244L2.05644 61.3033L2.03523 61.2892H2V61.1485L2.07046 61.1626L2.14092 61.1837L2.45798 61.2189C2.66936 61.2423 3.2448 61.2775 4.18423 61.3244C5.12373 61.3713 6.12185 61.3713 7.17873 61.3244C8.23561 61.2775 9.31603 61.1719 10.4198 61.0078C11.5237 60.8436 12.8272 60.5622 14.3303 60.1634C15.8335 59.7647 17.2145 59.291 18.4734 58.7421C19.7275 58.1887 20.62 57.7759 21.1508 57.5038C21.6768 57.2364 22.4801 56.7392 23.5604 56.0121L25.181 54.9215L25.1951 54.9004L25.2162 54.8863L25.2374 54.8723L25.2514 54.8512L25.2655 54.83L25.2867 54.816L25.3079 54.8019L25.3219 54.7808L25.3924 54.7597L25.4628 54.7456L25.4769 54.6752L25.498 54.6049L25.5193 54.5908L25.5333 54.5697L24.9696 54.5345C24.5938 54.5111 24.2298 54.4876 23.8775 54.4642C23.5252 54.4407 22.9733 54.3352 22.2217 54.1475C21.4702 53.9599 20.6599 53.6784 19.7909 53.3032C18.9219 52.928 18.0764 52.4823 17.2544 51.9663C16.4324 51.4504 15.8381 51.0211 15.4717 50.6787C15.1101 50.3409 14.6403 49.8625 14.0626 49.2433C13.4895 48.6195 12.9916 47.9792 12.5688 47.3225C12.1461 46.6658 11.7421 45.9081 11.357 45.0498L10.7721 43.7692L10.7369 43.6637L10.7017 43.5581L10.6805 43.4878L10.6664 43.4174L10.7721 43.4315L10.8778 43.4526L11.6529 43.5581C12.1696 43.6285 12.9799 43.6519 14.0837 43.6285C15.1876 43.6051 15.9509 43.5581 16.3736 43.4878C16.7964 43.4174 17.0547 43.3705 17.1487 43.347L17.2896 43.3119L17.4657 43.2767L17.6419 43.2415L17.656 43.2204L17.6771 43.2063L17.6983 43.1922L17.7123 43.1711L17.5714 43.136L17.4305 43.1008L17.2896 43.0656L17.1487 43.0304L17.0077 42.9952C16.9138 42.9718 16.7494 42.9249 16.5145 42.8545C16.2797 42.7841 15.6456 42.5261 14.6121 42.0805C13.5788 41.6349 12.7567 41.201 12.1461 40.7788C11.5339 40.3554 10.9502 39.8924 10.3987 39.3927C9.84912 38.8861 9.24557 38.2341 8.58791 37.4367C7.93031 36.6393 7.34318 35.7128 6.82643 34.6574C6.30976 33.602 5.92224 32.5935 5.66386 31.6318C5.40653 30.6759 5.23675 29.6985 5.15663 28.7118L5.02973 27.2342L5.10019 27.2483L5.17065 27.2694L5.24111 27.3046L5.31157 27.3398L5.38203 27.375L5.45249 27.4102L6.5446 27.9027C7.27272 28.2311 8.17692 28.5125 9.25727 28.747C10.3377 28.9815 10.9835 29.1106 11.1949 29.134L11.512 29.1692H12.1461L12.1321 29.1481L12.1109 29.134L12.0897 29.1199L12.0756 29.0988L12.0616 29.0777L12.0404 29.0636L12.0193 29.0496L12.0052 29.0285L11.9347 28.9933L11.8642 28.9581L11.8502 28.937L11.829 28.9229L11.8079 28.9089L11.7938 28.8877L11.7233 28.8526L11.6529 28.8174L11.6388 28.7963C11.6248 28.7868 11.4228 28.6368 11.0328 28.346C10.6476 28.0504 10.2437 27.6682 9.82094 27.1991C9.39818 26.73 8.97543 26.2374 8.55268 25.7215C8.12915 25.2043 7.75192 24.651 7.42534 24.068C7.09657 23.4817 6.74893 22.7358 6.38254 21.8305C6.02088 20.9299 5.74609 20.0222 5.55817 19.1075C5.37033 18.1928 5.26464 17.2898 5.24111 16.3986C5.21765 15.5073 5.24111 14.7451 5.31157 14.1118C5.38203 13.4786 5.52295 12.7632 5.73432 11.9658C5.9457 11.1684 6.25107 10.324 6.65029 9.43278L7.24919 8.09591L7.28442 7.99037L7.31965 7.88482L7.34086 7.87075L7.35488 7.84964L7.36897 7.82853L7.39011 7.81446L7.41131 7.82853L7.42534 7.84964L7.43943 7.87075L7.46057 7.88482L7.48177 7.8989L7.49579 7.92L7.50989 7.94111L7.53102 7.95518L7.56625 8.02555L7.60148 8.09591L7.62269 8.10998L7.63671 8.13109L8.58791 9.18651C9.22204 9.89013 9.97362 10.6759 10.8426 11.5436C11.7116 12.4114 12.1931 12.8617 12.287 12.8946C12.381 12.9321 12.4984 13.0399 12.6393 13.2182C12.7802 13.3918 13.25 13.8069 14.0485 14.4636C14.8471 15.1203 15.8922 15.8826 17.1839 16.7504C18.4757 17.6181 19.9083 18.4742 21.4819 19.3186C23.0555 20.1629 24.7465 20.9251 26.5549 21.6053C28.3634 22.2855 29.6317 22.7311 30.3597 22.9422C31.0878 23.1533 32.3326 23.423 34.094 23.7514C35.8555 24.0797 37.1825 24.2908 38.075 24.3846C38.9675 24.4784 39.5781 24.5324 39.9069 24.5464L40.4001 24.5605L40.3861 24.455L40.3649 24.3494L40.224 23.4699C40.13 22.8836 40.083 22.0627 40.083 21.0073C40.083 19.9518 40.1653 18.9785 40.3296 18.0872C40.4941 17.196 40.7407 16.293 41.0695 15.3783C41.3983 14.4636 41.7201 13.7295 42.0348 13.176C42.3542 12.6272 42.7722 12.001 43.2889 11.2974C43.8057 10.5937 44.475 9.8667 45.297 9.11615C46.119 8.3656 47.0585 7.69717 48.1154 7.11085C49.1722 6.52452 50.147 6.07885 51.0394 5.77398C51.9319 5.4691 52.6835 5.2697 53.2941 5.1759C53.9047 5.08211 54.21 5.02814 54.21 5.01407V5.01407Z" stroke="#626262" stroke-width="3" mask="url(#path-1-outside-1)"/>
</svg>
