<svg width="847" height="130" viewBox="0 0 847 130" fill="none" xmlns="http://www.w3.org/2000/svg">
<mask id="path-1-outside-1" maskUnits="userSpaceOnUse" x="0.283203" y="0.0500488" width="846" height="130" fill="black">
<rect fill="white" x="0.283203" y="0.0500488" width="846" height="130"/>
<path d="M68.6582 128.45C55.8249 128.45 44.2749 125.767 34.0082 120.4C23.8582 114.917 15.8665 107.333 10.0332 97.6501C4.19987 87.9667 1.2832 77.0001 1.2832 64.7501C1.2832 52.5001 4.19987 41.5334 10.0332 31.85C15.8665 22.1667 23.8582 14.6417 34.0082 9.27505C44.2749 3.79172 55.8249 1.05005 68.6582 1.05005C79.8582 1.05005 89.9499 3.03338 98.9332 7.00006C107.917 10.9667 115.383 16.6834 121.333 24.1501L99.2832 44.1001C91.3499 34.5334 81.7249 29.7501 70.4082 29.7501C63.7582 29.7501 57.8082 31.2084 52.5582 34.125C47.4249 37.0417 43.3999 41.1834 40.4832 46.5501C37.6832 51.8001 36.2832 57.8667 36.2832 64.7501C36.2832 71.6334 37.6832 77.7584 40.4832 83.1251C43.3999 88.3751 47.4249 92.4584 52.5582 95.3751C57.8082 98.2917 63.7582 99.7501 70.4082 99.7501C81.7249 99.7501 91.3499 94.9667 99.2832 85.4001L121.333 105.35C115.383 112.817 107.917 118.533 98.9332 122.5C89.9499 126.467 79.8582 128.45 68.6582 128.45ZM140.282 3.50005H174.932V98.5251H233.382V126H140.282V3.50005ZM334.036 102.2H282.236L272.611 126H237.261L291.336 3.50005H325.461L379.711 126H343.661L334.036 102.2ZM323.886 76.6501L308.136 37.4501L292.386 76.6501H323.886ZM436.084 128.45C426.168 128.45 416.543 127.225 407.209 124.775C397.876 122.325 390.293 119.058 384.459 114.975L395.834 89.4251C401.318 93.0417 407.676 95.9584 414.909 98.1751C422.143 100.392 429.259 101.5 436.259 101.5C449.559 101.5 456.209 98.1751 456.209 91.5251C456.209 88.0251 454.284 85.4584 450.434 83.8251C446.701 82.0751 440.634 80.2667 432.234 78.4001C423.018 76.4167 415.318 74.3167 409.134 72.1001C402.951 69.7667 397.643 66.0917 393.209 61.0751C388.776 56.0584 386.559 49.2917 386.559 40.7751C386.559 33.3084 388.601 26.6001 392.684 20.65C396.768 14.5834 402.834 9.80005 410.884 6.30005C419.051 2.80005 429.026 1.05005 440.809 1.05005C448.859 1.05005 456.793 1.98338 464.609 3.85005C472.426 5.60005 479.309 8.22505 485.259 11.725L474.584 37.4501C462.918 31.1501 451.601 28.0001 440.634 28.0001C433.751 28.0001 428.734 29.0501 425.584 31.15C422.434 33.1334 420.859 35.7584 420.859 39.0251C420.859 42.2917 422.726 44.7417 426.459 46.3751C430.193 48.0084 436.201 49.7001 444.484 51.4501C453.818 53.4334 461.518 55.5917 467.584 57.9251C473.768 60.1417 479.076 63.7584 483.509 68.7751C488.059 73.6751 490.334 80.3834 490.334 88.9001C490.334 96.2501 488.293 102.9 484.209 108.85C480.126 114.8 474.001 119.583 465.834 123.2C457.668 126.7 447.751 128.45 436.084 128.45ZM552.89 128.45C542.973 128.45 533.348 127.225 524.015 124.775C514.682 122.325 507.098 119.058 501.265 114.975L512.64 89.4251C518.123 93.0417 524.482 95.9584 531.715 98.1751C538.948 100.392 546.065 101.5 553.065 101.5C566.365 101.5 573.015 98.1751 573.015 91.5251C573.015 88.0251 571.09 85.4584 567.24 83.8251C563.507 82.0751 557.44 80.2667 549.04 78.4001C539.823 76.4167 532.123 74.3167 525.94 72.1001C519.757 69.7667 514.448 66.0917 510.015 61.0751C505.582 56.0584 503.365 49.2917 503.365 40.7751C503.365 33.3084 505.407 26.6001 509.49 20.65C513.573 14.5834 519.64 9.80005 527.69 6.30005C535.857 2.80005 545.832 1.05005 557.615 1.05005C565.665 1.05005 573.598 1.98338 581.415 3.85005C589.232 5.60005 596.115 8.22505 602.065 11.725L591.39 37.4501C579.723 31.1501 568.407 28.0001 557.44 28.0001C550.557 28.0001 545.54 29.0501 542.39 31.15C539.24 33.1334 537.665 35.7584 537.665 39.0251C537.665 42.2917 539.532 44.7417 543.265 46.3751C546.998 48.0084 553.007 49.7001 561.29 51.4501C570.623 53.4334 578.323 55.5917 584.39 57.9251C590.573 60.1417 595.882 63.7584 600.315 68.7751C604.865 73.6751 607.14 80.3834 607.14 88.9001C607.14 96.2501 605.098 102.9 601.015 108.85C596.932 114.8 590.807 119.583 582.64 123.2C574.473 126.7 564.557 128.45 552.89 128.45ZM724.996 99.2251V126H626.646V3.50005H722.721V30.275H660.946V50.9251H715.371V76.8251H660.946V99.2251H724.996ZM790.774 128.45C780.857 128.45 771.232 127.225 761.899 124.775C752.565 122.325 744.982 119.058 739.149 114.975L750.524 89.4251C756.007 93.0417 762.365 95.9584 769.599 98.1751C776.832 100.392 783.949 101.5 790.949 101.5C804.249 101.5 810.899 98.1751 810.899 91.5251C810.899 88.0251 808.974 85.4584 805.124 83.8251C801.391 82.0751 795.324 80.2667 786.924 78.4001C777.707 76.4167 770.007 74.3167 763.824 72.1001C757.641 69.7667 752.332 66.0917 747.899 61.0751C743.465 56.0584 741.249 49.2917 741.249 40.7751C741.249 33.3084 743.291 26.6001 747.374 20.65C751.457 14.5834 757.524 9.80005 765.574 6.30005C773.741 2.80005 783.716 1.05005 795.499 1.05005C803.549 1.05005 811.482 1.98338 819.299 3.85005C827.115 5.60005 833.999 8.22505 839.949 11.725L829.274 37.4501C817.607 31.1501 806.291 28.0001 795.324 28.0001C788.441 28.0001 783.424 29.0501 780.274 31.15C777.124 33.1334 775.549 35.7584 775.549 39.0251C775.549 42.2917 777.415 44.7417 781.149 46.3751C784.882 48.0084 790.89 49.7001 799.174 51.4501C808.507 53.4334 816.207 55.5917 822.274 57.9251C828.457 60.1417 833.766 63.7584 838.199 68.7751C842.749 73.6751 845.024 80.3834 845.024 88.9001C845.024 96.2501 842.982 102.9 838.899 108.85C834.815 114.8 828.69 119.583 820.524 123.2C812.357 126.7 802.44 128.45 790.774 128.45Z"/>
</mask>
<path d="M68.6582 128.45C55.8249 128.45 44.2749 125.767 34.0082 120.4C23.8582 114.917 15.8665 107.333 10.0332 97.6501C4.19987 87.9667 1.2832 77.0001 1.2832 64.7501C1.2832 52.5001 4.19987 41.5334 10.0332 31.85C15.8665 22.1667 23.8582 14.6417 34.0082 9.27505C44.2749 3.79172 55.8249 1.05005 68.6582 1.05005C79.8582 1.05005 89.9499 3.03338 98.9332 7.00006C107.917 10.9667 115.383 16.6834 121.333 24.1501L99.2832 44.1001C91.3499 34.5334 81.7249 29.7501 70.4082 29.7501C63.7582 29.7501 57.8082 31.2084 52.5582 34.125C47.4249 37.0417 43.3999 41.1834 40.4832 46.5501C37.6832 51.8001 36.2832 57.8667 36.2832 64.7501C36.2832 71.6334 37.6832 77.7584 40.4832 83.1251C43.3999 88.3751 47.4249 92.4584 52.5582 95.3751C57.8082 98.2917 63.7582 99.7501 70.4082 99.7501C81.7249 99.7501 91.3499 94.9667 99.2832 85.4001L121.333 105.35C115.383 112.817 107.917 118.533 98.9332 122.5C89.9499 126.467 79.8582 128.45 68.6582 128.45ZM140.282 3.50005H174.932V98.5251H233.382V126H140.282V3.50005ZM334.036 102.2H282.236L272.611 126H237.261L291.336 3.50005H325.461L379.711 126H343.661L334.036 102.2ZM323.886 76.6501L308.136 37.4501L292.386 76.6501H323.886ZM436.084 128.45C426.168 128.45 416.543 127.225 407.209 124.775C397.876 122.325 390.293 119.058 384.459 114.975L395.834 89.4251C401.318 93.0417 407.676 95.9584 414.909 98.1751C422.143 100.392 429.259 101.5 436.259 101.5C449.559 101.5 456.209 98.1751 456.209 91.5251C456.209 88.0251 454.284 85.4584 450.434 83.8251C446.701 82.0751 440.634 80.2667 432.234 78.4001C423.018 76.4167 415.318 74.3167 409.134 72.1001C402.951 69.7667 397.643 66.0917 393.209 61.0751C388.776 56.0584 386.559 49.2917 386.559 40.7751C386.559 33.3084 388.601 26.6001 392.684 20.65C396.768 14.5834 402.834 9.80005 410.884 6.30005C419.051 2.80005 429.026 1.05005 440.809 1.05005C448.859 1.05005 456.793 1.98338 464.609 3.85005C472.426 5.60005 479.309 8.22505 485.259 11.725L474.584 37.4501C462.918 31.1501 451.601 28.0001 440.634 28.0001C433.751 28.0001 428.734 29.0501 425.584 31.15C422.434 33.1334 420.859 35.7584 420.859 39.0251C420.859 42.2917 422.726 44.7417 426.459 46.3751C430.193 48.0084 436.201 49.7001 444.484 51.4501C453.818 53.4334 461.518 55.5917 467.584 57.9251C473.768 60.1417 479.076 63.7584 483.509 68.7751C488.059 73.6751 490.334 80.3834 490.334 88.9001C490.334 96.2501 488.293 102.9 484.209 108.85C480.126 114.8 474.001 119.583 465.834 123.2C457.668 126.7 447.751 128.45 436.084 128.45ZM552.89 128.45C542.973 128.45 533.348 127.225 524.015 124.775C514.682 122.325 507.098 119.058 501.265 114.975L512.64 89.4251C518.123 93.0417 524.482 95.9584 531.715 98.1751C538.948 100.392 546.065 101.5 553.065 101.5C566.365 101.5 573.015 98.1751 573.015 91.5251C573.015 88.0251 571.09 85.4584 567.24 83.8251C563.507 82.0751 557.44 80.2667 549.04 78.4001C539.823 76.4167 532.123 74.3167 525.94 72.1001C519.757 69.7667 514.448 66.0917 510.015 61.0751C505.582 56.0584 503.365 49.2917 503.365 40.7751C503.365 33.3084 505.407 26.6001 509.49 20.65C513.573 14.5834 519.64 9.80005 527.69 6.30005C535.857 2.80005 545.832 1.05005 557.615 1.05005C565.665 1.05005 573.598 1.98338 581.415 3.85005C589.232 5.60005 596.115 8.22505 602.065 11.725L591.39 37.4501C579.723 31.1501 568.407 28.0001 557.44 28.0001C550.557 28.0001 545.54 29.0501 542.39 31.15C539.24 33.1334 537.665 35.7584 537.665 39.0251C537.665 42.2917 539.532 44.7417 543.265 46.3751C546.998 48.0084 553.007 49.7001 561.29 51.4501C570.623 53.4334 578.323 55.5917 584.39 57.9251C590.573 60.1417 595.882 63.7584 600.315 68.7751C604.865 73.6751 607.14 80.3834 607.14 88.9001C607.14 96.2501 605.098 102.9 601.015 108.85C596.932 114.8 590.807 119.583 582.64 123.2C574.473 126.7 564.557 128.45 552.89 128.45ZM724.996 99.2251V126H626.646V3.50005H722.721V30.275H660.946V50.9251H715.371V76.8251H660.946V99.2251H724.996ZM790.774 128.45C780.857 128.45 771.232 127.225 761.899 124.775C752.565 122.325 744.982 119.058 739.149 114.975L750.524 89.4251C756.007 93.0417 762.365 95.9584 769.599 98.1751C776.832 100.392 783.949 101.5 790.949 101.5C804.249 101.5 810.899 98.1751 810.899 91.5251C810.899 88.0251 808.974 85.4584 805.124 83.8251C801.391 82.0751 795.324 80.2667 786.924 78.4001C777.707 76.4167 770.007 74.3167 763.824 72.1001C757.641 69.7667 752.332 66.0917 747.899 61.0751C743.465 56.0584 741.249 49.2917 741.249 40.7751C741.249 33.3084 743.291 26.6001 747.374 20.65C751.457 14.5834 757.524 9.80005 765.574 6.30005C773.741 2.80005 783.716 1.05005 795.499 1.05005C803.549 1.05005 811.482 1.98338 819.299 3.85005C827.115 5.60005 833.999 8.22505 839.949 11.725L829.274 37.4501C817.607 31.1501 806.291 28.0001 795.324 28.0001C788.441 28.0001 783.424 29.0501 780.274 31.15C777.124 33.1334 775.549 35.7584 775.549 39.0251C775.549 42.2917 777.415 44.7417 781.149 46.3751C784.882 48.0084 790.89 49.7001 799.174 51.4501C808.507 53.4334 816.207 55.5917 822.274 57.9251C828.457 60.1417 833.766 63.7584 838.199 68.7751C842.749 73.6751 845.024 80.3834 845.024 88.9001C845.024 96.2501 842.982 102.9 838.899 108.85C834.815 114.8 828.69 119.583 820.524 123.2C812.357 126.7 802.44 128.45 790.774 128.45Z" stroke="#3D3D3D" stroke-width="2" mask="url(#path-1-outside-1)"/>
</svg>
