<svg width="256" height="256" viewBox="0 0 256 256" fill="none" xmlns="http://www.w3.org/2000/svg">
<rect width="256" height="256" fill="#141414"/>
<path d="M85.9016 80V77.581L83.9941 79.0687L75.1643 85.9552L74.7095 86.3099V86.8866V165.174V165.749L75.1623 166.104L83.9922 173.02L85.9016 174.516V172.09V80Z" fill="white" stroke="white" stroke-width="2.3622"/>
<path d="M170.036 80V77.581L171.943 79.0687L180.773 85.9552L181.228 86.3099V86.8866V165.174V165.749L180.775 166.104L171.945 173.02L170.036 174.516V172.09V80Z" fill="white" stroke="white" stroke-width="2.3622"/>
<path d="M63.9668 92.8691V90.4493L62.0591 91.938L53.2265 98.8308L52.772 99.1855L52.772 99.7621L53.9531 99.7619C52.772 99.7621 52.772 99.7622 52.772 99.7625L52.772 99.7637L52.772 99.7685L52.772 99.7877L52.772 99.8638L52.7721 100.162L52.7722 101.311L52.7726 105.543L52.774 119.56C52.775 130.54 52.776 143.682 52.776 152.33V152.906L53.2297 153.261L62.0584 160.162L63.9668 161.653V159.231V92.8691Z" fill="white" stroke="white" stroke-width="2.3622"/>
<path d="M191.971 92.8672V90.4473L193.878 91.9361L202.711 98.8288L203.166 99.1836L203.165 99.7601L201.984 99.76C203.165 99.7601 203.165 99.7602 203.165 99.7605L203.165 99.7617L203.165 99.7665L203.165 99.7857L203.165 99.8618L203.165 100.16L203.165 101.309L203.165 105.541L203.163 119.558C203.162 130.538 203.161 143.68 203.161 152.328V152.904L202.708 153.259L193.879 160.16L191.971 161.652V159.229V92.8672Z" fill="white" stroke="white" stroke-width="2.3622"/>
<rect x="96.7095" y="119.063" width="62.509" height="11.1952" fill="white" stroke="white" stroke-width="2.3622"/>
<path d="M31.2721 111.687L30.8189 112.041V112.617V139.408V139.98L31.2678 140.335L40.1008 147.313L42.0141 148.825V146.387V105.705V103.281L40.1051 104.775L31.2721 111.687Z" fill="white" stroke="white" stroke-width="2.3622"/>
<path d="M224.728 111.685L225.181 112.039V112.615V139.406V139.978L224.732 140.333L215.899 147.311L213.986 148.823V146.385V105.703V103.279L215.895 104.773L224.728 111.685Z" fill="white" stroke="white" stroke-width="2.3622"/>
</svg>
