<svg width="636" height="130" viewBox="0 0 636 130" fill="none" xmlns="http://www.w3.org/2000/svg">
<path fill-rule="evenodd" clip-rule="evenodd" d="M0.440308 115.321L12.6303 87.9407L13.6148 88.59C19.0075 92.1469 25.2765 95.0258 32.4322 97.2187C39.5782 99.4086 46.5962 100.5 53.4892 100.5C60.0881 100.5 64.8884 99.6697 68.0045 98.1116C69.5483 97.3397 70.6462 96.4053 71.3603 95.3342C72.0702 94.2693 72.4392 93.0123 72.4392 91.5248C72.4392 89.9704 72.0162 88.6691 71.1954 87.5748C70.3662 86.4692 69.0843 85.5136 67.2736 84.7454L67.2566 84.7382L67.2398 84.7303C63.6121 83.0298 57.637 81.2405 49.2505 79.3767C40.009 77.3879 32.2644 75.2773 26.0267 73.0411L26.0189 73.0383L26.0111 73.0354C19.6733 70.6438 14.2296 66.8741 9.68985 61.737C5.05479 56.4921 2.78917 49.467 2.78917 40.7748C2.78917 33.1151 4.88703 26.2094 9.0871 20.0877C13.2966 13.8354 19.5276 8.94267 27.7155 5.38274L27.7203 5.38065C36.0449 1.81297 46.1623 0.0498047 58.0392 0.0498047C66.1649 0.0498047 74.1739 0.991739 82.0646 2.87551C89.964 4.64468 96.9452 7.30348 102.996 10.8629L103.746 11.3042L92.3134 38.8559L91.339 38.3297C79.788 32.0922 68.6336 28.9998 57.8642 28.9998C51.0386 28.9998 46.2678 30.0492 43.3689 31.9819L43.358 31.9891L43.347 31.996C40.4399 33.8264 39.0892 36.1548 39.0892 39.0248C39.0892 40.4534 39.4923 41.6664 40.2846 42.7063C41.0869 43.7593 42.3305 44.6889 44.09 45.4587C47.7246 47.0488 53.649 48.7238 61.9209 50.4714L61.922 50.4716C71.28 52.4602 79.0315 54.6302 85.1625 56.9874C91.4992 59.261 96.942 62.9707 101.48 68.1034C106.24 73.2341 108.564 80.2076 108.564 88.8998C108.564 96.4478 106.464 103.296 102.264 109.416C98.0531 115.551 91.7651 120.44 83.4691 124.114L83.4581 124.119C75.1346 127.686 65.0759 129.45 53.3142 129.45C43.3142 129.45 33.6038 128.214 24.1853 125.742C14.7755 123.272 7.07364 119.965 1.11571 115.794L0.440308 115.321ZM100.739 68.7748C96.3058 63.7581 90.9975 60.1415 84.8142 57.9248C78.7475 55.5915 71.0475 53.4331 61.7142 51.4498C53.4308 49.6998 47.4225 48.0081 43.6892 46.3748C39.9558 44.7415 38.0892 42.2915 38.0892 39.0248C38.0892 35.7581 39.6642 33.1331 42.8142 31.1498C45.9642 29.0498 50.9808 27.9998 57.8642 27.9998C68.5529 27.9998 79.5741 30.9922 90.9278 36.9768C91.223 37.1325 91.5185 37.2901 91.8142 37.4498L102.489 11.7248C96.5392 8.22481 89.6558 5.59981 81.8392 3.84981C74.0225 1.98314 66.0892 1.0498 58.0392 1.0498C46.2558 1.0498 36.2808 2.79981 28.1142 6.29981C20.0642 9.79981 13.9975 14.5831 9.91418 20.6498C5.83084 26.5998 3.78917 33.3081 3.78917 40.7748C3.78917 49.2915 6.00584 56.0581 10.4392 61.0748C14.8725 66.0915 20.1808 69.7665 26.3642 72.0998C32.5475 74.3165 40.2475 76.4165 49.4642 78.3998C57.8642 80.2665 63.9309 82.0748 67.6642 83.8248C71.5142 85.4581 73.4392 88.0248 73.4392 91.5248C73.4392 98.1748 66.7892 101.5 53.4892 101.5C46.4892 101.5 39.3725 100.391 32.1392 98.1748C25.2764 96.0717 19.2013 93.3385 13.9138 89.9751C13.6283 89.7935 13.3451 89.6101 13.0642 89.4248L1.68918 114.975C7.52251 119.058 15.1058 122.325 24.4392 124.775C33.7725 127.225 43.3975 128.45 53.3142 128.45C64.9808 128.45 74.8975 126.7 83.0642 123.2C91.2309 119.583 97.3559 114.8 101.439 108.85C105.523 102.9 107.564 96.2498 107.564 88.8998C107.564 80.3831 105.289 73.6748 100.739 68.7748ZM112.811 31.9748V2.4998H224.536V31.9748H187.086V127H150.436V31.9748H112.811ZM151.436 30.9748V126H186.086V30.9748H223.536V3.4998H113.811V30.9748H151.436ZM264.544 121.109L264.54 121.107C254.121 115.542 245.879 107.837 239.834 97.9983L239.829 97.9908C233.895 88.1403 230.936 77.0511 230.936 64.7498C230.936 52.4485 233.895 41.3593 239.829 31.5088L239.834 31.5013C245.879 21.663 254.121 13.9576 264.54 8.39273L264.544 8.39052C275.086 2.82361 286.915 0.0498047 300.011 0.0498047C313.105 0.0498047 324.877 2.82298 335.304 8.39097C345.839 13.9548 354.083 21.6606 360.014 31.5031C366.067 41.3542 369.086 52.4453 369.086 64.7498C369.086 77.0542 366.067 88.1454 360.014 97.9965C354.083 107.839 345.839 115.545 335.303 121.109C324.877 126.677 313.105 129.45 300.011 129.45C286.915 129.45 275.086 126.676 264.544 121.109ZM334.836 120.225C345.219 114.741 353.328 107.158 359.161 97.4748C365.111 87.7915 368.086 76.8831 368.086 64.7498C368.086 52.6165 365.111 41.7081 359.161 32.0248C353.328 22.3415 345.219 14.7581 334.836 9.2748C324.569 3.79147 312.961 1.0498 300.011 1.0498C287.061 1.0498 275.394 3.79147 265.011 9.2748C254.744 14.7581 246.636 22.3415 240.686 32.0248C234.853 41.7081 231.936 52.6165 231.936 64.7498C231.936 76.8831 234.853 87.7915 240.686 97.4748C246.636 107.158 254.744 114.741 265.011 120.225C275.394 125.708 287.061 128.45 300.011 128.45C312.961 128.45 324.569 125.708 334.836 120.225ZM327.837 47.0354L327.832 47.0273C324.998 41.8128 321.158 37.8089 316.308 34.9893C311.454 32.1672 306.03 30.7498 300.011 30.7498C293.992 30.7498 288.567 32.1672 283.714 34.9893C278.864 37.8089 275.023 41.8128 272.189 47.0273L272.185 47.0355C269.362 52.1164 267.936 58.0113 267.936 64.7498C267.936 71.4868 269.362 77.4431 272.188 82.6448C275.02 87.7403 278.86 91.6885 283.714 94.5103C288.567 97.3324 293.992 98.7498 300.011 98.7498C306.03 98.7498 311.454 97.3324 316.308 94.5103C321.162 91.6885 325.001 87.7405 327.833 82.645C330.66 77.4432 332.086 71.4868 332.086 64.7498C332.086 58.0113 330.659 52.1164 327.837 47.0354ZM328.711 83.1248C325.794 88.3748 321.828 92.4581 316.811 95.3748C311.794 98.2915 306.194 99.7498 300.011 99.7498C293.828 99.7498 288.228 98.2915 283.211 95.3748C278.194 92.4581 274.228 88.3748 271.311 83.1248C268.394 77.7581 266.936 71.6331 266.936 64.7498C266.936 57.8665 268.394 51.7998 271.311 46.5498C274.228 41.1831 278.194 37.0415 283.211 34.1248C288.228 31.2081 293.828 29.7498 300.011 29.7498C306.194 29.7498 311.794 31.2081 316.811 34.1248C321.828 37.0415 325.794 41.1831 328.711 46.5498C331.628 51.7998 333.086 57.8665 333.086 64.7498C333.086 71.6331 331.628 77.7581 328.711 83.1248ZM465.509 126L443.284 93.4498H424.384V126H389.734V3.4998H445.734C456.817 3.4998 466.442 5.36647 474.609 9.09981C482.776 12.7165 489.076 17.9665 493.509 24.8498C497.942 31.6165 500.159 39.6081 500.159 48.8248C500.159 57.6915 498.059 65.4498 493.859 72.0998C489.937 78.3749 484.347 83.3585 477.088 87.0506C476.79 87.2025 476.488 87.3522 476.184 87.4998L502.609 126H465.509ZM477.659 87.882L504.508 127H464.981L442.756 94.4498H425.384V127H388.734V2.4998H445.734C456.926 2.4998 466.697 4.38428 475.019 8.18791C483.344 11.8758 489.801 17.2466 494.349 24.3067C498.901 31.257 501.159 39.4436 501.159 48.8248C501.159 57.8555 499.018 65.8039 494.705 72.6333M586.691 82.0748V126H552.041V81.5498L505.316 3.4998H541.891L570.941 52.1498L599.991 3.4998H633.591L586.691 82.0748ZM570.941 50.1993L542.458 2.4998H503.552L551.041 81.8263V127H587.691V82.3505L635.352 2.4998H599.423L570.941 50.1993ZM464.159 48.8248C464.159 43.3364 462.434 39.2023 459.077 36.2789C455.713 33.3489 450.623 31.7998 443.634 31.7998H425.384V65.6748H443.634C450.626 65.6748 455.72 64.1828 459.084 61.3644C462.436 58.4413 464.159 54.3092 464.159 48.8248ZM459.734 62.1248C456.117 65.1581 450.751 66.6748 443.634 66.6748H424.384V30.7998H443.634C450.751 30.7998 456.117 32.3748 459.734 35.5248C463.351 38.6748 465.159 43.1081 465.159 48.8248C465.159 54.5415 463.351 58.9748 459.734 62.1248Z" fill="#E1E1E1"/>
</svg>
