<svg width="1421" height="130" viewBox="0 0 1421 130" fill="none" xmlns="http://www.w3.org/2000/svg">
<mask id="path-1-outside-1" maskUnits="userSpaceOnUse" x="0.907959" y="0.0498047" width="1420" height="130" fill="black">
<rect fill="white" x="0.907959" y="0.0498047" width="1420" height="130"/>
<path d="M39.533 30.9748H1.90796V3.4998H111.633V30.9748H74.183V126H39.533V30.9748ZM226.392 99.2248V126H128.042V3.4998H224.117V30.2748H162.342V50.9248H216.767V76.8248H162.342V99.2248H226.392ZM292.17 128.45C282.253 128.45 272.628 127.225 263.295 124.775C253.962 122.325 246.378 119.058 240.545 114.975L251.92 89.4248C257.403 93.0415 263.762 95.9581 270.995 98.1748C278.228 100.391 285.345 101.5 292.345 101.5C305.645 101.5 312.295 98.1748 312.295 91.5248C312.295 88.0248 310.37 85.4581 306.52 83.8248C302.787 82.0748 296.72 80.2665 288.32 78.3998C279.103 76.4165 271.403 74.3165 265.22 72.0998C259.037 69.7665 253.728 66.0915 249.295 61.0748C244.862 56.0581 242.645 49.2915 242.645 40.7748C242.645 33.3081 244.687 26.5998 248.77 20.6498C252.853 14.5831 258.92 9.79981 266.97 6.29981C275.137 2.79981 285.112 1.0498 296.895 1.0498C304.945 1.0498 312.878 1.98314 320.695 3.84981C328.512 5.59981 335.395 8.22481 341.345 11.7248L330.67 37.4498C319.003 31.1498 307.687 27.9998 296.72 27.9998C289.837 27.9998 284.82 29.0498 281.67 31.1498C278.52 33.1331 276.945 35.7581 276.945 39.0248C276.945 42.2915 278.812 44.7415 282.545 46.3748C286.278 48.0081 292.287 49.6998 300.57 51.4498C309.903 53.4331 317.603 55.5915 323.67 57.9248C329.853 60.1415 335.162 63.7581 339.595 68.7748C344.145 73.6748 346.42 80.3831 346.42 88.8998C346.42 96.2498 344.378 102.9 340.295 108.85C336.212 114.8 330.087 119.583 321.92 123.2C313.753 126.7 303.837 128.45 292.17 128.45ZM390.292 30.9748H352.667V3.4998H462.392V30.9748H424.942V126H390.292V30.9748ZM478.801 3.4998H513.451V126H478.801V3.4998ZM652.203 126L651.852 61.0748L620.352 113.925H604.953L573.628 62.8248V126H541.602V3.4998H570.128L613.177 74.1998L655.177 3.4998H683.703L684.052 126H652.203ZM773.845 128.45C760.895 128.45 749.229 125.708 738.845 120.225C728.579 114.741 720.47 107.158 714.52 97.4748C708.687 87.7915 705.77 76.8831 705.77 64.7498C705.77 52.6165 708.687 41.7081 714.52 32.0248C720.47 22.3415 728.579 14.7581 738.845 9.2748C749.229 3.79147 760.895 1.0498 773.845 1.0498C786.795 1.0498 798.404 3.79147 808.67 9.2748C819.054 14.7581 827.162 22.3415 832.995 32.0248C838.945 41.7081 841.92 52.6165 841.92 64.7498C841.92 76.8831 838.945 87.7915 832.995 97.4748C827.162 107.158 819.054 114.741 808.67 120.225C798.404 125.708 786.795 128.45 773.845 128.45ZM773.845 99.7498C780.029 99.7498 785.629 98.2915 790.645 95.3748C795.662 92.4581 799.629 88.3748 802.545 83.1248C805.462 77.7581 806.92 71.6331 806.92 64.7498C806.92 57.8665 805.462 51.7998 802.545 46.5498C799.629 41.1831 795.662 37.0415 790.645 34.1248C785.629 31.2081 780.029 29.7498 773.845 29.7498C767.662 29.7498 762.062 31.2081 757.045 34.1248C752.029 37.0415 748.062 41.1831 745.145 46.5498C742.229 51.7998 740.77 57.8665 740.77 64.7498C740.77 71.6331 742.229 77.7581 745.145 83.1248C748.062 88.3748 752.029 92.4581 757.045 95.3748C762.062 98.2915 767.662 99.7498 773.845 99.7498ZM980.118 3.4998V126H951.593L897.518 60.7248V126H863.568V3.4998H892.093L946.168 68.7748V3.4998H980.118ZM1008.06 3.4998H1042.71V126H1008.06V3.4998ZM1152.94 102.2H1101.14L1091.51 126H1056.16L1110.24 3.4998H1144.36L1198.61 126H1162.56L1152.94 102.2ZM1142.79 76.6498L1127.04 37.4498L1111.29 76.6498H1142.79ZM1211.93 3.4998H1246.58V98.5248H1305.03V126H1211.93V3.4998ZM1364.95 128.45C1355.04 128.45 1345.41 127.225 1336.08 124.775C1326.75 122.325 1319.16 119.058 1313.33 114.975L1324.7 89.4248C1330.19 93.0415 1336.55 95.9581 1343.78 98.1748C1351.01 100.391 1358.13 101.5 1365.13 101.5C1378.43 101.5 1385.08 98.1748 1385.08 91.5248C1385.08 88.0248 1383.15 85.4581 1379.3 83.8248C1375.57 82.0748 1369.5 80.2665 1361.1 78.3998C1351.89 76.4165 1344.19 74.3165 1338 72.0998C1331.82 69.7665 1326.51 66.0915 1322.08 61.0748C1317.65 56.0581 1315.43 49.2915 1315.43 40.7748C1315.43 33.3081 1317.47 26.5998 1321.55 20.6498C1325.64 14.5831 1331.7 9.79981 1339.75 6.29981C1347.92 2.79981 1357.9 1.0498 1369.68 1.0498C1377.73 1.0498 1385.66 1.98314 1393.48 3.84981C1401.3 5.59981 1408.18 8.22481 1414.13 11.7248L1403.45 37.4498C1391.79 31.1498 1380.47 27.9998 1369.5 27.9998C1362.62 27.9998 1357.6 29.0498 1354.45 31.1498C1351.3 33.1331 1349.73 35.7581 1349.73 39.0248C1349.73 42.2915 1351.6 44.7415 1355.33 46.3748C1359.06 48.0081 1365.07 49.6998 1373.35 51.4498C1382.69 53.4331 1390.39 55.5915 1396.45 57.9248C1402.64 60.1415 1407.95 63.7581 1412.38 68.7748C1416.93 73.6748 1419.2 80.3831 1419.2 88.8998C1419.2 96.2498 1417.16 102.9 1413.08 108.85C1409 114.8 1402.87 119.583 1394.7 123.2C1386.54 126.7 1376.62 128.45 1364.95 128.45Z"/>
</mask>
<path d="M39.533 30.9748H1.90796V3.4998H111.633V30.9748H74.183V126H39.533V30.9748ZM226.392 99.2248V126H128.042V3.4998H224.117V30.2748H162.342V50.9248H216.767V76.8248H162.342V99.2248H226.392ZM292.17 128.45C282.253 128.45 272.628 127.225 263.295 124.775C253.962 122.325 246.378 119.058 240.545 114.975L251.92 89.4248C257.403 93.0415 263.762 95.9581 270.995 98.1748C278.228 100.391 285.345 101.5 292.345 101.5C305.645 101.5 312.295 98.1748 312.295 91.5248C312.295 88.0248 310.37 85.4581 306.52 83.8248C302.787 82.0748 296.72 80.2665 288.32 78.3998C279.103 76.4165 271.403 74.3165 265.22 72.0998C259.037 69.7665 253.728 66.0915 249.295 61.0748C244.862 56.0581 242.645 49.2915 242.645 40.7748C242.645 33.3081 244.687 26.5998 248.77 20.6498C252.853 14.5831 258.92 9.79981 266.97 6.29981C275.137 2.79981 285.112 1.0498 296.895 1.0498C304.945 1.0498 312.878 1.98314 320.695 3.84981C328.512 5.59981 335.395 8.22481 341.345 11.7248L330.67 37.4498C319.003 31.1498 307.687 27.9998 296.72 27.9998C289.837 27.9998 284.82 29.0498 281.67 31.1498C278.52 33.1331 276.945 35.7581 276.945 39.0248C276.945 42.2915 278.812 44.7415 282.545 46.3748C286.278 48.0081 292.287 49.6998 300.57 51.4498C309.903 53.4331 317.603 55.5915 323.67 57.9248C329.853 60.1415 335.162 63.7581 339.595 68.7748C344.145 73.6748 346.42 80.3831 346.42 88.8998C346.42 96.2498 344.378 102.9 340.295 108.85C336.212 114.8 330.087 119.583 321.92 123.2C313.753 126.7 303.837 128.45 292.17 128.45ZM390.292 30.9748H352.667V3.4998H462.392V30.9748H424.942V126H390.292V30.9748ZM478.801 3.4998H513.451V126H478.801V3.4998ZM652.203 126L651.852 61.0748L620.352 113.925H604.953L573.628 62.8248V126H541.602V3.4998H570.128L613.177 74.1998L655.177 3.4998H683.703L684.052 126H652.203ZM773.845 128.45C760.895 128.45 749.229 125.708 738.845 120.225C728.579 114.741 720.47 107.158 714.52 97.4748C708.687 87.7915 705.77 76.8831 705.77 64.7498C705.77 52.6165 708.687 41.7081 714.52 32.0248C720.47 22.3415 728.579 14.7581 738.845 9.2748C749.229 3.79147 760.895 1.0498 773.845 1.0498C786.795 1.0498 798.404 3.79147 808.67 9.2748C819.054 14.7581 827.162 22.3415 832.995 32.0248C838.945 41.7081 841.92 52.6165 841.92 64.7498C841.92 76.8831 838.945 87.7915 832.995 97.4748C827.162 107.158 819.054 114.741 808.67 120.225C798.404 125.708 786.795 128.45 773.845 128.45ZM773.845 99.7498C780.029 99.7498 785.629 98.2915 790.645 95.3748C795.662 92.4581 799.629 88.3748 802.545 83.1248C805.462 77.7581 806.92 71.6331 806.92 64.7498C806.92 57.8665 805.462 51.7998 802.545 46.5498C799.629 41.1831 795.662 37.0415 790.645 34.1248C785.629 31.2081 780.029 29.7498 773.845 29.7498C767.662 29.7498 762.062 31.2081 757.045 34.1248C752.029 37.0415 748.062 41.1831 745.145 46.5498C742.229 51.7998 740.77 57.8665 740.77 64.7498C740.77 71.6331 742.229 77.7581 745.145 83.1248C748.062 88.3748 752.029 92.4581 757.045 95.3748C762.062 98.2915 767.662 99.7498 773.845 99.7498ZM980.118 3.4998V126H951.593L897.518 60.7248V126H863.568V3.4998H892.093L946.168 68.7748V3.4998H980.118ZM1008.06 3.4998H1042.71V126H1008.06V3.4998ZM1152.94 102.2H1101.14L1091.51 126H1056.16L1110.24 3.4998H1144.36L1198.61 126H1162.56L1152.94 102.2ZM1142.79 76.6498L1127.04 37.4498L1111.29 76.6498H1142.79ZM1211.93 3.4998H1246.58V98.5248H1305.03V126H1211.93V3.4998ZM1364.95 128.45C1355.04 128.45 1345.41 127.225 1336.08 124.775C1326.75 122.325 1319.16 119.058 1313.33 114.975L1324.7 89.4248C1330.19 93.0415 1336.55 95.9581 1343.78 98.1748C1351.01 100.391 1358.13 101.5 1365.13 101.5C1378.43 101.5 1385.08 98.1748 1385.08 91.5248C1385.08 88.0248 1383.15 85.4581 1379.3 83.8248C1375.57 82.0748 1369.5 80.2665 1361.1 78.3998C1351.89 76.4165 1344.19 74.3165 1338 72.0998C1331.82 69.7665 1326.51 66.0915 1322.08 61.0748C1317.65 56.0581 1315.43 49.2915 1315.43 40.7748C1315.43 33.3081 1317.47 26.5998 1321.55 20.6498C1325.64 14.5831 1331.7 9.79981 1339.75 6.29981C1347.92 2.79981 1357.9 1.0498 1369.68 1.0498C1377.73 1.0498 1385.66 1.98314 1393.48 3.84981C1401.3 5.59981 1408.18 8.22481 1414.13 11.7248L1403.45 37.4498C1391.79 31.1498 1380.47 27.9998 1369.5 27.9998C1362.62 27.9998 1357.6 29.0498 1354.45 31.1498C1351.3 33.1331 1349.73 35.7581 1349.73 39.0248C1349.73 42.2915 1351.6 44.7415 1355.33 46.3748C1359.06 48.0081 1365.07 49.6998 1373.35 51.4498C1382.69 53.4331 1390.39 55.5915 1396.45 57.9248C1402.64 60.1415 1407.95 63.7581 1412.38 68.7748C1416.93 73.6748 1419.2 80.3831 1419.2 88.8998C1419.2 96.2498 1417.16 102.9 1413.08 108.85C1409 114.8 1402.87 119.583 1394.7 123.2C1386.54 126.7 1376.62 128.45 1364.95 128.45Z" stroke="#E1E1E1" stroke-width="2" mask="url(#path-1-outside-1)"/>
</svg>
