<svg width="82" height="73" viewBox="0 0 82 73" fill="none" xmlns="http://www.w3.org/2000/svg">
<path d="M40.6442 1.25H39.8942V2V49.6358C39.8942 56.4103 34.4271 61.8774 27.6527 61.8774C20.8782 61.8774 15.4111 56.4103 15.4111 49.6358C15.4111 42.8614 20.8782 37.3942 27.6527 37.3942C29.1217 37.3942 30.4183 37.6365 31.7198 38.1246L32.7332 38.5046V37.4224V28.423V27.8006L32.1214 27.6859C30.7046 27.4202 29.1842 27.2332 27.6527 27.2332C15.2862 27.2332 5.25 37.2694 5.25 49.6358C5.25 62.0023 15.2862 72.0385 27.6527 72.0385C40.0191 72.0385 50.0553 62.0023 50.0553 49.6358V22.943C50.1069 22.999 50.1589 23.0555 50.2113 23.1125C50.388 23.3048 50.5697 23.5025 50.7613 23.7045C51.4273 24.4063 52.193 25.1324 53.1563 25.5703C60.1652 28.7562 67.9814 28.744 74.2731 28.7342C74.6162 28.7337 74.9548 28.7332 75.2885 28.7332H76.0385V27.9832V19.3221V18.5721H75.2885C72.0431 18.5721 68.6895 18.5259 65.569 18.2172C62.4415 17.9078 59.601 17.339 57.3632 16.3218C55.0929 15.2899 53.3065 14.0409 52.0637 11.9462C50.81 9.83317 50.0553 6.76817 50.0553 2V1.25H49.3053H40.6442Z" stroke="#626262" stroke-width="1.5"/>
</svg>
