<svg width="1128" height="130" viewBox="0 0 1128 130" fill="none" xmlns="http://www.w3.org/2000/svg">
<mask id="path-1-outside-1" maskUnits="userSpaceOnUse" x="0.430176" y="0.0500488" width="1127" height="130" fill="black">
<rect fill="white" x="0.430176" y="0.0500488" width="1127" height="130"/>
<path d="M1.43018 3.50005H36.0802V126H1.43018V3.50005ZM180.782 3.50005V126H152.257L98.1819 60.7251V126H64.2319V3.50005H92.7569L146.832 68.7751V3.50005H180.782ZM251.773 128.45C241.856 128.45 232.231 127.225 222.898 124.775C213.565 122.325 205.981 119.058 200.148 114.975L211.523 89.4251C217.006 93.0417 223.365 95.9584 230.598 98.1751C237.831 100.392 244.948 101.5 251.948 101.5C265.248 101.5 271.898 98.1751 271.898 91.5251C271.898 88.0251 269.973 85.4584 266.123 83.8251C262.39 82.0751 256.323 80.2667 247.923 78.4001C238.706 76.4167 231.006 74.3167 224.823 72.1001C218.64 69.7667 213.331 66.0917 208.898 61.0751C204.465 56.0584 202.248 49.2917 202.248 40.7751C202.248 33.3084 204.29 26.6001 208.373 20.65C212.456 14.5834 218.523 9.80005 226.573 6.30005C234.74 2.80005 244.715 1.05005 256.498 1.05005C264.548 1.05005 272.481 1.98338 280.298 3.85005C288.115 5.60005 294.998 8.22505 300.948 11.725L290.273 37.4501C278.606 31.1501 267.29 28.0001 256.323 28.0001C249.44 28.0001 244.423 29.0501 241.273 31.15C238.123 33.1334 236.548 35.7584 236.548 39.0251C236.548 42.2917 238.415 44.7417 242.148 46.3751C245.881 48.0084 251.89 49.7001 260.173 51.4501C269.506 53.4334 277.206 55.5917 283.273 57.9251C289.456 60.1417 294.765 63.7584 299.198 68.7751C303.748 73.6751 306.023 80.3834 306.023 88.9001C306.023 96.2501 303.981 102.9 299.898 108.85C295.815 114.8 289.69 119.583 281.523 123.2C273.356 126.7 263.44 128.45 251.773 128.45ZM349.895 30.975H312.27V3.50005H421.995V30.975H384.545V126H349.895V30.975ZM514.326 102.2H462.526L452.901 126H417.551L471.626 3.50005H505.751L560.001 126H523.951L514.326 102.2ZM504.176 76.6501L488.426 37.4501L472.676 76.6501H504.176ZM653.691 62.1251H684.316V112.875C677.316 117.892 669.266 121.742 660.166 124.425C651.066 127.108 641.966 128.45 632.866 128.45C620.032 128.45 608.482 125.767 598.216 120.4C587.949 114.917 579.899 107.333 574.066 97.6501C568.232 87.9667 565.316 77.0001 565.316 64.7501C565.316 52.5001 568.232 41.5334 574.066 31.85C579.899 22.1667 588.007 14.6417 598.391 9.27505C608.774 3.79172 620.499 1.05005 633.566 1.05005C644.999 1.05005 655.266 2.97505 664.366 6.82505C673.466 10.6751 681.049 16.2167 687.116 23.4501L665.066 43.4001C656.782 34.3001 646.866 29.7501 635.316 29.7501C624.816 29.7501 616.357 32.9584 609.941 39.375C603.524 45.6751 600.316 54.1334 600.316 64.7501C600.316 71.5167 601.774 77.5834 604.691 82.9501C607.607 88.2001 611.691 92.3417 616.941 95.3751C622.191 98.2917 628.199 99.7501 634.966 99.7501C641.616 99.7501 647.857 98.4084 653.691 95.7251V62.1251ZM763.334 93.4501H744.434V126H709.784V3.50005H765.784C776.867 3.50005 786.492 5.36672 794.659 9.10005C802.825 12.7167 809.125 17.9667 813.559 24.8501C817.992 31.6167 820.209 39.6084 820.209 48.8251C820.209 57.6917 818.109 65.4501 813.909 72.1001C809.825 78.6334 803.934 83.7667 796.234 87.5001L822.659 126H785.559L763.334 93.4501ZM785.209 48.8251C785.209 43.1084 783.4 38.6751 779.784 35.5251C776.167 32.3751 770.8 30.8001 763.684 30.8001H744.434V66.6751H763.684C770.8 66.6751 776.167 65.1584 779.784 62.1251C783.4 58.9751 785.209 54.5417 785.209 48.8251ZM924.9 102.2H873.1L863.475 126H828.125L882.2 3.50005H916.325L970.575 126H934.525L924.9 102.2ZM914.75 76.6501L899 37.4501L883.25 76.6501H914.75ZM1094.5 126L1094.15 61.0751L1062.65 113.925H1047.25L1015.92 62.8251V126H983.898V3.50005H1012.42L1055.47 74.2001L1097.47 3.50005H1126L1126.35 126H1094.5Z"/>
</mask>
<path d="M1.43018 3.50005H36.0802V126H1.43018V3.50005ZM180.782 3.50005V126H152.257L98.1819 60.7251V126H64.2319V3.50005H92.7569L146.832 68.7751V3.50005H180.782ZM251.773 128.45C241.856 128.45 232.231 127.225 222.898 124.775C213.565 122.325 205.981 119.058 200.148 114.975L211.523 89.4251C217.006 93.0417 223.365 95.9584 230.598 98.1751C237.831 100.392 244.948 101.5 251.948 101.5C265.248 101.5 271.898 98.1751 271.898 91.5251C271.898 88.0251 269.973 85.4584 266.123 83.8251C262.39 82.0751 256.323 80.2667 247.923 78.4001C238.706 76.4167 231.006 74.3167 224.823 72.1001C218.64 69.7667 213.331 66.0917 208.898 61.0751C204.465 56.0584 202.248 49.2917 202.248 40.7751C202.248 33.3084 204.29 26.6001 208.373 20.65C212.456 14.5834 218.523 9.80005 226.573 6.30005C234.74 2.80005 244.715 1.05005 256.498 1.05005C264.548 1.05005 272.481 1.98338 280.298 3.85005C288.115 5.60005 294.998 8.22505 300.948 11.725L290.273 37.4501C278.606 31.1501 267.29 28.0001 256.323 28.0001C249.44 28.0001 244.423 29.0501 241.273 31.15C238.123 33.1334 236.548 35.7584 236.548 39.0251C236.548 42.2917 238.415 44.7417 242.148 46.3751C245.881 48.0084 251.89 49.7001 260.173 51.4501C269.506 53.4334 277.206 55.5917 283.273 57.9251C289.456 60.1417 294.765 63.7584 299.198 68.7751C303.748 73.6751 306.023 80.3834 306.023 88.9001C306.023 96.2501 303.981 102.9 299.898 108.85C295.815 114.8 289.69 119.583 281.523 123.2C273.356 126.7 263.44 128.45 251.773 128.45ZM349.895 30.975H312.27V3.50005H421.995V30.975H384.545V126H349.895V30.975ZM514.326 102.2H462.526L452.901 126H417.551L471.626 3.50005H505.751L560.001 126H523.951L514.326 102.2ZM504.176 76.6501L488.426 37.4501L472.676 76.6501H504.176ZM653.691 62.1251H684.316V112.875C677.316 117.892 669.266 121.742 660.166 124.425C651.066 127.108 641.966 128.45 632.866 128.45C620.032 128.45 608.482 125.767 598.216 120.4C587.949 114.917 579.899 107.333 574.066 97.6501C568.232 87.9667 565.316 77.0001 565.316 64.7501C565.316 52.5001 568.232 41.5334 574.066 31.85C579.899 22.1667 588.007 14.6417 598.391 9.27505C608.774 3.79172 620.499 1.05005 633.566 1.05005C644.999 1.05005 655.266 2.97505 664.366 6.82505C673.466 10.6751 681.049 16.2167 687.116 23.4501L665.066 43.4001C656.782 34.3001 646.866 29.7501 635.316 29.7501C624.816 29.7501 616.357 32.9584 609.941 39.375C603.524 45.6751 600.316 54.1334 600.316 64.7501C600.316 71.5167 601.774 77.5834 604.691 82.9501C607.607 88.2001 611.691 92.3417 616.941 95.3751C622.191 98.2917 628.199 99.7501 634.966 99.7501C641.616 99.7501 647.857 98.4084 653.691 95.7251V62.1251ZM763.334 93.4501H744.434V126H709.784V3.50005H765.784C776.867 3.50005 786.492 5.36672 794.659 9.10005C802.825 12.7167 809.125 17.9667 813.559 24.8501C817.992 31.6167 820.209 39.6084 820.209 48.8251C820.209 57.6917 818.109 65.4501 813.909 72.1001C809.825 78.6334 803.934 83.7667 796.234 87.5001L822.659 126H785.559L763.334 93.4501ZM785.209 48.8251C785.209 43.1084 783.4 38.6751 779.784 35.5251C776.167 32.3751 770.8 30.8001 763.684 30.8001H744.434V66.6751H763.684C770.8 66.6751 776.167 65.1584 779.784 62.1251C783.4 58.9751 785.209 54.5417 785.209 48.8251ZM924.9 102.2H873.1L863.475 126H828.125L882.2 3.50005H916.325L970.575 126H934.525L924.9 102.2ZM914.75 76.6501L899 37.4501L883.25 76.6501H914.75ZM1094.5 126L1094.15 61.0751L1062.65 113.925H1047.25L1015.92 62.8251V126H983.898V3.50005H1012.42L1055.47 74.2001L1097.47 3.50005H1126L1126.35 126H1094.5Z" stroke="#E1E1E1" stroke-width="2" mask="url(#path-1-outside-1)"/>
</svg>
