<svg width="502" height="157" viewBox="0 0 502 157" fill="none" xmlns="http://www.w3.org/2000/svg">
<path d="M36.3185 30.275V29.275H35.3185V30.275H36.3185ZM36.3185 57.225H35.3185V58.225H36.3185V57.225ZM90.3935 57.225H91.3935V56.225H90.3935V57.225ZM90.3935 84V85H91.3935V84H90.3935ZM36.3185 84V83H35.3185V84H36.3185ZM36.3185 126V127H37.3185V126H36.3185ZM1.66846 126H0.668457V127H1.66846V126ZM1.66846 3.49999V2.49999H0.668457V3.49999H1.66846ZM97.7435 3.49999H98.7435V2.49999H97.7435V3.49999ZM97.7435 30.275V31.275H98.7435V30.275H97.7435ZM35.3185 30.275V57.225H37.3185V30.275H35.3185ZM36.3185 58.225H90.3935V56.225H36.3185V58.225ZM89.3935 57.225V84H91.3935V57.225H89.3935ZM90.3935 83H36.3185V85H90.3935V83ZM35.3185 84V126H37.3185V84H35.3185ZM36.3185 125H1.66846V127H36.3185V125ZM2.66846 126V3.49999H0.668457V126H2.66846ZM1.66846 4.49999H97.7435V2.49999H1.66846V4.49999ZM96.7435 3.49999V30.275H98.7435V3.49999H96.7435ZM97.7435 29.275H36.3185V31.275H97.7435V29.275ZM194.739 102.2L195.666 101.825L195.413 101.2H194.739V102.2ZM142.939 102.2V101.2H142.264L142.012 101.825L142.939 102.2ZM133.314 126V127H133.988L134.241 126.375L133.314 126ZM97.9636 126L97.0487 125.596L96.429 127H97.9636V126ZM152.039 3.49999V2.49999H151.387L151.124 3.09616L152.039 3.49999ZM186.164 3.49999L187.078 3.09507L186.814 2.49999H186.164V3.49999ZM240.414 126V127H241.95L241.328 125.595L240.414 126ZM204.364 126L203.437 126.375L203.689 127H204.364V126ZM184.589 76.65V77.65H186.068L185.516 76.2772L184.589 76.65ZM168.839 37.45L169.766 37.0772L168.839 34.7677L167.911 37.0772L168.839 37.45ZM153.089 76.65L152.161 76.2772L151.609 77.65H153.089V76.65ZM194.739 101.2H142.939V103.2H194.739V101.2ZM142.012 101.825L132.387 125.625L134.241 126.375L143.866 102.575L142.012 101.825ZM133.314 125H97.9636V127H133.314V125ZM98.8784 126.404L152.953 3.90382L151.124 3.09616L97.0487 125.596L98.8784 126.404ZM152.039 4.49999H186.164V2.49999H152.039V4.49999ZM185.249 3.90492L239.499 126.405L241.328 125.595L187.078 3.09507L185.249 3.90492ZM240.414 125H204.364V127H240.414V125ZM205.291 125.625L195.666 101.825L193.812 102.575L203.437 126.375L205.291 125.625ZM185.516 76.2772L169.766 37.0772L167.911 37.8228L183.661 77.0228L185.516 76.2772ZM167.911 37.0772L152.161 76.2772L154.016 77.0228L169.766 37.8228L167.911 37.0772ZM153.089 77.65H184.589V75.65H153.089V77.65ZM388.178 140.175L388.953 140.806L389.476 140.164L388.942 139.53L388.178 140.175ZM373.128 151.55L372.732 150.632L372.721 150.637L372.71 150.642L373.128 151.55ZM335.503 152.95L335.807 151.997L335.807 151.997L335.503 152.95ZM318.878 144.2L319.467 143.392L319.464 143.39L318.878 144.2ZM300.328 127.4L301.052 126.711L300.821 126.468L300.49 126.413L300.328 127.4ZM271.978 116.025L271.402 116.843L271.978 116.025ZM252.553 93.975L251.663 94.4316L251.668 94.4407L252.553 93.975ZM254.478 32.025L253.626 31.5015L253.621 31.509L254.478 32.025ZM278.803 9.27499L278.336 8.39071L278.332 8.39292L278.803 9.27499ZM348.628 9.27499L348.157 10.1571L348.161 10.1593L348.628 9.27499ZM372.953 32.025L372.096 32.541L372.101 32.5485L372.953 32.025ZM370.503 101.325L369.689 100.744L369.688 100.745L370.503 101.325ZM340.228 123.9L339.891 122.958L338.48 123.463L339.488 124.573L340.228 123.9ZM347.053 129.325L346.625 130.229L346.634 130.233L346.642 130.237L347.053 129.325ZM373.128 122.325L373.892 121.68L373.176 120.83L372.406 121.633L373.128 122.325ZM285.103 83.125L284.224 83.6025L284.229 83.6106L285.103 83.125ZM297.003 95.375L297.505 94.5105L297.505 94.5105L297.003 95.375ZM330.603 95.375L331.105 96.2395L331.105 96.2395L330.603 95.375ZM342.503 83.125L343.377 83.6107L343.381 83.6025L342.503 83.125ZM342.503 46.55L341.624 47.0275L341.629 47.0356L342.503 46.55ZM330.603 34.125L331.105 33.2605L331.105 33.2605L330.603 34.125ZM297.003 34.125L296.5 33.2605L296.5 33.2605L297.003 34.125ZM285.103 46.55L285.977 47.0357L285.981 47.0275L285.103 46.55ZM387.402 139.544C383.421 144.435 378.534 148.129 372.732 150.632L373.524 152.468C379.621 149.838 384.768 145.948 388.953 140.806L387.402 139.544ZM372.71 150.642C367.019 153.259 360.747 154.575 353.878 154.575V156.575C361.009 156.575 367.57 155.207 373.546 152.458L372.71 150.642ZM353.878 154.575C347.197 154.575 341.176 153.711 335.807 151.997L335.199 153.903C340.796 155.689 347.026 156.575 353.878 156.575V154.575ZM335.807 151.997C330.444 150.286 324.997 147.425 319.467 143.392L318.289 145.008C323.958 149.142 329.595 152.114 335.199 153.903L335.807 151.997ZM319.464 143.39C314.048 139.472 307.911 133.918 301.052 126.711L299.603 128.089C306.511 135.348 312.741 140.995 318.292 145.01L319.464 143.39ZM300.49 126.413C290.013 124.686 280.706 120.949 272.554 115.207L271.402 116.843C279.816 122.768 289.409 126.614 300.165 128.387L300.49 126.413ZM272.554 115.207C264.398 109.464 258.03 102.234 253.438 93.5093L251.668 94.4407C256.409 103.449 262.991 110.919 271.402 116.843L272.554 115.207ZM253.443 93.5184C248.97 84.8022 246.728 75.2185 246.728 64.75H244.728C244.728 75.5148 247.036 85.4144 251.663 94.4316L253.443 93.5184ZM246.728 64.75C246.728 52.7847 249.602 42.0571 255.334 32.541L253.621 31.509C247.687 41.3595 244.728 52.4487 244.728 64.75H246.728ZM255.33 32.5485C261.185 23.0202 269.16 15.5589 279.274 10.1571L278.332 8.39292C267.912 13.9577 259.671 21.6632 253.626 31.5015L255.33 32.5485ZM279.27 10.1593C289.495 4.75952 300.999 2.04999 313.803 2.04999V0.0499919C300.707 0.0499919 288.877 2.8238 278.336 8.39072L279.27 10.1593ZM313.803 2.04999C326.607 2.04999 338.051 4.75956 348.157 10.1571L349.099 8.39291C338.672 2.82375 326.898 0.0499919 313.803 0.0499919V2.04999ZM348.161 10.1593C358.39 15.561 366.361 23.0198 372.096 32.541L373.809 31.509C367.878 21.6635 359.633 13.9556 349.095 8.39072L348.161 10.1593ZM372.101 32.5485C377.947 42.0636 380.878 52.7885 380.878 64.75H382.878C382.878 52.4448 379.858 41.353 373.805 31.5015L372.101 32.5485ZM380.878 64.75C380.878 78.3204 377.144 90.3064 369.689 100.744L371.317 101.906C379.028 91.1103 382.878 78.7129 382.878 64.75H380.878ZM369.688 100.745C362.346 111.07 352.425 118.474 339.891 122.958L340.565 124.842C353.464 120.226 363.727 112.58 371.318 101.905L369.688 100.745ZM339.488 124.573C341.875 127.199 344.252 129.105 346.625 130.229L347.481 128.421C345.42 127.445 343.247 125.734 340.968 123.227L339.488 124.573ZM346.642 130.237C349.111 131.348 351.76 131.9 354.578 131.9V129.9C352.029 129.9 349.661 129.402 347.463 128.413L346.642 130.237ZM354.578 131.9C361.775 131.9 368.209 128.898 373.85 123.017L372.406 121.633C367.08 127.185 361.147 129.9 354.578 129.9V131.9ZM372.363 122.97L387.413 140.82L388.942 139.53L373.892 121.68L372.363 122.97ZM279.728 64.75C279.728 71.7786 281.218 78.0715 284.224 83.6025L285.981 82.6475C283.154 77.4452 281.728 71.488 281.728 64.75H279.728ZM284.229 83.6106C287.23 89.0123 291.322 93.2291 296.5 96.2395L297.505 94.5105C292.65 91.6876 288.809 87.7377 285.977 82.6394L284.229 83.6106ZM296.5 96.2395C301.68 99.2508 307.455 100.75 313.803 100.75V98.75C307.784 98.75 302.359 97.3326 297.505 94.5105L296.5 96.2395ZM313.803 100.75C320.151 100.75 325.926 99.2508 331.105 96.2395L330.1 94.5105C325.246 97.3326 319.822 98.75 313.803 98.75V100.75ZM331.105 96.2395C336.283 93.2291 340.376 89.0123 343.377 83.6106L341.629 82.6394C338.796 87.7377 334.956 91.6876 330.1 94.5105L331.105 96.2395ZM343.381 83.6025C346.387 78.0715 347.878 71.7786 347.878 64.75H345.878C345.878 71.488 344.452 77.4452 341.624 82.6475L343.381 83.6025ZM347.878 64.75C347.878 57.7218 346.388 51.4834 343.377 46.0644L341.629 47.0356C344.451 52.1166 345.878 58.0115 345.878 64.75H347.878ZM343.381 46.0725C340.382 40.5536 336.289 36.2742 331.105 33.2605L330.1 34.9895C334.95 37.8091 338.79 41.813 341.624 47.0275L343.381 46.0725ZM331.105 33.2605C325.926 30.2492 320.151 28.75 313.803 28.75V30.75C319.822 30.75 325.246 32.1674 330.1 34.9895L331.105 33.2605ZM313.803 28.75C307.455 28.75 301.68 30.2492 296.5 33.2605L297.505 34.9895C302.359 32.1674 307.784 30.75 313.803 30.75V28.75ZM296.5 33.2605C291.317 36.2742 287.224 40.5536 284.224 46.0725L285.981 47.0275C288.815 41.813 292.656 37.8091 297.505 34.9895L296.5 33.2605ZM284.229 46.0644C281.218 51.4834 279.728 57.7218 279.728 64.75H281.728C281.728 58.0115 283.154 52.1166 285.977 47.0356L284.229 46.0644ZM417.701 124.775L417.955 123.808L417.955 123.808L417.701 124.775ZM394.951 114.975L394.037 114.568L393.702 115.321L394.377 115.794L394.951 114.975ZM406.326 89.425L406.876 88.5902L405.892 87.9409L405.412 89.0183L406.326 89.425ZM425.401 98.175L425.694 97.2189L425.694 97.2189L425.401 98.175ZM460.926 83.825L460.501 84.7305L460.518 84.7383L460.535 84.7456L460.926 83.825ZM442.726 78.4L442.943 77.4238L442.936 77.4224L442.726 78.4ZM419.626 72.1L419.273 73.0356L419.281 73.0385L419.288 73.0413L419.626 72.1ZM403.176 20.65L404 21.2159L404.005 21.2084L403.176 20.65ZM421.376 6.3L420.982 5.38084L420.977 5.38293L421.376 6.3ZM475.101 3.85L474.869 4.82265L474.875 4.82429L474.882 4.82584L475.101 3.85ZM495.751 11.725L496.675 12.1083L497.008 11.3044L496.258 10.8631L495.751 11.725ZM485.076 37.45L484.601 38.3299L485.575 38.8561L486 37.8333L485.076 37.45ZM436.076 31.15L436.609 31.9962L436.62 31.9893L436.631 31.982L436.076 31.15ZM436.951 46.375L436.55 47.2912L436.55 47.2912L436.951 46.375ZM454.976 51.45L455.184 50.4718L455.183 50.4716L454.976 51.45ZM478.076 57.925L477.717 58.8583L477.728 58.8625L477.738 58.8663L478.076 57.925ZM494.001 68.775L493.252 69.4372L493.26 69.4464L493.268 69.4554L494.001 68.775ZM494.701 108.85L493.876 108.284L493.876 108.284L494.701 108.85ZM476.326 123.2L476.72 124.119L476.731 124.114L476.326 123.2ZM446.576 127.45C436.743 127.45 427.203 126.235 417.955 123.808L417.447 125.742C426.865 128.215 436.576 129.45 446.576 129.45V127.45ZM417.955 123.808C408.698 121.378 401.233 118.152 395.524 114.156L394.377 115.794C400.335 119.965 408.037 123.272 417.447 125.742L417.955 123.808ZM395.864 115.382L407.239 89.8317L405.412 89.0183L394.037 114.568L395.864 115.382ZM405.775 90.2598C411.349 93.9362 417.797 96.8906 425.108 99.1311L425.694 97.2189C418.538 95.026 412.269 92.1471 406.876 88.5902L405.775 90.2598ZM425.108 99.1311C432.429 101.375 439.644 102.5 446.751 102.5V100.5C439.858 100.5 432.84 99.4088 425.694 97.2189L425.108 99.1311ZM446.751 102.5C453.452 102.5 458.627 101.668 462.161 99.9007C463.942 99.0101 465.338 97.8664 466.286 96.4438C467.239 95.0149 467.701 93.3625 467.701 91.525H465.701C465.701 93.0125 465.332 94.2695 464.622 95.3344C463.908 96.4055 462.81 97.3399 461.266 98.1118C458.15 99.6698 453.35 100.5 446.751 100.5V102.5ZM467.701 91.525C467.701 89.5794 467.161 87.8474 466.057 86.375C464.961 84.914 463.356 83.7696 461.316 82.9044L460.535 84.7456C462.346 85.5137 463.628 86.4694 464.457 87.575C465.278 88.6693 465.701 89.9706 465.701 91.525H467.701ZM461.35 82.9195C457.512 81.1202 451.355 79.2931 442.943 77.4238L442.509 79.3762C450.897 81.2402 456.873 83.0298 460.501 84.7305L461.35 82.9195ZM442.936 77.4224C433.746 75.4447 426.092 73.3556 419.963 71.1587L419.288 73.0413C425.527 75.2777 433.273 77.3886 442.516 79.3776L442.936 77.4224ZM419.979 71.1644C413.95 68.8893 408.777 65.3091 404.45 60.4128L402.952 61.7372C407.491 66.8743 412.935 70.644 419.273 73.0356L419.979 71.1644ZM404.45 60.4128C400.219 55.6244 398.051 49.1162 398.051 40.775H396.051C396.051 49.4671 398.316 56.4923 402.952 61.7372L404.45 60.4128ZM398.051 40.775C398.051 33.5029 400.036 26.9932 404 21.2158L402.351 20.0841C398.15 26.2067 396.051 33.1138 396.051 40.775H398.051ZM404.005 21.2084C407.963 15.3291 413.864 10.6564 421.775 7.21707L420.977 5.38293C412.788 8.94357 406.556 13.8375 402.346 20.0916L404.005 21.2084ZM421.77 7.21914C429.779 3.78683 439.611 2.04999 451.301 2.04999V0.0499919C439.424 0.0499919 429.307 1.81316 420.982 5.38085L421.77 7.21914ZM451.301 2.04999C459.273 2.04999 467.128 2.97418 474.869 4.82265L475.333 2.87735C467.44 0.992476 459.429 0.0499919 451.301 0.0499919V2.04999ZM474.882 4.82584C482.613 6.55667 489.397 9.14736 495.244 12.5869L496.258 10.8631C490.205 7.30263 483.222 4.64332 475.319 2.87415L474.882 4.82584ZM494.827 11.3417L484.152 37.0667L486 37.8333L496.675 12.1083L494.827 11.3417ZM485.551 36.5701C473.769 30.2076 462.29 27 451.126 27V29C461.895 29 473.05 32.0924 484.601 38.3299L485.551 36.5701ZM451.126 27C444.185 27 438.922 28.0506 435.521 30.3179L436.631 31.982C439.53 30.0494 444.3 29 451.126 29V27ZM435.543 30.3038C432.15 32.44 430.351 35.3617 430.351 39.025H432.351C432.351 36.1549 433.702 33.8266 436.609 31.9962L435.543 30.3038ZM430.351 39.025C430.351 40.8631 430.881 42.5084 431.955 43.9185C433.02 45.3155 434.576 46.4276 436.55 47.2912L437.352 45.4588C435.592 44.689 434.349 43.7595 433.546 42.7065C432.754 41.6666 432.351 40.4535 432.351 39.025H430.351ZM436.55 47.2912C440.382 48.9677 446.474 50.676 454.769 52.4284L455.183 50.4716C446.911 48.724 440.986 47.049 437.352 45.4588L436.55 47.2912ZM454.768 52.4282C464.071 54.4051 471.716 56.5504 477.717 58.8583L478.435 56.9916C472.302 54.6329 464.547 52.4615 455.184 50.4718L454.768 52.4282ZM477.738 58.8663C483.76 61.025 488.928 64.5443 493.252 69.4372L494.75 68.1128C490.208 62.9724 484.758 59.2583 478.413 56.9837L477.738 58.8663ZM493.268 69.4554C497.603 74.1239 499.826 80.564 499.826 88.9H501.826C501.826 80.2026 499.499 73.2261 494.734 68.0945L493.268 69.4554ZM499.826 88.9C499.826 96.052 497.843 102.504 493.876 108.284L495.525 109.416C499.725 103.296 501.826 96.448 501.826 88.9H499.826ZM493.876 108.284C489.92 114.049 483.958 118.726 475.921 122.286L476.731 124.114C485.027 120.44 491.315 115.551 495.525 109.416L493.876 108.284ZM475.932 122.281C467.922 125.714 458.147 127.45 446.576 127.45V129.45C458.338 129.45 468.396 127.686 476.72 124.119L475.932 122.281Z" fill="#3D3D3D"/>
</svg>
