<svg width="82" height="73" viewBox="0 0 82 73" fill="none" xmlns="http://www.w3.org/2000/svg">
<path d="M46.0756 71.75L46.8256 71.75V71V40.732H57.0111H57.6664L57.7543 40.0827L59.3916 27.9943L59.5068 27.1437H58.6483H46.8253V20.1758C46.8253 18.4631 47.084 17.2347 47.8064 16.4178C48.5124 15.6195 49.8219 15.041 52.3677 15.041H52.368L59.0912 15.038L59.8409 15.0376V14.288V3.47627V2.81514L59.185 2.7322C57.9866 2.58065 53.9635 2.25 49.294 2.25C44.3049 2.25 40.0215 3.70117 36.9796 6.56367C33.9308 9.43263 32.2135 13.6401 32.2135 18.979V27.1437H22H21.25V27.8937V39.982V40.732H22H32.2135V70.9997V71.7497L32.9635 71.7497L46.0756 71.75Z" stroke="#626262" stroke-width="1.5"/>
</svg>
